<svg width="592" height="322" viewBox="0 0 592 322" fill="none" xmlns="http://www.w3.org/2000/svg">
<path d="M344.611 290.24C343.864 290.24 343.208 290.059 342.643 289.696C342.088 289.333 341.646 288.827 341.315 288.176C340.792 287.141 340.531 285.856 340.531 284.32C340.531 282.773 340.792 281.483 341.315 280.448C341.646 279.797 342.088 279.296 342.643 278.944C343.208 278.581 343.864 278.4 344.611 278.4C345.358 278.4 346.008 278.581 346.563 278.944C347.128 279.296 347.576 279.797 347.907 280.448C348.43 281.483 348.691 282.773 348.691 284.32C348.691 285.856 348.43 287.141 347.907 288.176C347.576 288.827 347.128 289.333 346.563 289.696C346.008 290.059 345.358 290.24 344.611 290.24ZM344.611 289.312C345.656 289.312 346.44 288.768 346.963 287.68C347.379 286.795 347.587 285.675 347.587 284.32C347.587 282.944 347.379 281.819 346.963 280.944C346.451 279.867 345.667 279.328 344.611 279.328C343.555 279.328 342.771 279.867 342.259 280.944C341.843 281.819 341.635 282.944 341.635 284.32C341.635 285.685 341.843 286.805 342.259 287.68C342.782 288.768 343.566 289.312 344.611 289.312Z" fill="#697690"/>
<path d="M404.573 278.768C404.69 278.683 404.823 278.64 404.973 278.64H405.229C405.442 278.64 405.549 278.747 405.549 278.96V289.68C405.549 289.893 405.442 290 405.229 290H404.797C404.583 290 404.477 289.893 404.477 289.68V280.016L402.061 281.744C401.986 281.797 401.917 281.824 401.853 281.824C401.757 281.824 401.677 281.776 401.613 281.68L401.453 281.44C401.41 281.387 401.389 281.323 401.389 281.248C401.389 281.152 401.437 281.067 401.533 280.992L404.573 278.768ZM412.827 290.24C412.08 290.24 411.424 290.059 410.859 289.696C410.304 289.333 409.861 288.827 409.531 288.176C409.008 287.141 408.747 285.856 408.747 284.32C408.747 282.773 409.008 281.483 409.531 280.448C409.861 279.797 410.304 279.296 410.859 278.944C411.424 278.581 412.08 278.4 412.827 278.4C413.573 278.4 414.224 278.581 414.779 278.944C415.344 279.296 415.792 279.797 416.123 280.448C416.645 281.483 416.907 282.773 416.907 284.32C416.907 285.856 416.645 287.141 416.123 288.176C415.792 288.827 415.344 289.333 414.779 289.696C414.224 290.059 413.573 290.24 412.827 290.24ZM412.827 289.312C413.872 289.312 414.656 288.768 415.179 287.68C415.595 286.795 415.803 285.675 415.803 284.32C415.803 282.944 415.595 281.819 415.179 280.944C414.667 279.867 413.883 279.328 412.827 279.328C411.771 279.328 410.987 279.867 410.475 280.944C410.059 281.819 409.851 282.944 409.851 284.32C409.851 285.685 410.059 286.805 410.475 287.68C410.997 288.768 411.781 289.312 412.827 289.312Z" fill="#697690"/>
<path d="M477.585 289.072C477.798 289.072 477.905 289.179 477.905 289.392V289.68C477.905 289.893 477.798 290 477.585 290H470.481C470.267 290 470.161 289.893 470.161 289.68V289.616C470.161 288.837 470.294 288.181 470.561 287.648C470.838 287.104 471.195 286.645 471.633 286.272C472.081 285.899 472.694 285.472 473.473 284.992C473.547 284.939 473.825 284.773 474.305 284.496C474.87 284.176 475.313 283.899 475.633 283.664C475.953 283.429 476.219 283.141 476.433 282.8C476.646 282.448 476.753 282.037 476.753 281.568C476.753 280.853 476.513 280.304 476.033 279.92C475.553 279.536 474.971 279.344 474.289 279.344C473.627 279.344 473.078 279.483 472.641 279.76C472.203 280.037 471.697 280.517 471.121 281.2C471.046 281.296 470.955 281.344 470.849 281.344C470.795 281.344 470.731 281.317 470.657 281.264L470.385 281.056C470.289 280.971 470.241 280.885 470.241 280.8C470.241 280.747 470.267 280.683 470.321 280.608C470.886 279.893 471.473 279.349 472.081 278.976C472.699 278.603 473.425 278.416 474.257 278.416C474.95 278.416 475.569 278.549 476.113 278.816C476.657 279.072 477.078 279.44 477.377 279.92C477.686 280.389 477.841 280.923 477.841 281.52C477.841 282.149 477.707 282.693 477.441 283.152C477.185 283.6 476.859 283.973 476.465 284.272C476.07 284.56 475.537 284.901 474.865 285.296L474.065 285.776C473.393 286.192 472.881 286.533 472.529 286.8C472.177 287.056 471.883 287.371 471.649 287.744C471.414 288.107 471.275 288.549 471.233 289.072H477.585ZM483.506 290.24C482.76 290.24 482.104 290.059 481.538 289.696C480.984 289.333 480.541 288.827 480.21 288.176C479.688 287.141 479.426 285.856 479.426 284.32C479.426 282.773 479.688 281.483 480.21 280.448C480.541 279.797 480.984 279.296 481.538 278.944C482.104 278.581 482.76 278.4 483.506 278.4C484.253 278.4 484.904 278.581 485.458 278.944C486.024 279.296 486.472 279.797 486.802 280.448C487.325 281.483 487.586 282.773 487.586 284.32C487.586 285.856 487.325 287.141 486.802 288.176C486.472 288.827 486.024 289.333 485.458 289.696C484.904 290.059 484.253 290.24 483.506 290.24ZM483.506 289.312C484.552 289.312 485.336 288.768 485.858 287.68C486.274 286.795 486.482 285.675 486.482 284.32C486.482 282.944 486.274 281.819 485.858 280.944C485.346 279.867 484.562 279.328 483.506 279.328C482.45 279.328 481.666 279.867 481.154 280.944C480.738 281.819 480.53 282.944 480.53 284.32C480.53 285.685 480.738 286.805 481.154 287.68C481.677 288.768 482.461 289.312 483.506 289.312Z" fill="#697690"/>
<path d="M543.752 283.248C544.883 283.248 545.8 283.536 546.504 284.112C547.208 284.688 547.56 285.509 547.56 286.576C547.56 287.173 547.411 287.755 547.112 288.32C546.824 288.885 546.392 289.349 545.816 289.712C545.24 290.064 544.547 290.24 543.736 290.24C543.064 290.24 542.419 290.144 541.8 289.952C541.192 289.749 540.568 289.445 539.928 289.04C539.821 288.976 539.768 288.891 539.768 288.784C539.768 288.709 539.789 288.645 539.832 288.592L540.04 288.304C540.104 288.208 540.184 288.16 540.28 288.16C540.365 288.16 540.435 288.181 540.488 288.224C541.117 288.619 541.672 288.901 542.152 289.072C542.643 289.232 543.16 289.312 543.704 289.312C544.259 289.312 544.744 289.195 545.16 288.96C545.576 288.715 545.896 288.389 546.12 287.984C546.355 287.568 546.472 287.104 546.472 286.592C546.472 285.824 546.227 285.221 545.736 284.784C545.245 284.347 544.515 284.128 543.544 284.128C543.139 284.128 542.781 284.171 542.472 284.256C542.44 284.267 542.397 284.272 542.344 284.272C542.227 284.272 542.131 284.219 542.056 284.112L541.88 283.872C541.827 283.787 541.8 283.712 541.8 283.648C541.8 283.563 541.837 283.488 541.912 283.424L545.944 279.568H540.536C540.323 279.568 540.216 279.461 540.216 279.248V278.96C540.216 278.747 540.323 278.64 540.536 278.64H546.968C547.181 278.64 547.288 278.747 547.288 278.96V279.312C547.288 279.461 547.229 279.595 547.112 279.712L543.368 283.264L543.752 283.248ZM553.319 290.24C552.572 290.24 551.916 290.059 551.351 289.696C550.796 289.333 550.354 288.827 550.023 288.176C549.5 287.141 549.239 285.856 549.239 284.32C549.239 282.773 549.5 281.483 550.023 280.448C550.354 279.797 550.796 279.296 551.351 278.944C551.916 278.581 552.572 278.4 553.319 278.4C554.066 278.4 554.716 278.581 555.271 278.944C555.836 279.296 556.284 279.797 556.615 280.448C557.138 281.483 557.399 282.773 557.399 284.32C557.399 285.856 557.138 287.141 556.615 288.176C556.284 288.827 555.836 289.333 555.271 289.696C554.716 290.059 554.066 290.24 553.319 290.24ZM553.319 289.312C554.364 289.312 555.148 288.768 555.671 287.68C556.087 286.795 556.295 285.675 556.295 284.32C556.295 282.944 556.087 281.819 555.671 280.944C555.159 279.867 554.375 279.328 553.319 279.328C552.263 279.328 551.479 279.867 550.967 280.944C550.551 281.819 550.343 282.944 550.343 284.32C550.343 285.685 550.551 286.805 550.967 287.68C551.49 288.768 552.274 289.312 553.319 289.312Z" fill="#697690"/>
<path d="M471.163 41H339.336V82H471.163C473.372 82 475.163 80.2091 475.163 78V45C475.163 42.7909 473.372 41 471.163 41Z" fill="#5473B5"/>
<path d="M525.836 101H339.336V142H525.836C528.045 142 529.836 140.209 529.836 138V105C529.836 102.791 528.045 101 525.836 101Z" fill="#5473B5"/>
<path d="M498.499 162H339.336V203H498.499C500.709 203 502.499 201.209 502.499 199V166C502.499 163.791 500.709 162 498.499 162Z" fill="#5473B5"/>
<path d="M504.479 223H339.336V264H504.479C506.688 264 508.479 262.209 508.479 260V227C508.479 224.791 506.688 223 504.479 223Z" fill="#5473B5"/>
<path d="M320.861 66.5C320.541 66.5 320.327 66.3507 320.221 66.052L319.469 63.892H314.445L313.693 66.052C313.586 66.3507 313.373 66.5 313.053 66.5H312.381C312.221 66.5 312.093 66.468 311.997 66.404C311.911 66.3293 311.869 66.228 311.869 66.1C311.869 66.036 311.885 65.956 311.917 65.86L315.629 55.588C315.735 55.2893 315.949 55.14 316.269 55.14H317.693C318.013 55.14 318.226 55.2893 318.333 55.588L322.045 65.86C322.077 65.956 322.093 66.036 322.093 66.1C322.093 66.228 322.045 66.3293 321.949 66.404C321.863 66.468 321.741 66.5 321.581 66.5H320.861ZM318.957 62.372L318.461 60.964C318.45 60.9427 318.333 60.6067 318.109 59.956C317.543 58.356 317.159 57.2147 316.957 56.532C316.647 57.5133 316.237 58.7293 315.725 60.18L315.453 60.98L314.973 62.372H318.957Z" fill="#697690"/>
<path d="M319.735 121.016C320.417 121.219 320.951 121.555 321.335 122.024C321.719 122.493 321.911 123.085 321.911 123.8C321.911 124.792 321.591 125.576 320.951 126.152C320.321 126.717 319.473 127 318.407 127H313.511C313.34 127 313.201 126.952 313.095 126.856C312.999 126.749 312.951 126.611 312.951 126.44V116.2C312.951 116.019 312.999 115.88 313.095 115.784C313.201 115.688 313.34 115.64 313.511 115.64H318.151C319.143 115.64 319.948 115.896 320.567 116.408C321.196 116.909 321.511 117.624 321.511 118.552C321.511 119.171 321.351 119.693 321.031 120.12C320.711 120.536 320.279 120.835 319.735 121.016ZM314.775 120.344H317.735C318.375 120.344 318.865 120.2 319.207 119.912C319.559 119.613 319.735 119.197 319.735 118.664C319.735 118.141 319.564 117.747 319.223 117.48C318.881 117.213 318.391 117.08 317.751 117.08H314.775V120.344ZM317.799 125.56C318.545 125.56 319.111 125.395 319.495 125.064C319.889 124.733 320.087 124.275 320.087 123.688C320.087 123.112 319.884 122.653 319.479 122.312C319.084 121.96 318.524 121.784 317.799 121.784H314.775V125.56H317.799Z" fill="#697690"/>
<path d="M317.893 187.756C316.763 187.756 315.781 187.5 314.949 186.988C314.128 186.476 313.493 185.772 313.045 184.876C312.608 183.969 312.389 182.945 312.389 181.804C312.389 180.663 312.608 179.649 313.045 178.764C313.483 177.868 314.117 177.164 314.949 176.652C315.781 176.14 316.779 175.884 317.941 175.884C318.645 175.884 319.285 175.985 319.861 176.188C320.437 176.38 321.019 176.705 321.605 177.164C321.765 177.292 321.845 177.436 321.845 177.596C321.845 177.703 321.792 177.825 321.685 177.964L321.333 178.38C321.205 178.529 321.072 178.604 320.933 178.604C320.827 178.604 320.693 178.551 320.533 178.444C320.053 178.071 319.611 177.815 319.205 177.676C318.811 177.537 318.384 177.468 317.925 177.468C317.179 177.468 316.528 177.649 315.973 178.012C315.419 178.375 314.992 178.887 314.693 179.548C314.395 180.199 314.245 180.951 314.245 181.804C314.245 182.657 314.395 183.415 314.693 184.076C314.992 184.737 315.413 185.255 315.957 185.628C316.501 185.991 317.136 186.172 317.861 186.172C318.405 186.172 318.891 186.076 319.317 185.884C319.744 185.692 320.208 185.383 320.709 184.956C320.848 184.839 320.981 184.78 321.109 184.78C321.248 184.78 321.381 184.855 321.509 185.004L321.861 185.404C321.968 185.521 322.021 185.644 322.021 185.772C322.021 185.953 321.936 186.113 321.765 186.252C321.147 186.785 320.533 187.169 319.925 187.404C319.328 187.639 318.651 187.756 317.893 187.756Z" fill="#697690"/>
<path d="M312.948 248C312.778 248 312.639 247.952 312.532 247.856C312.436 247.749 312.388 247.611 312.388 247.44V237.2C312.388 237.019 312.436 236.88 312.532 236.784C312.639 236.688 312.778 236.64 312.948 236.64H316.804C317.871 236.64 318.783 236.88 319.54 237.36C320.308 237.84 320.89 238.512 321.284 239.376C321.69 240.229 321.892 241.211 321.892 242.32C321.892 243.429 321.69 244.416 321.284 245.28C320.89 246.133 320.308 246.8 319.54 247.28C318.783 247.76 317.871 248 316.804 248H312.948ZM316.532 246.464C317.62 246.464 318.474 246.107 319.092 245.392C319.722 244.667 320.036 243.643 320.036 242.32C320.036 240.997 319.722 239.979 319.092 239.264C318.474 238.539 317.62 238.176 316.532 238.176H314.212V246.464H316.532Z" fill="#697690"/>
<path d="M71.3764 289.5C71.0564 289.5 70.843 289.351 70.7364 289.052L69.9844 286.892H64.9604L64.2084 289.052C64.1017 289.351 63.8884 289.5 63.5684 289.5H62.8964C62.7364 289.5 62.6084 289.468 62.5124 289.404C62.427 289.329 62.3844 289.228 62.3844 289.1C62.3844 289.036 62.4004 288.956 62.4324 288.86L66.1444 278.588C66.251 278.289 66.4644 278.14 66.7844 278.14H68.2084C68.5284 278.14 68.7417 278.289 68.8484 278.588L72.5604 288.86C72.5924 288.956 72.6084 289.036 72.6084 289.1C72.6084 289.228 72.5604 289.329 72.4644 289.404C72.379 289.468 72.2564 289.5 72.0964 289.5H71.3764ZM69.4724 285.372L68.9764 283.964C68.9657 283.943 68.8484 283.607 68.6244 282.956C68.059 281.356 67.675 280.215 67.4724 279.532C67.163 280.513 66.7524 281.729 66.2404 283.18L65.9684 283.98L65.4884 285.372H69.4724Z" fill="#697690"/>
<path d="M127.792 283.516C128.475 283.719 129.008 284.055 129.392 284.524C129.776 284.993 129.968 285.585 129.968 286.3C129.968 287.292 129.648 288.076 129.008 288.652C128.379 289.217 127.531 289.5 126.464 289.5H121.568C121.397 289.5 121.259 289.452 121.152 289.356C121.056 289.249 121.008 289.111 121.008 288.94V278.7C121.008 278.519 121.056 278.38 121.152 278.284C121.259 278.188 121.397 278.14 121.568 278.14H126.208C127.2 278.14 128.005 278.396 128.624 278.908C129.253 279.409 129.568 280.124 129.568 281.052C129.568 281.671 129.408 282.193 129.088 282.62C128.768 283.036 128.336 283.335 127.792 283.516ZM122.832 282.844H125.792C126.432 282.844 126.923 282.7 127.264 282.412C127.616 282.113 127.792 281.697 127.792 281.164C127.792 280.641 127.621 280.247 127.28 279.98C126.939 279.713 126.448 279.58 125.808 279.58H122.832V282.844ZM125.856 288.06C126.603 288.06 127.168 287.895 127.552 287.564C127.947 287.233 128.144 286.775 128.144 286.188C128.144 285.612 127.941 285.153 127.536 284.812C127.141 284.46 126.581 284.284 125.856 284.284H122.832V288.06H125.856Z" fill="#697690"/>
<path d="M185.459 283.516C186.141 283.719 186.675 284.055 187.059 284.524C187.443 284.993 187.635 285.585 187.635 286.3C187.635 287.292 187.315 288.076 186.675 288.652C186.045 289.217 185.197 289.5 184.131 289.5H179.235C179.064 289.5 178.925 289.452 178.819 289.356C178.723 289.249 178.675 289.111 178.675 288.94V278.7C178.675 278.519 178.723 278.38 178.819 278.284C178.925 278.188 179.064 278.14 179.235 278.14H183.875C184.867 278.14 185.672 278.396 186.291 278.908C186.92 279.409 187.235 280.124 187.235 281.052C187.235 281.671 187.075 282.193 186.755 282.62C186.435 283.036 186.003 283.335 185.459 283.516ZM180.499 282.844H183.459C184.099 282.844 184.589 282.7 184.931 282.412C185.283 282.113 185.459 281.697 185.459 281.164C185.459 280.641 185.288 280.247 184.947 279.98C184.605 279.713 184.115 279.58 183.475 279.58H180.499V282.844ZM183.523 288.06C184.269 288.06 184.835 287.895 185.219 287.564C185.613 287.233 185.811 286.775 185.811 286.188C185.811 285.612 185.608 285.153 185.203 284.812C184.808 284.46 184.248 284.284 183.523 284.284H180.499V288.06H183.523Z" fill="#697690"/>
<path d="M241.253 289.756C240.122 289.756 239.141 289.5 238.309 288.988C237.487 288.476 236.853 287.772 236.405 286.876C235.967 285.969 235.749 284.945 235.749 283.804C235.749 282.663 235.967 281.649 236.405 280.764C236.842 279.868 237.477 279.164 238.309 278.652C239.141 278.14 240.138 277.884 241.301 277.884C242.005 277.884 242.645 277.985 243.221 278.188C243.797 278.38 244.378 278.705 244.965 279.164C245.125 279.292 245.205 279.436 245.205 279.596C245.205 279.703 245.151 279.825 245.045 279.964L244.693 280.38C244.565 280.529 244.431 280.604 244.293 280.604C244.186 280.604 244.053 280.551 243.893 280.444C243.413 280.071 242.97 279.815 242.565 279.676C242.17 279.537 241.743 279.468 241.285 279.468C240.538 279.468 239.887 279.649 239.333 280.012C238.778 280.375 238.351 280.887 238.053 281.548C237.754 282.199 237.605 282.951 237.605 283.804C237.605 284.657 237.754 285.415 238.053 286.076C238.351 286.737 238.773 287.255 239.317 287.628C239.861 287.991 240.495 288.172 241.221 288.172C241.765 288.172 242.25 288.076 242.677 287.884C243.103 287.692 243.567 287.383 244.069 286.956C244.207 286.839 244.341 286.78 244.469 286.78C244.607 286.78 244.741 286.855 244.869 287.004L245.221 287.404C245.327 287.521 245.381 287.644 245.381 287.772C245.381 287.953 245.295 288.113 245.125 288.252C244.506 288.785 243.893 289.169 243.285 289.404C242.687 289.639 242.01 289.756 241.253 289.756Z" fill="#697690"/>
<path d="M17.2977 50.092C18.2871 50.092 19.0897 50.344 19.7057 50.848C20.3217 51.352 20.6297 52.0707 20.6297 53.004C20.6297 53.5267 20.4991 54.0353 20.2377 54.53C19.9857 55.0247 19.6077 55.4307 19.1037 55.748C18.5997 56.056 17.9931 56.21 17.2837 56.21C16.6957 56.21 16.1311 56.126 15.5897 55.958C15.0577 55.7807 14.5117 55.5147 13.9517 55.16C13.8584 55.104 13.8117 55.0293 13.8117 54.936C13.8117 54.8707 13.8304 54.8147 13.8677 54.768L14.0497 54.516C14.1057 54.432 14.1757 54.39 14.2597 54.39C14.3344 54.39 14.3951 54.4087 14.4417 54.446C14.9924 54.7913 15.4777 55.0387 15.8977 55.188C16.3271 55.328 16.7797 55.398 17.2557 55.398C17.7411 55.398 18.1657 55.2953 18.5297 55.09C18.8937 54.8753 19.1737 54.5907 19.3697 54.236C19.5751 53.872 19.6777 53.466 19.6777 53.018C19.6777 52.346 19.4631 51.8187 19.0337 51.436C18.6044 51.0533 17.9651 50.862 17.1157 50.862C16.7611 50.862 16.4484 50.8993 16.1777 50.974C16.1497 50.9833 16.1124 50.988 16.0657 50.988C15.9631 50.988 15.8791 50.9413 15.8137 50.848L15.6597 50.638C15.6131 50.5633 15.5897 50.498 15.5897 50.442C15.5897 50.3673 15.6224 50.302 15.6877 50.246L19.2157 46.872H14.4837C14.2971 46.872 14.2037 46.7787 14.2037 46.592V46.34C14.2037 46.1533 14.2971 46.06 14.4837 46.06H20.1117C20.2984 46.06 20.3917 46.1533 20.3917 46.34V46.648C20.3917 46.7787 20.3404 46.8953 20.2377 46.998L16.9617 50.106L17.2977 50.092ZM25.6689 56.21C25.0155 56.21 24.4415 56.0513 23.9469 55.734C23.4615 55.4167 23.0742 54.9733 22.7849 54.404C22.3275 53.4987 22.0989 52.374 22.0989 51.03C22.0989 49.6767 22.3275 48.5473 22.7849 47.642C23.0742 47.0727 23.4615 46.634 23.9469 46.326C24.4415 46.0087 25.0155 45.85 25.6689 45.85C26.3222 45.85 26.8915 46.0087 27.3769 46.326C27.8715 46.634 28.2635 47.0727 28.5529 47.642C29.0102 48.5473 29.2389 49.6767 29.2389 51.03C29.2389 52.374 29.0102 53.4987 28.5529 54.404C28.2635 54.9733 27.8715 55.4167 27.3769 55.734C26.8915 56.0513 26.3222 56.21 25.6689 56.21ZM25.6689 55.398C26.5835 55.398 27.2695 54.922 27.7269 53.97C28.0909 53.1953 28.2729 52.2153 28.2729 51.03C28.2729 49.826 28.0909 48.8413 27.7269 48.076C27.2789 47.1333 26.5929 46.662 25.6689 46.662C24.7449 46.662 24.0589 47.1333 23.6109 48.076C23.2469 48.8413 23.0649 49.826 23.0649 51.03C23.0649 52.2247 23.2469 53.2047 23.6109 53.97C24.0682 54.922 24.7542 55.398 25.6689 55.398Z" fill="#697690"/>
<path d="M20.4875 126.188C20.6741 126.188 20.7675 126.281 20.7675 126.468V126.72C20.7675 126.907 20.6741 127 20.4875 127H14.2715C14.0848 127 13.9915 126.907 13.9915 126.72V126.664C13.9915 125.983 14.1081 125.409 14.3415 124.942C14.5841 124.466 14.8968 124.065 15.2795 123.738C15.6715 123.411 16.2081 123.038 16.8895 122.618C16.9548 122.571 17.1975 122.427 17.6175 122.184C18.1121 121.904 18.4995 121.661 18.7795 121.456C19.0595 121.251 19.2928 120.999 19.4795 120.7C19.6661 120.392 19.7595 120.033 19.7595 119.622C19.7595 118.997 19.5495 118.516 19.1295 118.18C18.7095 117.844 18.2008 117.676 17.6035 117.676C17.0248 117.676 16.5441 117.797 16.1615 118.04C15.7788 118.283 15.3355 118.703 14.8315 119.3C14.7661 119.384 14.6868 119.426 14.5935 119.426C14.5468 119.426 14.4908 119.403 14.4255 119.356L14.1875 119.174C14.1035 119.099 14.0615 119.025 14.0615 118.95C14.0615 118.903 14.0848 118.847 14.1315 118.782C14.6261 118.157 15.1395 117.681 15.6715 117.354C16.2128 117.027 16.8475 116.864 17.5755 116.864C18.1821 116.864 18.7235 116.981 19.1995 117.214C19.6755 117.438 20.0441 117.76 20.3055 118.18C20.5761 118.591 20.7115 119.057 20.7115 119.58C20.7115 120.131 20.5948 120.607 20.3615 121.008C20.1375 121.4 19.8528 121.727 19.5075 121.988C19.1621 122.24 18.6955 122.539 18.1075 122.884L17.4075 123.304C16.8195 123.668 16.3715 123.967 16.0635 124.2C15.7555 124.424 15.4988 124.699 15.2935 125.026C15.0881 125.343 14.9668 125.731 14.9295 126.188H20.4875ZM25.6689 127.21C25.0155 127.21 24.4415 127.051 23.9469 126.734C23.4615 126.417 23.0742 125.973 22.7849 125.404C22.3275 124.499 22.0989 123.374 22.0989 122.03C22.0989 120.677 22.3275 119.547 22.7849 118.642C23.0742 118.073 23.4615 117.634 23.9469 117.326C24.4415 117.009 25.0155 116.85 25.6689 116.85C26.3222 116.85 26.8915 117.009 27.3769 117.326C27.8715 117.634 28.2635 118.073 28.5529 118.642C29.0102 119.547 29.2389 120.677 29.2389 122.03C29.2389 123.374 29.0102 124.499 28.5529 125.404C28.2635 125.973 27.8715 126.417 27.3769 126.734C26.8915 127.051 26.3222 127.21 25.6689 127.21ZM25.6689 126.398C26.5835 126.398 27.2695 125.922 27.7269 124.97C28.0909 124.195 28.2729 123.215 28.2729 122.03C28.2729 120.826 28.0909 119.841 27.7269 119.076C27.2789 118.133 26.5929 117.662 25.6689 117.662C24.7449 117.662 24.0589 118.133 23.6109 119.076C23.2469 119.841 23.0649 120.826 23.0649 122.03C23.0649 123.225 23.2469 124.205 23.6109 124.97C24.0682 125.922 24.7542 126.398 25.6689 126.398Z" fill="#697690"/>
<path d="M18.4467 188.172C18.5494 188.097 18.6661 188.06 18.7967 188.06H19.0207C19.2074 188.06 19.3007 188.153 19.3007 188.34V197.72C19.3007 197.907 19.2074 198 19.0207 198H18.6427C18.4561 198 18.3627 197.907 18.3627 197.72V189.264L16.2487 190.776C16.1834 190.823 16.1227 190.846 16.0667 190.846C15.9827 190.846 15.9127 190.804 15.8567 190.72L15.7167 190.51C15.6794 190.463 15.6607 190.407 15.6607 190.342C15.6607 190.258 15.7027 190.183 15.7867 190.118L18.4467 188.172ZM25.6689 198.21C25.0155 198.21 24.4415 198.051 23.9469 197.734C23.4615 197.417 23.0742 196.973 22.7849 196.404C22.3275 195.499 22.0989 194.374 22.0989 193.03C22.0989 191.677 22.3275 190.547 22.7849 189.642C23.0742 189.073 23.4615 188.634 23.9469 188.326C24.4415 188.009 25.0155 187.85 25.6689 187.85C26.3222 187.85 26.8915 188.009 27.3769 188.326C27.8715 188.634 28.2635 189.073 28.5529 189.642C29.0102 190.547 29.2389 191.677 29.2389 193.03C29.2389 194.374 29.0102 195.499 28.5529 196.404C28.2635 196.973 27.8715 197.417 27.3769 197.734C26.8915 198.051 26.3222 198.21 25.6689 198.21ZM25.6689 197.398C26.5835 197.398 27.2695 196.922 27.7269 195.97C28.0909 195.195 28.2729 194.215 28.2729 193.03C28.2729 191.826 28.0909 190.841 27.7269 190.076C27.2789 189.133 26.5929 188.662 25.6689 188.662C24.7449 188.662 24.0589 189.133 23.6109 190.076C23.2469 190.841 23.0649 191.826 23.0649 193.03C23.0649 194.225 23.2469 195.205 23.6109 195.97C24.0682 196.922 24.7542 197.398 25.6689 197.398Z" fill="#697690"/>
<path d="M25.6689 269.21C25.0155 269.21 24.4415 269.051 23.9469 268.734C23.4615 268.417 23.0742 267.973 22.7849 267.404C22.3275 266.499 22.0989 265.374 22.0989 264.03C22.0989 262.677 22.3275 261.547 22.7849 260.642C23.0742 260.073 23.4615 259.634 23.9469 259.326C24.4415 259.009 25.0155 258.85 25.6689 258.85C26.3222 258.85 26.8915 259.009 27.3769 259.326C27.8715 259.634 28.2635 260.073 28.5529 260.642C29.0102 261.547 29.2389 262.677 29.2389 264.03C29.2389 265.374 29.0102 266.499 28.5529 267.404C28.2635 267.973 27.8715 268.417 27.3769 268.734C26.8915 269.051 26.3222 269.21 25.6689 269.21ZM25.6689 268.398C26.5835 268.398 27.2695 267.922 27.7269 266.97C28.0909 266.195 28.2729 265.215 28.2729 264.03C28.2729 262.826 28.0909 261.841 27.7269 261.076C27.2789 260.133 26.5929 259.662 25.6689 259.662C24.7449 259.662 24.0589 260.133 23.6109 261.076C23.2469 261.841 23.0649 262.826 23.0649 264.03C23.0649 265.225 23.2469 266.205 23.6109 266.97C24.0682 267.922 24.7542 268.398 25.6689 268.398Z" fill="#697690"/>
<path d="M47 127.003L47 264L88 264L88 127.003C88 124.794 86.2091 123.003 84 123.003L51 123.003C48.7909 123.003 47 124.794 47 127.003Z" fill="#5473B5"/>
<path d="M104 70.25L104 264L146 264L146 70.25C146 68.0409 144.209 66.25 142 66.25L108 66.25C105.791 66.25 104 68.0408 104 70.25Z" fill="#5473B5"/>
<path d="M162 98.6267L162 264L204 264L204 98.6267C204 96.4175 202.209 94.6267 200 94.6267L166 94.6267C163.791 94.6267 162 96.4175 162 98.6267Z" fill="#5473B5"/>
<path d="M220 92.4193L220 264L261 264L261 92.4193C261 90.2101 259.209 88.4193 257 88.4193L224 88.4193C221.791 88.4193 220 90.2101 220 92.4193Z" fill="#5473B5"/>
<path d="M8.128 5.104C8.224 4.79467 8.432 4.64 8.752 4.64H9.472C9.80267 4.64 9.968 4.77867 9.968 5.056C9.968 5.152 9.95733 5.22667 9.936 5.28L6.496 15.536C6.4 15.8453 6.18667 16 5.856 16H4.528C4.19733 16 3.984 15.8453 3.888 15.536L0.432 5.28C0.410667 5.22667 0.4 5.152 0.4 5.056C0.4 4.77867 0.565333 4.64 0.896 4.64H1.648C1.968 4.64 2.176 4.79467 2.272 5.104L3.952 10.176C4.4 11.52 4.82133 12.8907 5.216 14.288C5.46133 13.3813 5.87733 12.0213 6.464 10.208L8.128 5.104ZM16.2334 13.984C16.372 13.8667 16.5054 13.808 16.6334 13.808C16.7614 13.808 16.8947 13.8773 17.0334 14.016L17.2574 14.256C17.3747 14.3947 17.4334 14.528 17.4334 14.656C17.4334 14.7947 17.364 14.928 17.2254 15.056C16.7347 15.4827 16.244 15.7867 15.7534 15.968C15.2734 16.1493 14.74 16.24 14.1534 16.24C13.332 16.24 12.6174 16.0693 12.0094 15.728C11.412 15.3867 10.948 14.9067 10.6174 14.288C10.2974 13.6587 10.1374 12.9333 10.1374 12.112C10.1374 11.3013 10.292 10.576 10.6014 9.936C10.9214 9.28533 11.3694 8.77867 11.9454 8.416C12.532 8.05333 13.2147 7.872 13.9934 7.872C15.156 7.872 16.052 8.21867 16.6814 8.912C17.3107 9.59467 17.6254 10.5387 17.6254 11.744V11.888C17.6147 12.0587 17.5614 12.192 17.4654 12.288C17.3694 12.384 17.2307 12.432 17.0494 12.432H11.8014C11.8654 13.136 12.0947 13.712 12.4894 14.16C12.8947 14.5973 13.46 14.816 14.1854 14.816C14.58 14.816 14.9267 14.7573 15.2254 14.64C15.524 14.512 15.86 14.2933 16.2334 13.984ZM13.9614 9.216C13.3747 9.216 12.9 9.392 12.5374 9.744C12.1854 10.0853 11.956 10.5707 11.8494 11.2H15.9614C15.9187 10.5813 15.7267 10.096 15.3854 9.744C15.044 9.392 14.5694 9.216 13.9614 9.216ZM22.7311 8.032C22.9658 8.032 23.2058 8.05867 23.4511 8.112C23.7391 8.176 23.8831 8.34667 23.8831 8.624C23.8831 8.69867 23.8778 8.752 23.8671 8.784L23.7871 9.168C23.7231 9.46667 23.5631 9.616 23.3071 9.616L23.1631 9.6C22.9711 9.568 22.8005 9.552 22.6511 9.552C22.1178 9.552 21.6858 9.76533 21.3551 10.192C21.0351 10.608 20.8751 11.1893 20.8751 11.936V15.44C20.8751 15.6107 20.8271 15.7493 20.7311 15.856C20.6351 15.952 20.4965 16 20.3151 16H19.7391C19.5685 16 19.4298 15.952 19.3231 15.856C19.2271 15.7493 19.1791 15.6107 19.1791 15.44V8.672C19.1791 8.49067 19.2271 8.352 19.3231 8.256C19.4298 8.16 19.5685 8.112 19.7391 8.112H20.2031C20.3845 8.112 20.5231 8.16 20.6191 8.256C20.7151 8.352 20.7631 8.49067 20.7631 8.672V9.296C20.9551 8.90133 21.2165 8.592 21.5471 8.368C21.8778 8.144 22.2725 8.032 22.7311 8.032ZM29.1121 14.656C29.1441 14.6453 29.1921 14.64 29.2561 14.64C29.5228 14.64 29.6828 14.7947 29.7361 15.104L29.7841 15.36C29.7948 15.392 29.8001 15.4453 29.8001 15.52C29.8001 15.7867 29.6508 15.9573 29.3521 16.032C28.9255 16.128 28.5361 16.176 28.1841 16.176C27.4268 16.176 26.8775 16 26.5361 15.648C26.2055 15.296 26.0401 14.768 26.0401 14.064V9.408H25.1601C24.9895 9.408 24.8508 9.36 24.7441 9.264C24.6481 9.15733 24.6001 9.01867 24.6001 8.848V8.672C24.6001 8.49067 24.6481 8.352 24.7441 8.256C24.8508 8.16 24.9895 8.112 25.1601 8.112H26.0401V6.128C26.0401 5.94667 26.0881 5.808 26.1841 5.712C26.2908 5.616 26.4295 5.568 26.6001 5.568H27.1761C27.3575 5.568 27.4961 5.616 27.5921 5.712C27.6881 5.808 27.7361 5.94667 27.7361 6.128V8.112H29.1761C29.3575 8.112 29.4961 8.16 29.5921 8.256C29.6881 8.352 29.7361 8.49067 29.7361 8.672V8.848C29.7361 9.01867 29.6881 9.15733 29.5921 9.264C29.4961 9.36 29.3575 9.408 29.1761 9.408H27.7361V13.856C27.7361 14.1653 27.8001 14.384 27.9281 14.512C28.0668 14.64 28.2855 14.704 28.5841 14.704C28.7121 14.704 28.8881 14.688 29.1121 14.656ZM31.9963 6.576C31.6869 6.576 31.4256 6.47467 31.2122 6.272C30.9989 6.05867 30.8923 5.808 30.8923 5.52C30.8923 5.22133 30.9989 4.97067 31.2122 4.768C31.4256 4.56533 31.6869 4.464 31.9963 4.464C32.3056 4.464 32.5669 4.56533 32.7803 4.768C32.9936 4.97067 33.1003 5.22133 33.1003 5.52C33.1003 5.808 32.9936 6.05867 32.7803 6.272C32.5669 6.47467 32.3056 6.576 31.9963 6.576ZM31.6923 16C31.5216 16 31.3829 15.952 31.2763 15.856C31.1803 15.7493 31.1323 15.6107 31.1323 15.44V8.672C31.1323 8.49067 31.1803 8.352 31.2763 8.256C31.3829 8.16 31.5216 8.112 31.6923 8.112H32.2682C32.4496 8.112 32.5883 8.16 32.6843 8.256C32.7803 8.352 32.8283 8.49067 32.8283 8.672V15.44C32.8283 15.6107 32.7803 15.7493 32.6843 15.856C32.5883 15.952 32.4496 16 32.2682 16H31.6923ZM38.2605 16.24C37.4818 16.24 36.7938 16.0693 36.1965 15.728C35.6098 15.3867 35.1512 14.9013 34.8205 14.272C34.5005 13.632 34.3405 12.8907 34.3405 12.048C34.3405 11.2053 34.5058 10.4693 34.8365 9.84C35.1672 9.21067 35.6312 8.72533 36.2285 8.384C36.8258 8.04267 37.5138 7.872 38.2925 7.872C38.8578 7.872 39.3645 7.95733 39.8125 8.128C40.2712 8.288 40.7085 8.56533 41.1245 8.96C41.2525 9.088 41.3165 9.22133 41.3165 9.36C41.3165 9.488 41.2472 9.62133 41.1085 9.76L40.8365 10.032C40.7192 10.1493 40.5912 10.208 40.4525 10.208C40.3138 10.208 40.1698 10.144 40.0205 10.016C39.7112 9.74933 39.4178 9.568 39.1405 9.472C38.8738 9.36533 38.5858 9.312 38.2765 9.312C37.5725 9.312 37.0285 9.57333 36.6445 10.096C36.2605 10.6187 36.0685 11.2693 36.0685 12.048C36.0685 12.8267 36.2605 13.4827 36.6445 14.016C37.0285 14.5387 37.5725 14.8 38.2765 14.8C38.6178 14.8 38.9325 14.736 39.2205 14.608C39.5085 14.4693 39.8178 14.24 40.1485 13.92C40.2872 13.7813 40.4312 13.712 40.5805 13.712C40.7085 13.712 40.8312 13.7653 40.9485 13.872L41.2205 14.096C41.3592 14.2133 41.4285 14.3467 41.4285 14.496C41.4285 14.656 41.3485 14.8267 41.1885 15.008C40.7512 15.456 40.2978 15.776 39.8285 15.968C39.3698 16.1493 38.8472 16.24 38.2605 16.24ZM46.304 7.872C47.3707 7.872 48.192 8.12267 48.768 8.624C49.344 9.11467 49.632 9.77067 49.632 10.592V15.44C49.632 15.6107 49.584 15.7493 49.488 15.856C49.392 15.952 49.2533 16 49.072 16H48.656C48.4853 16 48.3467 15.952 48.24 15.856C48.144 15.7493 48.096 15.6107 48.096 15.44V15.088C47.84 15.4613 47.488 15.7493 47.04 15.952C46.592 16.1547 46.0693 16.256 45.472 16.256C44.6507 16.256 43.9733 16.0747 43.44 15.712C42.9173 15.3387 42.656 14.7787 42.656 14.032C42.656 13.2 42.9653 12.5867 43.584 12.192C44.2133 11.7867 45.0827 11.4827 46.192 11.28L48 10.944V10.656C48 10.2187 47.8453 9.88267 47.536 9.648C47.2373 9.40267 46.8373 9.28 46.336 9.28C45.9093 9.28 45.536 9.35467 45.216 9.504C44.9067 9.64267 44.5707 9.87733 44.208 10.208C44.0693 10.3253 43.936 10.384 43.808 10.384C43.68 10.384 43.5467 10.3253 43.408 10.208L43.152 9.984C43.0133 9.856 42.944 9.71733 42.944 9.568C42.944 9.42933 43.008 9.296 43.136 9.168C43.5947 8.73067 44.08 8.40533 44.592 8.192C45.104 7.97867 45.6747 7.872 46.304 7.872ZM45.712 14.896C46.352 14.896 46.8907 14.7253 47.328 14.384C47.776 14.0427 48 13.552 48 12.912V12.176L46.608 12.464C45.8293 12.624 45.2533 12.8053 44.88 13.008C44.5067 13.2107 44.32 13.52 44.32 13.936C44.32 14.2347 44.4427 14.4693 44.688 14.64C44.9333 14.8107 45.2747 14.896 45.712 14.896ZM52.1938 16C52.0231 16 51.8844 15.952 51.7778 15.856C51.6818 15.7493 51.6338 15.6107 51.6338 15.44V5.2C51.6338 5.01867 51.6818 4.88 51.7778 4.784C51.8844 4.688 52.0231 4.64 52.1938 4.64H52.7698C52.9511 4.64 53.0898 4.688 53.1858 4.784C53.2818 4.88 53.3298 5.01867 53.3298 5.2V15.44C53.3298 15.6107 53.2818 15.7493 53.1858 15.856C53.0898 15.952 52.9511 16 52.7698 16H52.1938ZM62.4011 16.24C61.6225 16.24 60.9345 16.0693 60.3371 15.728C59.7505 15.3867 59.2918 14.9013 58.9611 14.272C58.6411 13.632 58.4811 12.8907 58.4811 12.048C58.4811 11.2053 58.6465 10.4693 58.9771 9.84C59.3078 9.21067 59.7718 8.72533 60.3691 8.384C60.9665 8.04267 61.6545 7.872 62.4331 7.872C62.9985 7.872 63.5051 7.95733 63.9531 8.128C64.4118 8.288 64.8491 8.56533 65.2651 8.96C65.3931 9.088 65.4571 9.22133 65.4571 9.36C65.4571 9.488 65.3878 9.62133 65.2491 9.76L64.9771 10.032C64.8598 10.1493 64.7318 10.208 64.5931 10.208C64.4545 10.208 64.3105 10.144 64.1611 10.016C63.8518 9.74933 63.5585 9.568 63.2811 9.472C63.0145 9.36533 62.7265 9.312 62.4171 9.312C61.7131 9.312 61.1691 9.57333 60.7851 10.096C60.4011 10.6187 60.2091 11.2693 60.2091 12.048C60.2091 12.8267 60.4011 13.4827 60.7851 14.016C61.1691 14.5387 61.7131 14.8 62.4171 14.8C62.7585 14.8 63.0731 14.736 63.3611 14.608C63.6491 14.4693 63.9585 14.24 64.2891 13.92C64.4278 13.7813 64.5718 13.712 64.7211 13.712C64.8491 13.712 64.9718 13.7653 65.0891 13.872L65.3611 14.096C65.4998 14.2133 65.5691 14.3467 65.5691 14.496C65.5691 14.656 65.4891 14.8267 65.3291 15.008C64.8918 15.456 64.4385 15.776 63.9691 15.968C63.5105 16.1493 62.9878 16.24 62.4011 16.24ZM70.3718 16.24C69.5931 16.24 68.8998 16.064 68.2918 15.712C67.6944 15.36 67.2251 14.8693 66.8838 14.24C66.5424 13.6 66.3717 12.8693 66.3717 12.048C66.3717 11.2267 66.5424 10.5013 66.8838 9.872C67.2251 9.24267 67.6944 8.752 68.2918 8.4C68.8998 8.048 69.5931 7.872 70.3718 7.872C71.1398 7.872 71.8278 8.048 72.4358 8.4C73.0438 8.752 73.5184 9.248 73.8598 9.888C74.2011 10.5173 74.3718 11.2373 74.3718 12.048C74.3718 12.8693 74.2011 13.6 73.8598 14.24C73.5184 14.8693 73.0438 15.36 72.4358 15.712C71.8278 16.064 71.1398 16.24 70.3718 16.24ZM70.3718 14.816C71.0544 14.816 71.6038 14.5653 72.0198 14.064C72.4358 13.552 72.6438 12.88 72.6438 12.048C72.6438 11.2267 72.4358 10.5653 72.0198 10.064C71.6038 9.56267 71.0544 9.312 70.3718 9.312C69.6891 9.312 69.1398 9.56267 68.7238 10.064C68.3078 10.5653 68.0998 11.2267 68.0998 12.048C68.0998 12.88 68.3078 13.552 68.7238 14.064C69.1398 14.5653 69.6891 14.816 70.3718 14.816ZM76.4906 16C76.32 16 76.1813 15.952 76.0746 15.856C75.9786 15.7493 75.9306 15.6107 75.9306 15.44V5.2C75.9306 5.01867 75.9786 4.88 76.0746 4.784C76.1813 4.688 76.32 4.64 76.4906 4.64H77.0666C77.248 4.64 77.3866 4.688 77.4826 4.784C77.5786 4.88 77.6266 5.01867 77.6266 5.2V15.44C77.6266 15.6107 77.5786 15.7493 77.4826 15.856C77.3866 15.952 77.248 16 77.0666 16H76.4906ZM84.6559 8.672C84.6559 8.49067 84.7039 8.352 84.7999 8.256C84.9065 8.16 85.0452 8.112 85.2159 8.112H85.7919C85.9732 8.112 86.1119 8.16 86.2079 8.256C86.3039 8.352 86.3519 8.49067 86.3519 8.672V15.44C86.3519 15.6107 86.3039 15.7493 86.2079 15.856C86.1119 15.952 85.9732 16 85.7919 16H85.3599C85.1892 16 85.0505 15.952 84.9439 15.856C84.8479 15.7493 84.7999 15.6107 84.7999 15.44V15.072C84.5865 15.4347 84.2772 15.7227 83.8719 15.936C83.4665 16.1387 82.9865 16.24 82.4319 16.24C81.4932 16.24 80.7945 16.0107 80.3359 15.552C79.8772 15.0827 79.6479 14.464 79.6479 13.696V8.672C79.6479 8.49067 79.6959 8.352 79.7919 8.256C79.8985 8.16 80.0372 8.112 80.2079 8.112H80.7839C80.9652 8.112 81.1039 8.16 81.1999 8.256C81.2959 8.352 81.3439 8.49067 81.3439 8.672V13.248C81.3439 13.7387 81.4665 14.1173 81.7119 14.384C81.9679 14.64 82.3359 14.768 82.8159 14.768C83.3705 14.768 83.8132 14.608 84.1439 14.288C84.4852 13.968 84.6559 13.504 84.6559 12.896V8.672ZM96.7681 7.872C97.6108 7.872 98.2615 8.112 98.7201 8.592C99.1788 9.06133 99.4081 9.696 99.4081 10.496V15.44C99.4081 15.6107 99.3601 15.7493 99.2641 15.856C99.1681 15.952 99.0295 16 98.8481 16H98.2721C98.1015 16 97.9628 15.952 97.8561 15.856C97.7601 15.7493 97.7121 15.6107 97.7121 15.44V11.008C97.7121 10.4853 97.5948 10.0747 97.3601 9.776C97.1255 9.47733 96.7681 9.328 96.2881 9.328C95.7975 9.328 95.4081 9.49333 95.1201 9.824C94.8428 10.1547 94.7041 10.5813 94.7041 11.104V15.44C94.7041 15.6107 94.6561 15.7493 94.5601 15.856C94.4641 15.952 94.3255 16 94.1441 16H93.5681C93.3975 16 93.2588 15.952 93.1521 15.856C93.0561 15.7493 93.0081 15.6107 93.0081 15.44V11.008C93.0081 10.4853 92.8908 10.0747 92.6561 9.776C92.4321 9.47733 92.0801 9.328 91.6001 9.328C91.1308 9.328 90.7521 9.48267 90.4641 9.792C90.1761 10.1013 90.0215 10.5013 90.0001 10.992V15.44C90.0001 15.6107 89.9521 15.7493 89.8561 15.856C89.7601 15.952 89.6215 16 89.4401 16H88.8641C88.6935 16 88.5548 15.952 88.4481 15.856C88.3521 15.7493 88.3041 15.6107 88.3041 15.44V8.672C88.3041 8.49067 88.3521 8.352 88.4481 8.256C88.5548 8.16 88.6935 8.112 88.8641 8.112H89.3281C89.5095 8.112 89.6481 8.16 89.7441 8.256C89.8401 8.352 89.8881 8.49067 89.8881 8.672V9.024C90.3788 8.256 91.1361 7.872 92.1601 7.872C92.6721 7.872 93.1201 7.97867 93.5041 8.192C93.8881 8.40533 94.1815 8.704 94.3841 9.088C94.9281 8.27733 95.7228 7.872 96.7681 7.872ZM105.367 7.872C106.274 7.872 106.967 8.128 107.447 8.64C107.938 9.14133 108.183 9.792 108.183 10.592V15.44C108.183 15.6107 108.135 15.7493 108.039 15.856C107.943 15.952 107.804 16 107.623 16H107.047C106.876 16 106.738 15.952 106.631 15.856C106.535 15.7493 106.487 15.6107 106.487 15.44V11.12C106.487 10.544 106.343 10.1013 106.055 9.792C105.778 9.48267 105.378 9.328 104.855 9.328C104.343 9.328 103.911 9.504 103.559 9.856C103.218 10.208 103.047 10.6507 103.047 11.184V15.44C103.047 15.6107 102.999 15.7493 102.903 15.856C102.807 15.952 102.668 16 102.487 16H101.911C101.74 16 101.602 15.952 101.495 15.856C101.399 15.7493 101.351 15.6107 101.351 15.44V8.672C101.351 8.49067 101.399 8.352 101.495 8.256C101.602 8.16 101.74 8.112 101.911 8.112H102.375C102.556 8.112 102.695 8.16 102.791 8.256C102.887 8.352 102.935 8.49067 102.935 8.672V9.088C103.191 8.69333 103.527 8.39467 103.943 8.192C104.359 7.97867 104.834 7.872 105.367 7.872ZM117.182 16.24C116.404 16.24 115.716 16.0693 115.118 15.728C114.532 15.3867 114.073 14.9013 113.742 14.272C113.422 13.632 113.262 12.8907 113.262 12.048C113.262 11.2053 113.428 10.4693 113.758 9.84C114.089 9.21067 114.553 8.72533 115.15 8.384C115.748 8.04267 116.436 7.872 117.214 7.872C117.78 7.872 118.286 7.95733 118.734 8.128C119.193 8.288 119.63 8.56533 120.046 8.96C120.174 9.088 120.238 9.22133 120.238 9.36C120.238 9.488 120.169 9.62133 120.03 9.76L119.758 10.032C119.641 10.1493 119.513 10.208 119.374 10.208C119.236 10.208 119.092 10.144 118.942 10.016C118.633 9.74933 118.34 9.568 118.062 9.472C117.796 9.36533 117.508 9.312 117.198 9.312C116.494 9.312 115.95 9.57333 115.566 10.096C115.182 10.6187 114.99 11.2693 114.99 12.048C114.99 12.8267 115.182 13.4827 115.566 14.016C115.95 14.5387 116.494 14.8 117.198 14.8C117.54 14.8 117.854 14.736 118.142 14.608C118.43 14.4693 118.74 14.24 119.07 13.92C119.209 13.7813 119.353 13.712 119.502 13.712C119.63 13.712 119.753 13.7653 119.87 13.872L120.142 14.096C120.281 14.2133 120.35 14.3467 120.35 14.496C120.35 14.656 120.27 14.8267 120.11 15.008C119.673 15.456 119.22 15.776 118.75 15.968C118.292 16.1493 117.769 16.24 117.182 16.24ZM125.789 7.872C126.696 7.872 127.389 8.128 127.869 8.64C128.36 9.14133 128.605 9.792 128.605 10.592V15.44C128.605 15.6107 128.557 15.7493 128.461 15.856C128.365 15.952 128.226 16 128.045 16H127.469C127.298 16 127.16 15.952 127.053 15.856C126.957 15.7493 126.909 15.6107 126.909 15.44V11.12C126.909 10.544 126.765 10.1013 126.477 9.792C126.2 9.48267 125.8 9.328 125.277 9.328C124.765 9.328 124.333 9.504 123.981 9.856C123.64 10.208 123.469 10.6507 123.469 11.184V15.44C123.469 15.6107 123.421 15.7493 123.325 15.856C123.229 15.952 123.09 16 122.909 16H122.333C122.162 16 122.024 15.952 121.917 15.856C121.821 15.7493 121.773 15.6107 121.773 15.44V5.2C121.773 5.01867 121.821 4.88 121.917 4.784C122.024 4.688 122.162 4.64 122.333 4.64H122.909C123.09 4.64 123.229 4.688 123.325 4.784C123.421 4.88 123.469 5.01867 123.469 5.2V8.928C123.725 8.58667 124.05 8.32533 124.445 8.144C124.85 7.96267 125.298 7.872 125.789 7.872ZM133.882 7.872C134.949 7.872 135.77 8.12267 136.346 8.624C136.922 9.11467 137.21 9.77067 137.21 10.592V15.44C137.21 15.6107 137.162 15.7493 137.066 15.856C136.97 15.952 136.831 16 136.65 16H136.234C136.063 16 135.925 15.952 135.818 15.856C135.722 15.7493 135.674 15.6107 135.674 15.44V15.088C135.418 15.4613 135.066 15.7493 134.618 15.952C134.17 16.1547 133.647 16.256 133.05 16.256C132.229 16.256 131.551 16.0747 131.018 15.712C130.495 15.3387 130.234 14.7787 130.234 14.032C130.234 13.2 130.543 12.5867 131.162 12.192C131.791 11.7867 132.661 11.4827 133.77 11.28L135.578 10.944V10.656C135.578 10.2187 135.423 9.88267 135.114 9.648C134.815 9.40267 134.415 9.28 133.914 9.28C133.487 9.28 133.114 9.35467 132.794 9.504C132.485 9.64267 132.149 9.87733 131.786 10.208C131.647 10.3253 131.514 10.384 131.386 10.384C131.258 10.384 131.125 10.3253 130.986 10.208L130.73 9.984C130.591 9.856 130.522 9.71733 130.522 9.568C130.522 9.42933 130.586 9.296 130.714 9.168C131.173 8.73067 131.658 8.40533 132.17 8.192C132.682 7.97867 133.253 7.872 133.882 7.872ZM133.29 14.896C133.93 14.896 134.469 14.7253 134.906 14.384C135.354 14.0427 135.578 13.552 135.578 12.912V12.176L134.186 12.464C133.407 12.624 132.831 12.8053 132.458 13.008C132.085 13.2107 131.898 13.52 131.898 13.936C131.898 14.2347 132.021 14.4693 132.266 14.64C132.511 14.8107 132.853 14.896 133.29 14.896ZM142.7 8.032C142.935 8.032 143.175 8.05867 143.42 8.112C143.708 8.176 143.852 8.34667 143.852 8.624C143.852 8.69867 143.847 8.752 143.836 8.784L143.756 9.168C143.692 9.46667 143.532 9.616 143.276 9.616L143.132 9.6C142.94 9.568 142.769 9.552 142.62 9.552C142.087 9.552 141.655 9.76533 141.324 10.192C141.004 10.608 140.844 11.1893 140.844 11.936V15.44C140.844 15.6107 140.796 15.7493 140.7 15.856C140.604 15.952 140.465 16 140.284 16H139.708C139.537 16 139.399 15.952 139.292 15.856C139.196 15.7493 139.148 15.6107 139.148 15.44V8.672C139.148 8.49067 139.196 8.352 139.292 8.256C139.399 8.16 139.537 8.112 139.708 8.112H140.172C140.353 8.112 140.492 8.16 140.588 8.256C140.684 8.352 140.732 8.49067 140.732 8.672V9.296C140.924 8.90133 141.185 8.592 141.516 8.368C141.847 8.144 142.241 8.032 142.7 8.032ZM149.081 14.656C149.113 14.6453 149.161 14.64 149.225 14.64C149.492 14.64 149.652 14.7947 149.705 15.104L149.753 15.36C149.764 15.392 149.769 15.4453 149.769 15.52C149.769 15.7867 149.62 15.9573 149.321 16.032C148.894 16.128 148.505 16.176 148.153 16.176C147.396 16.176 146.846 16 146.505 15.648C146.174 15.296 146.009 14.768 146.009 14.064V9.408H145.129C144.958 9.408 144.82 9.36 144.713 9.264C144.617 9.15733 144.569 9.01867 144.569 8.848V8.672C144.569 8.49067 144.617 8.352 144.713 8.256C144.82 8.16 144.958 8.112 145.129 8.112H146.009V6.128C146.009 5.94667 146.057 5.808 146.153 5.712C146.26 5.616 146.398 5.568 146.569 5.568H147.145C147.326 5.568 147.465 5.616 147.561 5.712C147.657 5.808 147.705 5.94667 147.705 6.128V8.112H149.145C149.326 8.112 149.465 8.16 149.561 8.256C149.657 8.352 149.705 8.49067 149.705 8.672V8.848C149.705 9.01867 149.657 9.15733 149.561 9.264C149.465 9.36 149.326 9.408 149.145 9.408H147.705V13.856C147.705 14.1653 147.769 14.384 147.897 14.512C148.036 14.64 148.254 14.704 148.553 14.704C148.681 14.704 148.857 14.688 149.081 14.656Z" fill="#697690"/>
<path d="M313.792 16C313.621 16 313.483 15.952 313.376 15.856C313.28 15.7493 313.232 15.6107 313.232 15.44V5.2C313.232 5.01867 313.28 4.88 313.376 4.784C313.483 4.688 313.621 4.64 313.792 4.64H314.496C314.677 4.64 314.816 4.688 314.912 4.784C315.008 4.88 315.056 5.01867 315.056 5.2V9.312H320.688V5.2C320.688 5.01867 320.736 4.88 320.832 4.784C320.939 4.688 321.077 4.64 321.248 4.64H321.968C322.149 4.64 322.288 4.688 322.384 4.784C322.48 4.88 322.528 5.01867 322.528 5.2V15.44C322.528 15.6107 322.48 15.7493 322.384 15.856C322.288 15.952 322.149 16 321.968 16H321.248C321.077 16 320.939 15.952 320.832 15.856C320.736 15.7493 320.688 15.6107 320.688 15.44V10.848H315.056V15.44C315.056 15.6107 315.008 15.7493 314.912 15.856C314.816 15.952 314.677 16 314.496 16H313.792ZM328.294 16.24C327.515 16.24 326.822 16.064 326.214 15.712C325.616 15.36 325.147 14.8693 324.806 14.24C324.464 13.6 324.294 12.8693 324.294 12.048C324.294 11.2267 324.464 10.5013 324.806 9.872C325.147 9.24267 325.616 8.752 326.214 8.4C326.822 8.048 327.515 7.872 328.294 7.872C329.062 7.872 329.75 8.048 330.358 8.4C330.966 8.752 331.44 9.248 331.782 9.888C332.123 10.5173 332.294 11.2373 332.294 12.048C332.294 12.8693 332.123 13.6 331.782 14.24C331.44 14.8693 330.966 15.36 330.358 15.712C329.75 16.064 329.062 16.24 328.294 16.24ZM328.294 14.816C328.976 14.816 329.526 14.5653 329.942 14.064C330.358 13.552 330.566 12.88 330.566 12.048C330.566 11.2267 330.358 10.5653 329.942 10.064C329.526 9.56267 328.976 9.312 328.294 9.312C327.611 9.312 327.062 9.56267 326.646 10.064C326.23 10.5653 326.022 11.2267 326.022 12.048C326.022 12.88 326.23 13.552 326.646 14.064C327.062 14.5653 327.611 14.816 328.294 14.816ZM337.341 8.032C337.575 8.032 337.815 8.05867 338.061 8.112C338.349 8.176 338.493 8.34667 338.493 8.624C338.493 8.69867 338.487 8.752 338.477 8.784L338.397 9.168C338.333 9.46667 338.173 9.616 337.917 9.616L337.773 9.6C337.581 9.568 337.41 9.552 337.261 9.552C336.727 9.552 336.295 9.76533 335.965 10.192C335.645 10.608 335.485 11.1893 335.485 11.936V15.44C335.485 15.6107 335.437 15.7493 335.341 15.856C335.245 15.952 335.106 16 334.924 16H334.349C334.178 16 334.039 15.952 333.933 15.856C333.837 15.7493 333.789 15.6107 333.789 15.44V8.672C333.789 8.49067 333.837 8.352 333.933 8.256C334.039 8.16 334.178 8.112 334.349 8.112H334.812C334.994 8.112 335.133 8.16 335.229 8.256C335.325 8.352 335.373 8.49067 335.373 8.672V9.296C335.565 8.90133 335.826 8.592 336.157 8.368C336.487 8.144 336.882 8.032 337.341 8.032ZM340.59 6.576C340.281 6.576 340.019 6.47467 339.806 6.272C339.593 6.05867 339.486 5.808 339.486 5.52C339.486 5.22133 339.593 4.97067 339.806 4.768C340.019 4.56533 340.281 4.464 340.59 4.464C340.899 4.464 341.161 4.56533 341.374 4.768C341.587 4.97067 341.694 5.22133 341.694 5.52C341.694 5.808 341.587 6.05867 341.374 6.272C341.161 6.47467 340.899 6.576 340.59 6.576ZM340.286 16C340.115 16 339.977 15.952 339.87 15.856C339.774 15.7493 339.726 15.6107 339.726 15.44V8.672C339.726 8.49067 339.774 8.352 339.87 8.256C339.977 8.16 340.115 8.112 340.286 8.112H340.862C341.043 8.112 341.182 8.16 341.278 8.256C341.374 8.352 341.422 8.49067 341.422 8.672V15.44C341.422 15.6107 341.374 15.7493 341.278 15.856C341.182 15.952 341.043 16 340.862 16H340.286ZM348.854 8.112C349.036 8.112 349.174 8.16 349.27 8.256C349.366 8.352 349.414 8.49067 349.414 8.672V8.976C349.414 9.24267 349.329 9.47733 349.158 9.68L345.062 14.608H348.854C349.036 14.608 349.174 14.656 349.27 14.752C349.366 14.848 349.414 14.9867 349.414 15.168V15.44C349.414 15.6107 349.366 15.7493 349.27 15.856C349.174 15.952 349.036 16 348.854 16H343.526C343.356 16 343.217 15.952 343.11 15.856C343.014 15.7493 342.966 15.6107 342.966 15.44V15.12C342.966 14.8533 343.052 14.6187 343.222 14.416L347.334 9.488H343.798C343.628 9.488 343.489 9.44 343.382 9.344C343.286 9.23733 343.238 9.09867 343.238 8.928V8.672C343.238 8.49067 343.286 8.352 343.382 8.256C343.489 8.16 343.628 8.112 343.798 8.112H348.854ZM354.325 16.24C353.546 16.24 352.853 16.064 352.245 15.712C351.648 15.36 351.178 14.8693 350.837 14.24C350.496 13.6 350.325 12.8693 350.325 12.048C350.325 11.2267 350.496 10.5013 350.837 9.872C351.178 9.24267 351.648 8.752 352.245 8.4C352.853 8.048 353.546 7.872 354.325 7.872C355.093 7.872 355.781 8.048 356.389 8.4C356.997 8.752 357.472 9.248 357.813 9.888C358.154 10.5173 358.325 11.2373 358.325 12.048C358.325 12.8693 358.154 13.6 357.813 14.24C357.472 14.8693 356.997 15.36 356.389 15.712C355.781 16.064 355.093 16.24 354.325 16.24ZM354.325 14.816C355.008 14.816 355.557 14.5653 355.973 14.064C356.389 13.552 356.597 12.88 356.597 12.048C356.597 11.2267 356.389 10.5653 355.973 10.064C355.557 9.56267 355.008 9.312 354.325 9.312C353.642 9.312 353.093 9.56267 352.677 10.064C352.261 10.5653 352.053 11.2267 352.053 12.048C352.053 12.88 352.261 13.552 352.677 14.064C353.093 14.5653 353.642 14.816 354.325 14.816ZM363.836 7.872C364.742 7.872 365.436 8.128 365.916 8.64C366.406 9.14133 366.652 9.792 366.652 10.592V15.44C366.652 15.6107 366.604 15.7493 366.508 15.856C366.412 15.952 366.273 16 366.092 16H365.516C365.345 16 365.206 15.952 365.1 15.856C365.004 15.7493 364.956 15.6107 364.956 15.44V11.12C364.956 10.544 364.812 10.1013 364.524 9.792C364.246 9.48267 363.846 9.328 363.324 9.328C362.812 9.328 362.38 9.504 362.028 9.856C361.686 10.208 361.516 10.6507 361.516 11.184V15.44C361.516 15.6107 361.468 15.7493 361.372 15.856C361.276 15.952 361.137 16 360.956 16H360.38C360.209 16 360.07 15.952 359.964 15.856C359.868 15.7493 359.82 15.6107 359.82 15.44V8.672C359.82 8.49067 359.868 8.352 359.964 8.256C360.07 8.16 360.209 8.112 360.38 8.112H360.844C361.025 8.112 361.164 8.16 361.26 8.256C361.356 8.352 361.404 8.49067 361.404 8.672V9.088C361.66 8.69333 361.996 8.39467 362.412 8.192C362.828 7.97867 363.302 7.872 363.836 7.872ZM372.237 14.656C372.269 14.6453 372.317 14.64 372.381 14.64C372.648 14.64 372.808 14.7947 372.861 15.104L372.909 15.36C372.92 15.392 372.925 15.4453 372.925 15.52C372.925 15.7867 372.776 15.9573 372.477 16.032C372.05 16.128 371.661 16.176 371.309 16.176C370.552 16.176 370.002 16 369.661 15.648C369.33 15.296 369.165 14.768 369.165 14.064V9.408H368.285C368.114 9.408 367.976 9.36 367.869 9.264C367.773 9.15733 367.725 9.01867 367.725 8.848V8.672C367.725 8.49067 367.773 8.352 367.869 8.256C367.976 8.16 368.114 8.112 368.285 8.112H369.165V6.128C369.165 5.94667 369.213 5.808 369.309 5.712C369.416 5.616 369.554 5.568 369.725 5.568H370.301C370.482 5.568 370.621 5.616 370.717 5.712C370.813 5.808 370.861 5.94667 370.861 6.128V8.112H372.301C372.482 8.112 372.621 8.16 372.717 8.256C372.813 8.352 372.861 8.49067 372.861 8.672V8.848C372.861 9.01867 372.813 9.15733 372.717 9.264C372.621 9.36 372.482 9.408 372.301 9.408H370.861V13.856C370.861 14.1653 370.925 14.384 371.053 14.512C371.192 14.64 371.41 14.704 371.709 14.704C371.837 14.704 372.013 14.688 372.237 14.656ZM377.601 7.872C378.668 7.872 379.489 8.12267 380.065 8.624C380.641 9.11467 380.929 9.77067 380.929 10.592V15.44C380.929 15.6107 380.881 15.7493 380.785 15.856C380.689 15.952 380.55 16 380.369 16H379.953C379.782 16 379.644 15.952 379.537 15.856C379.441 15.7493 379.393 15.6107 379.393 15.44V15.088C379.137 15.4613 378.785 15.7493 378.337 15.952C377.889 16.1547 377.366 16.256 376.769 16.256C375.948 16.256 375.27 16.0747 374.737 15.712C374.214 15.3387 373.953 14.7787 373.953 14.032C373.953 13.2 374.262 12.5867 374.881 12.192C375.51 11.7867 376.38 11.4827 377.489 11.28L379.297 10.944V10.656C379.297 10.2187 379.142 9.88267 378.833 9.648C378.534 9.40267 378.134 9.28 377.633 9.28C377.206 9.28 376.833 9.35467 376.513 9.504C376.204 9.64267 375.868 9.87733 375.505 10.208C375.366 10.3253 375.233 10.384 375.105 10.384C374.977 10.384 374.844 10.3253 374.705 10.208L374.449 9.984C374.31 9.856 374.241 9.71733 374.241 9.568C374.241 9.42933 374.305 9.296 374.433 9.168C374.892 8.73067 375.377 8.40533 375.889 8.192C376.401 7.97867 376.972 7.872 377.601 7.872ZM377.009 14.896C377.649 14.896 378.188 14.7253 378.625 14.384C379.073 14.0427 379.297 13.552 379.297 12.912V12.176L377.905 12.464C377.126 12.624 376.55 12.8053 376.177 13.008C375.804 13.2107 375.617 13.52 375.617 13.936C375.617 14.2347 375.74 14.4693 375.985 14.64C376.23 14.8107 376.572 14.896 377.009 14.896ZM383.491 16C383.32 16 383.181 15.952 383.075 15.856C382.979 15.7493 382.931 15.6107 382.931 15.44V5.2C382.931 5.01867 382.979 4.88 383.075 4.784C383.181 4.688 383.32 4.64 383.491 4.64H384.067C384.248 4.64 384.387 4.688 384.483 4.784C384.579 4.88 384.627 5.01867 384.627 5.2V15.44C384.627 15.6107 384.579 15.7493 384.483 15.856C384.387 15.952 384.248 16 384.067 16H383.491ZM394.418 7.904C395.09 7.904 395.687 8.07467 396.21 8.416C396.743 8.75733 397.159 9.24267 397.458 9.872C397.757 10.5013 397.906 11.2267 397.906 12.048C397.906 12.88 397.757 13.6107 397.458 14.24C397.159 14.8693 396.743 15.3547 396.21 15.696C395.677 16.0373 395.079 16.208 394.418 16.208C393.234 16.208 392.365 15.7653 391.81 14.88V15.44C391.81 15.6107 391.762 15.7493 391.666 15.856C391.57 15.952 391.431 16 391.25 16H390.786C390.615 16 390.477 15.952 390.37 15.856C390.274 15.7493 390.226 15.6107 390.226 15.44V5.2C390.226 5.01867 390.274 4.88 390.37 4.784C390.477 4.688 390.615 4.64 390.786 4.64H391.362C391.543 4.64 391.682 4.688 391.778 4.784C391.874 4.88 391.922 5.01867 391.922 5.2V9.104C392.487 8.304 393.319 7.904 394.418 7.904ZM394.066 14.736C394.706 14.736 395.218 14.496 395.602 14.016C395.986 13.5253 396.178 12.8693 396.178 12.048C396.178 11.2373 395.986 10.5867 395.602 10.096C395.229 9.60533 394.722 9.36 394.082 9.36C393.431 9.36 392.898 9.60533 392.482 10.096C392.066 10.576 391.858 11.2267 391.858 12.048C391.858 12.8907 392.066 13.552 392.482 14.032C392.898 14.5013 393.426 14.736 394.066 14.736ZM402.773 7.872C403.839 7.872 404.661 8.12267 405.237 8.624C405.813 9.11467 406.101 9.77067 406.101 10.592V15.44C406.101 15.6107 406.053 15.7493 405.957 15.856C405.861 15.952 405.722 16 405.541 16H405.125C404.954 16 404.815 15.952 404.709 15.856C404.613 15.7493 404.565 15.6107 404.565 15.44V15.088C404.309 15.4613 403.957 15.7493 403.509 15.952C403.061 16.1547 402.538 16.256 401.941 16.256C401.119 16.256 400.442 16.0747 399.909 15.712C399.386 15.3387 399.125 14.7787 399.125 14.032C399.125 13.2 399.434 12.5867 400.053 12.192C400.682 11.7867 401.551 11.4827 402.661 11.28L404.469 10.944V10.656C404.469 10.2187 404.314 9.88267 404.005 9.648C403.706 9.40267 403.306 9.28 402.805 9.28C402.378 9.28 402.005 9.35467 401.685 9.504C401.375 9.64267 401.039 9.87733 400.677 10.208C400.538 10.3253 400.405 10.384 400.277 10.384C400.149 10.384 400.015 10.3253 399.877 10.208L399.621 9.984C399.482 9.856 399.413 9.71733 399.413 9.568C399.413 9.42933 399.477 9.296 399.605 9.168C400.063 8.73067 400.549 8.40533 401.061 8.192C401.573 7.97867 402.143 7.872 402.773 7.872ZM402.181 14.896C402.821 14.896 403.359 14.7253 403.797 14.384C404.245 14.0427 404.469 13.552 404.469 12.912V12.176L403.077 12.464C402.298 12.624 401.722 12.8053 401.349 13.008C400.975 13.2107 400.789 13.52 400.789 13.936C400.789 14.2347 400.911 14.4693 401.157 14.64C401.402 14.8107 401.743 14.896 402.181 14.896ZM411.591 8.032C411.825 8.032 412.065 8.05867 412.311 8.112C412.599 8.176 412.743 8.34667 412.743 8.624C412.743 8.69867 412.737 8.752 412.727 8.784L412.647 9.168C412.583 9.46667 412.423 9.616 412.167 9.616L412.023 9.6C411.831 9.568 411.66 9.552 411.511 9.552C410.977 9.552 410.545 9.76533 410.215 10.192C409.895 10.608 409.735 11.1893 409.735 11.936V15.44C409.735 15.6107 409.687 15.7493 409.591 15.856C409.495 15.952 409.356 16 409.174 16H408.599C408.428 16 408.289 15.952 408.183 15.856C408.087 15.7493 408.039 15.6107 408.039 15.44V8.672C408.039 8.49067 408.087 8.352 408.183 8.256C408.289 8.16 408.428 8.112 408.599 8.112H409.062C409.244 8.112 409.383 8.16 409.479 8.256C409.575 8.352 409.623 8.49067 409.623 8.672V9.296C409.815 8.90133 410.076 8.592 410.407 8.368C410.737 8.144 411.132 8.032 411.591 8.032ZM421.026 16.24C420.247 16.24 419.559 16.0693 418.962 15.728C418.375 15.3867 417.917 14.9013 417.586 14.272C417.266 13.632 417.106 12.8907 417.106 12.048C417.106 11.2053 417.271 10.4693 417.602 9.84C417.933 9.21067 418.397 8.72533 418.994 8.384C419.591 8.04267 420.279 7.872 421.058 7.872C421.623 7.872 422.13 7.95733 422.578 8.128C423.037 8.288 423.474 8.56533 423.89 8.96C424.018 9.088 424.082 9.22133 424.082 9.36C424.082 9.488 424.013 9.62133 423.874 9.76L423.602 10.032C423.485 10.1493 423.357 10.208 423.218 10.208C423.079 10.208 422.935 10.144 422.786 10.016C422.477 9.74933 422.183 9.568 421.906 9.472C421.639 9.36533 421.351 9.312 421.042 9.312C420.338 9.312 419.794 9.57333 419.41 10.096C419.026 10.6187 418.834 11.2693 418.834 12.048C418.834 12.8267 419.026 13.4827 419.41 14.016C419.794 14.5387 420.338 14.8 421.042 14.8C421.383 14.8 421.698 14.736 421.986 14.608C422.274 14.4693 422.583 14.24 422.914 13.92C423.053 13.7813 423.197 13.712 423.346 13.712C423.474 13.712 423.597 13.7653 423.714 13.872L423.986 14.096C424.125 14.2133 424.194 14.3467 424.194 14.496C424.194 14.656 424.114 14.8267 423.954 15.008C423.517 15.456 423.063 15.776 422.594 15.968C422.135 16.1493 421.613 16.24 421.026 16.24ZM429.633 7.872C430.539 7.872 431.233 8.128 431.713 8.64C432.203 9.14133 432.449 9.792 432.449 10.592V15.44C432.449 15.6107 432.401 15.7493 432.305 15.856C432.209 15.952 432.07 16 431.889 16H431.313C431.142 16 431.003 15.952 430.897 15.856C430.801 15.7493 430.753 15.6107 430.753 15.44V11.12C430.753 10.544 430.609 10.1013 430.321 9.792C430.043 9.48267 429.643 9.328 429.121 9.328C428.609 9.328 428.177 9.504 427.825 9.856C427.483 10.208 427.313 10.6507 427.313 11.184V15.44C427.313 15.6107 427.265 15.7493 427.169 15.856C427.073 15.952 426.934 16 426.753 16H426.177C426.006 16 425.867 15.952 425.761 15.856C425.665 15.7493 425.617 15.6107 425.617 15.44V5.2C425.617 5.01867 425.665 4.88 425.761 4.784C425.867 4.688 426.006 4.64 426.177 4.64H426.753C426.934 4.64 427.073 4.688 427.169 4.784C427.265 4.88 427.313 5.01867 427.313 5.2V8.928C427.569 8.58667 427.894 8.32533 428.289 8.144C428.694 7.96267 429.142 7.872 429.633 7.872ZM437.726 7.872C438.793 7.872 439.614 8.12267 440.19 8.624C440.766 9.11467 441.054 9.77067 441.054 10.592V15.44C441.054 15.6107 441.006 15.7493 440.91 15.856C440.814 15.952 440.675 16 440.494 16H440.078C439.907 16 439.769 15.952 439.662 15.856C439.566 15.7493 439.518 15.6107 439.518 15.44V15.088C439.262 15.4613 438.91 15.7493 438.462 15.952C438.014 16.1547 437.491 16.256 436.894 16.256C436.073 16.256 435.395 16.0747 434.862 15.712C434.339 15.3387 434.078 14.7787 434.078 14.032C434.078 13.2 434.387 12.5867 435.006 12.192C435.635 11.7867 436.505 11.4827 437.614 11.28L439.422 10.944V10.656C439.422 10.2187 439.267 9.88267 438.958 9.648C438.659 9.40267 438.259 9.28 437.758 9.28C437.331 9.28 436.958 9.35467 436.638 9.504C436.329 9.64267 435.993 9.87733 435.63 10.208C435.491 10.3253 435.358 10.384 435.23 10.384C435.102 10.384 434.969 10.3253 434.83 10.208L434.574 9.984C434.435 9.856 434.366 9.71733 434.366 9.568C434.366 9.42933 434.43 9.296 434.558 9.168C435.017 8.73067 435.502 8.40533 436.014 8.192C436.526 7.97867 437.097 7.872 437.726 7.872ZM437.134 14.896C437.774 14.896 438.313 14.7253 438.75 14.384C439.198 14.0427 439.422 13.552 439.422 12.912V12.176L438.03 12.464C437.251 12.624 436.675 12.8053 436.302 13.008C435.929 13.2107 435.742 13.52 435.742 13.936C435.742 14.2347 435.865 14.4693 436.11 14.64C436.355 14.8107 436.697 14.896 437.134 14.896ZM446.544 8.032C446.778 8.032 447.018 8.05867 447.264 8.112C447.552 8.176 447.696 8.34667 447.696 8.624C447.696 8.69867 447.69 8.752 447.68 8.784L447.6 9.168C447.536 9.46667 447.376 9.616 447.12 9.616L446.976 9.6C446.784 9.568 446.613 9.552 446.464 9.552C445.93 9.552 445.498 9.76533 445.168 10.192C444.848 10.608 444.688 11.1893 444.688 11.936V15.44C444.688 15.6107 444.64 15.7493 444.544 15.856C444.448 15.952 444.309 16 444.128 16H443.552C443.381 16 443.242 15.952 443.136 15.856C443.04 15.7493 442.992 15.6107 442.992 15.44V8.672C442.992 8.49067 443.04 8.352 443.136 8.256C443.242 8.16 443.381 8.112 443.552 8.112H444.016C444.197 8.112 444.336 8.16 444.432 8.256C444.528 8.352 444.576 8.49067 444.576 8.672V9.296C444.768 8.90133 445.029 8.592 445.36 8.368C445.69 8.144 446.085 8.032 446.544 8.032ZM452.925 14.656C452.957 14.6453 453.005 14.64 453.069 14.64C453.335 14.64 453.495 14.7947 453.549 15.104L453.597 15.36C453.607 15.392 453.613 15.4453 453.613 15.52C453.613 15.7867 453.463 15.9573 453.165 16.032C452.738 16.128 452.349 16.176 451.997 16.176C451.239 16.176 450.69 16 450.349 15.648C450.018 15.296 449.853 14.768 449.853 14.064V9.408H448.973C448.802 9.408 448.663 9.36 448.557 9.264C448.461 9.15733 448.413 9.01867 448.413 8.848V8.672C448.413 8.49067 448.461 8.352 448.557 8.256C448.663 8.16 448.802 8.112 448.973 8.112H449.853V6.128C449.853 5.94667 449.901 5.808 449.997 5.712C450.103 5.616 450.242 5.568 450.413 5.568H450.989C451.17 5.568 451.309 5.616 451.405 5.712C451.501 5.808 451.549 5.94667 451.549 6.128V8.112H452.989C453.17 8.112 453.309 8.16 453.405 8.256C453.501 8.352 453.549 8.49067 453.549 8.672V8.848C453.549 9.01867 453.501 9.15733 453.405 9.264C453.309 9.36 453.17 9.408 452.989 9.408H451.549V13.856C451.549 14.1653 451.613 14.384 451.741 14.512C451.879 14.64 452.098 14.704 452.397 14.704C452.525 14.704 452.701 14.688 452.925 14.656Z" fill="#697690"/>
</svg>
