<svg width="53" height="24" viewBox="0 0 53 24" fill="none" xmlns="http://www.w3.org/2000/svg">
<rect width="53" height="24" rx="4" fill="#CF4840"/>
<path d="M9.5552 16C9.3952 16 9.3152 15.92 9.3152 15.76V7.72C9.3152 7.56 9.3952 7.48 9.5552 7.48H12.3632C13.1552 7.48 13.8312 7.66 14.3912 8.02C14.9512 8.38 15.3752 8.88 15.6632 9.52C15.9512 10.16 16.0952 10.9 16.0952 11.74C16.0952 12.58 15.9512 13.32 15.6632 13.96C15.3752 14.6 14.9512 15.1 14.3912 15.46C13.8312 15.82 13.1552 16 12.3632 16H9.5552ZM12.2192 15.292C13.1872 15.292 13.9312 14.976 14.4512 14.344C14.9712 13.704 15.2312 12.836 15.2312 11.74C15.2312 10.652 14.9712 9.788 14.4512 9.148C13.9312 8.508 13.1872 8.188 12.2192 8.188H10.1672V15.292H12.2192ZM21.987 14.596C22.043 14.54 22.103 14.512 22.167 14.512C22.223 14.512 22.275 14.536 22.323 14.584L22.479 14.728C22.535 14.784 22.563 14.844 22.563 14.908C22.563 14.956 22.539 15.012 22.491 15.076C22.099 15.468 21.719 15.748 21.351 15.916C20.983 16.076 20.571 16.156 20.115 16.156C19.539 16.156 19.039 16.028 18.615 15.772C18.191 15.516 17.863 15.16 17.631 14.704C17.399 14.24 17.283 13.704 17.283 13.096C17.283 12.48 17.395 11.936 17.619 11.464C17.851 10.984 18.175 10.612 18.591 10.348C19.007 10.076 19.487 9.94 20.031 9.94C20.839 9.94 21.475 10.192 21.939 10.696C22.403 11.2 22.635 11.88 22.635 12.736V12.88C22.627 12.952 22.599 13.008 22.551 13.048C22.511 13.088 22.455 13.108 22.383 13.108H18.087C18.111 13.78 18.287 14.348 18.615 14.812C18.951 15.268 19.451 15.496 20.115 15.496C20.475 15.496 20.791 15.432 21.063 15.304C21.343 15.168 21.651 14.932 21.987 14.596ZM20.031 10.6C19.503 10.6 19.067 10.764 18.723 11.092C18.387 11.412 18.183 11.884 18.111 12.508H21.843C21.827 11.924 21.659 11.46 21.339 11.116C21.019 10.772 20.583 10.6 20.031 10.6ZM26.1649 16.156C25.6769 16.156 25.2449 16.088 24.8689 15.952C24.5009 15.808 24.1129 15.568 23.7049 15.232C23.6329 15.184 23.5969 15.128 23.5969 15.064C23.5969 15.008 23.6249 14.952 23.6809 14.896L23.8369 14.728C23.8849 14.664 23.9449 14.632 24.0169 14.632C24.0729 14.632 24.1249 14.656 24.1729 14.704C24.5569 15 24.8969 15.208 25.1929 15.328C25.4889 15.44 25.8129 15.496 26.1649 15.496C26.6049 15.496 26.9649 15.4 27.2449 15.208C27.5249 15.008 27.6649 14.74 27.6649 14.404C27.6649 14.068 27.5209 13.82 27.2329 13.66C26.9449 13.5 26.5009 13.356 25.9009 13.228C25.3729 13.116 24.9569 13 24.6529 12.88C24.3569 12.752 24.1369 12.592 23.9929 12.4C23.8489 12.208 23.7769 11.956 23.7769 11.644C23.7769 11.132 23.9849 10.72 24.4009 10.408C24.8169 10.096 25.3409 9.94 25.9729 9.94C26.4049 9.94 26.7889 9.996 27.1249 10.108C27.4689 10.212 27.8129 10.388 28.1569 10.636C28.2289 10.692 28.2649 10.752 28.2649 10.816C28.2649 10.856 28.2449 10.908 28.2049 10.972L28.0609 11.152C28.0209 11.216 27.9649 11.248 27.8929 11.248C27.8289 11.248 27.7729 11.228 27.7249 11.188C27.3969 10.956 27.1049 10.8 26.8489 10.72C26.6009 10.64 26.3169 10.6 25.9969 10.6C25.5569 10.6 25.2049 10.696 24.9409 10.888C24.6769 11.08 24.5449 11.324 24.5449 11.62C24.5449 11.804 24.6049 11.952 24.7249 12.064C24.8449 12.176 25.0169 12.272 25.2409 12.352C25.4649 12.424 25.7929 12.508 26.2249 12.604C27.0249 12.78 27.5929 12.996 27.9289 13.252C28.2729 13.508 28.4449 13.88 28.4449 14.368C28.4449 14.904 28.2329 15.336 27.8089 15.664C27.3849 15.992 26.8369 16.156 26.1649 16.156ZM30.1805 8.584C30.0205 8.584 29.8845 8.528 29.7725 8.416C29.6685 8.304 29.6165 8.168 29.6165 8.008C29.6165 7.848 29.6685 7.716 29.7725 7.612C29.8845 7.508 30.0205 7.456 30.1805 7.456C30.3485 7.456 30.4845 7.508 30.5885 7.612C30.7005 7.716 30.7565 7.848 30.7565 8.008C30.7565 8.168 30.7005 8.304 30.5885 8.416C30.4845 8.528 30.3485 8.584 30.1805 8.584ZM30.0245 16C29.8645 16 29.7845 15.92 29.7845 15.76V10.324C29.7845 10.164 29.8645 10.084 30.0245 10.084H30.3365C30.4965 10.084 30.5765 10.164 30.5765 10.324V15.76C30.5765 15.92 30.4965 16 30.3365 16H30.0245ZM36.5872 10.324C36.5872 10.164 36.6672 10.084 36.8272 10.084H37.0792C37.2392 10.084 37.3192 10.164 37.3192 10.324V15.94C37.3192 16.684 37.0952 17.268 36.6472 17.692C36.1992 18.124 35.5712 18.34 34.7632 18.34C33.8912 18.34 33.0872 18.092 32.3512 17.596C32.2712 17.548 32.2312 17.488 32.2312 17.416C32.2312 17.36 32.2472 17.312 32.2792 17.272L32.4232 17.068C32.4712 16.988 32.5352 16.948 32.6152 16.948C32.6472 16.948 32.6952 16.964 32.7592 16.996C33.1112 17.22 33.4392 17.388 33.7432 17.5C34.0552 17.612 34.3952 17.668 34.7632 17.668C35.2912 17.668 35.7192 17.52 36.0472 17.224C36.3752 16.936 36.5392 16.488 36.5392 15.88V14.92C36.1072 15.616 35.4512 15.964 34.5712 15.964C34.0592 15.964 33.6072 15.836 33.2152 15.58C32.8232 15.316 32.5192 14.956 32.3032 14.5C32.0952 14.044 31.9912 13.528 31.9912 12.952C31.9912 12.376 32.0952 11.86 32.3032 11.404C32.5192 10.948 32.8232 10.592 33.2152 10.336C33.6072 10.072 34.0592 9.94 34.5712 9.94C35.0352 9.94 35.4352 10.04 35.7712 10.24C36.1152 10.432 36.3872 10.708 36.5872 11.068V10.324ZM34.6552 15.292C35.2312 15.292 35.6912 15.076 36.0352 14.644C36.3792 14.204 36.5512 13.64 36.5512 12.952C36.5512 12.264 36.3792 11.704 36.0352 11.272C35.6912 10.832 35.2312 10.612 34.6552 10.612C34.0712 10.612 33.6152 10.828 33.2872 11.26C32.9672 11.692 32.8072 12.256 32.8072 12.952C32.8072 13.648 32.9672 14.212 33.2872 14.644C33.6152 15.076 34.0712 15.292 34.6552 15.292ZM41.7409 9.94C42.4369 9.94 42.9609 10.132 43.3129 10.516C43.6729 10.9 43.8529 11.38 43.8529 11.956V15.76C43.8529 15.92 43.7729 16 43.6129 16H43.3009C43.1409 16 43.0609 15.92 43.0609 15.76V12.22C43.0609 11.692 42.9329 11.292 42.6769 11.02C42.4209 10.748 42.0529 10.612 41.5729 10.612C41.2689 10.612 40.9889 10.688 40.7329 10.84C40.4769 10.984 40.2729 11.184 40.1209 11.44C39.9689 11.696 39.8929 11.976 39.8929 12.28V15.76C39.8929 15.92 39.8129 16 39.6529 16H39.3409C39.1809 16 39.1009 15.92 39.1009 15.76V10.324C39.1009 10.164 39.1809 10.084 39.3409 10.084H39.6049C39.7649 10.084 39.8449 10.164 39.8449 10.324V10.9C40.0449 10.58 40.3089 10.34 40.6369 10.18C40.9649 10.02 41.3329 9.94 41.7409 9.94Z" fill="white"/>
</svg>
