<svg width="592" height="154" viewBox="0 0 592 154" fill="none" xmlns="http://www.w3.org/2000/svg">
<path d="M149.53 39.5191C148.944 40.1048 148.944 41.0546 149.53 41.6404L159.076 51.1863C159.662 51.7721 160.612 51.7721 161.197 51.1863C161.783 50.6005 161.783 49.6508 161.197 49.065L152.712 40.5797L161.197 32.0944C161.783 31.5086 161.783 30.5589 161.197 29.9731C160.612 29.3873 159.662 29.3873 159.076 29.9731L149.53 39.5191ZM431.284 41.6404C431.87 41.0546 431.87 40.1048 431.284 39.5191L421.738 29.9731C421.153 29.3873 420.203 29.3873 419.617 29.9731C419.031 30.5589 419.031 31.5086 419.617 32.0944L428.102 40.5797L419.617 49.065C419.031 49.6508 419.031 50.6005 419.617 51.1863C420.203 51.7721 421.153 51.7721 421.738 51.1863L431.284 41.6404ZM150.591 42.0797H430.224V39.0797H150.591V42.0797Z" fill="#697690" fill-opacity="0.78"/>
<path d="M149.53 112.467C148.944 113.052 148.944 114.002 149.53 114.588L159.076 124.134C159.662 124.72 160.612 124.72 161.197 124.134C161.783 123.548 161.783 122.598 161.197 122.013L152.712 113.527L161.197 105.042C161.783 104.456 161.783 103.506 161.197 102.921C160.612 102.335 159.662 102.335 159.076 102.921L149.53 112.467ZM431.284 114.588C431.87 114.002 431.87 113.052 431.284 112.467L421.738 102.921C421.153 102.335 420.203 102.335 419.617 102.921C419.031 103.506 419.031 104.456 419.617 105.042L428.102 113.527L419.617 122.013C419.031 122.598 419.031 123.548 419.617 124.134C420.203 124.72 421.153 124.72 421.738 124.134L431.284 114.588ZM150.591 115.027H430.224V112.027H150.591V115.027Z" fill="#697690" fill-opacity="0.78"/>
<path d="M88.9591 45.5798C88.7884 45.5798 88.6497 45.5318 88.5431 45.4358C88.4471 45.3292 88.3991 45.1905 88.3991 45.0198V34.7798C88.3991 34.5985 88.4471 34.4598 88.5431 34.3638C88.6497 34.2678 88.7884 34.2198 88.9591 34.2198H95.5991C95.7804 34.2198 95.9191 34.2678 96.0151 34.3638C96.1111 34.4598 96.1591 34.5985 96.1591 34.7798V35.1958C96.1591 35.3665 96.1111 35.5052 96.0151 35.6118C95.9191 35.7078 95.7804 35.7558 95.5991 35.7558H90.2231V38.9558H95.1991C95.3804 38.9558 95.5191 39.0038 95.6151 39.0998C95.7111 39.1958 95.7591 39.3345 95.7591 39.5158V39.9318C95.7591 40.1025 95.7111 40.2412 95.6151 40.3478C95.5191 40.4438 95.3804 40.4918 95.1991 40.4918H90.2231V44.0438H95.7591C95.9404 44.0438 96.0791 44.0918 96.1751 44.1878C96.2711 44.2838 96.3191 44.4225 96.3191 44.6038V45.0198C96.3191 45.1905 96.2711 45.3292 96.1751 45.4358C96.0791 45.5318 95.9404 45.5798 95.7591 45.5798H88.9591ZM104.354 44.9078C104.439 45.0465 104.482 45.1585 104.482 45.2438C104.482 45.3505 104.439 45.4358 104.354 45.4998C104.268 45.5532 104.151 45.5798 104.002 45.5798H103.378C103.079 45.5798 102.855 45.4572 102.706 45.2118L100.994 42.6358L99.2817 45.2118C99.1323 45.4572 98.9083 45.5798 98.6097 45.5798H98.0337C97.8737 45.5798 97.751 45.5532 97.6657 45.4998C97.5803 45.4358 97.5377 45.3505 97.5377 45.2438C97.5377 45.1585 97.5803 45.0465 97.6657 44.9078L100.05 41.4518L97.9057 38.3638C97.8203 38.2252 97.7777 38.1132 97.7777 38.0278C97.7777 37.9212 97.8203 37.8412 97.9057 37.7878C97.991 37.7238 98.1137 37.6918 98.2737 37.6918H98.8657C99.1537 37.6918 99.3777 37.8092 99.5377 38.0438L101.026 40.2518L102.482 38.0598C102.631 37.8145 102.855 37.6918 103.154 37.6918H103.714C103.863 37.6918 103.98 37.7238 104.066 37.7878C104.151 37.8518 104.194 37.9372 104.194 38.0438C104.194 38.1292 104.151 38.2412 104.066 38.3798L101.97 41.3878L104.354 44.9078ZM110.116 37.4838C110.788 37.4838 111.386 37.6545 111.908 37.9958C112.442 38.3372 112.858 38.8225 113.156 39.4518C113.455 40.0812 113.604 40.8065 113.604 41.6278C113.604 42.4598 113.455 43.1905 113.156 43.8198C112.858 44.4492 112.442 44.9345 111.908 45.2758C111.375 45.6172 110.778 45.7878 110.116 45.7878C109.007 45.7878 108.175 45.4038 107.62 44.6358V47.8518C107.62 48.0332 107.572 48.1718 107.476 48.2678C107.38 48.3638 107.242 48.4118 107.06 48.4118H106.484C106.314 48.4118 106.175 48.3638 106.068 48.2678C105.972 48.1718 105.924 48.0332 105.924 47.8518V38.2518C105.924 38.0705 105.972 37.9318 106.068 37.8358C106.175 37.7398 106.314 37.6918 106.484 37.6918H106.948C107.13 37.6918 107.268 37.7398 107.364 37.8358C107.46 37.9318 107.508 38.0705 107.508 38.2518V38.8438C108.074 37.9372 108.943 37.4838 110.116 37.4838ZM109.764 44.3158C110.404 44.3158 110.916 44.0758 111.3 43.5958C111.684 43.1052 111.876 42.4492 111.876 41.6278C111.876 40.8172 111.684 40.1665 111.3 39.6758C110.927 39.1852 110.42 38.9398 109.78 38.9398C109.13 38.9398 108.596 39.1798 108.18 39.6598C107.764 40.1398 107.556 40.7958 107.556 41.6278C107.556 42.4598 107.764 43.1158 108.18 43.5958C108.596 44.0758 109.124 44.3158 109.764 44.3158ZM115.767 45.5798C115.596 45.5798 115.458 45.5318 115.351 45.4358C115.255 45.3292 115.207 45.1905 115.207 45.0198V34.7798C115.207 34.5985 115.255 34.4598 115.351 34.3638C115.458 34.2678 115.596 34.2198 115.767 34.2198H116.343C116.524 34.2198 116.663 34.2678 116.759 34.3638C116.855 34.4598 116.903 34.5985 116.903 34.7798V45.0198C116.903 45.1905 116.855 45.3292 116.759 45.4358C116.663 45.5318 116.524 45.5798 116.343 45.5798H115.767ZM122.252 37.4518C123.319 37.4518 124.14 37.7025 124.716 38.2038C125.292 38.6945 125.58 39.3505 125.58 40.1718V45.0198C125.58 45.1905 125.532 45.3292 125.436 45.4358C125.34 45.5318 125.202 45.5798 125.02 45.5798H124.604C124.434 45.5798 124.295 45.5318 124.188 45.4358C124.092 45.3292 124.044 45.1905 124.044 45.0198V44.6678C123.788 45.0412 123.436 45.3292 122.988 45.5318C122.54 45.7345 122.018 45.8358 121.42 45.8358C120.599 45.8358 119.922 45.6545 119.388 45.2918C118.866 44.9185 118.604 44.3585 118.604 43.6118C118.604 42.7798 118.914 42.1665 119.532 41.7718C120.162 41.3665 121.031 41.0625 122.14 40.8598L123.948 40.5238V40.2358C123.948 39.7985 123.794 39.4625 123.484 39.2278C123.186 38.9825 122.786 38.8598 122.284 38.8598C121.858 38.8598 121.484 38.9345 121.164 39.0838C120.855 39.2225 120.519 39.4572 120.156 39.7878C120.018 39.9052 119.884 39.9638 119.756 39.9638C119.628 39.9638 119.495 39.9052 119.356 39.7878L119.1 39.5638C118.962 39.4358 118.892 39.2972 118.892 39.1478C118.892 39.0092 118.956 38.8758 119.084 38.7478C119.543 38.3105 120.028 37.9852 120.54 37.7718C121.052 37.5585 121.623 37.4518 122.252 37.4518ZM121.66 44.4758C122.3 44.4758 122.839 44.3052 123.276 43.9638C123.724 43.6225 123.948 43.1318 123.948 42.4918V41.7558L122.556 42.0438C121.778 42.2038 121.202 42.3852 120.828 42.5878C120.455 42.7905 120.268 43.0998 120.268 43.5158C120.268 43.8145 120.391 44.0492 120.636 44.2198C120.882 44.3905 121.223 44.4758 121.66 44.4758ZM128.382 36.1558C128.073 36.1558 127.811 36.0545 127.598 35.8518C127.385 35.6385 127.278 35.3878 127.278 35.0998C127.278 34.8012 127.385 34.5505 127.598 34.3478C127.811 34.1452 128.073 34.0438 128.382 34.0438C128.691 34.0438 128.953 34.1452 129.166 34.3478C129.379 34.5505 129.486 34.8012 129.486 35.0998C129.486 35.3878 129.379 35.6385 129.166 35.8518C128.953 36.0545 128.691 36.1558 128.382 36.1558ZM128.078 45.5798C127.907 45.5798 127.769 45.5318 127.662 45.4358C127.566 45.3292 127.518 45.1905 127.518 45.0198V38.2518C127.518 38.0705 127.566 37.9318 127.662 37.8358C127.769 37.7398 127.907 37.6918 128.078 37.6918H128.654C128.835 37.6918 128.974 37.7398 129.07 37.8358C129.166 37.9318 129.214 38.0705 129.214 38.2518V45.0198C129.214 45.1905 129.166 45.3292 129.07 45.4358C128.974 45.5318 128.835 45.5798 128.654 45.5798H128.078ZM135.19 37.4518C136.097 37.4518 136.79 37.7078 137.27 38.2198C137.761 38.7212 138.006 39.3718 138.006 40.1718V45.0198C138.006 45.1905 137.958 45.3292 137.862 45.4358C137.766 45.5318 137.628 45.5798 137.446 45.5798H136.87C136.7 45.5798 136.561 45.5318 136.454 45.4358C136.358 45.3292 136.31 45.1905 136.31 45.0198V40.6998C136.31 40.1238 136.166 39.6812 135.878 39.3718C135.601 39.0625 135.201 38.9078 134.678 38.9078C134.166 38.9078 133.734 39.0838 133.382 39.4358C133.041 39.7878 132.87 40.2305 132.87 40.7638V45.0198C132.87 45.1905 132.822 45.3292 132.726 45.4358C132.63 45.5318 132.492 45.5798 132.31 45.5798H131.734C131.564 45.5798 131.425 45.5318 131.318 45.4358C131.222 45.3292 131.174 45.1905 131.174 45.0198V38.2518C131.174 38.0705 131.222 37.9318 131.318 37.8358C131.425 37.7398 131.564 37.6918 131.734 37.6918H132.198C132.38 37.6918 132.518 37.7398 132.614 37.8358C132.71 37.9318 132.758 38.0705 132.758 38.2518V38.6678C133.014 38.2732 133.35 37.9745 133.766 37.7718C134.182 37.5585 134.657 37.4518 135.19 37.4518Z" fill="#697690"/>
<path d="M112.119 117.855C112.194 117.973 112.231 118.079 112.231 118.175C112.231 118.282 112.188 118.367 112.103 118.431C112.018 118.495 111.9 118.527 111.751 118.527H110.951C110.652 118.527 110.428 118.405 110.279 118.159L107.639 114.127H105.223V117.967C105.223 118.138 105.175 118.277 105.079 118.383C104.983 118.479 104.844 118.527 104.663 118.527H103.959C103.788 118.527 103.65 118.479 103.543 118.383C103.447 118.277 103.399 118.138 103.399 117.967V107.727C103.399 107.546 103.447 107.407 103.543 107.311C103.65 107.215 103.788 107.167 103.959 107.167H108.439C109.154 107.167 109.794 107.311 110.359 107.599C110.924 107.877 111.362 108.282 111.671 108.815C111.991 109.338 112.151 109.951 112.151 110.655C112.151 111.509 111.916 112.234 111.447 112.831C110.978 113.418 110.348 113.807 109.559 113.999L112.119 117.855ZM105.223 112.607H108.135C108.818 112.607 109.356 112.442 109.751 112.111C110.156 111.77 110.359 111.285 110.359 110.655C110.359 110.015 110.156 109.53 109.751 109.199C109.356 108.858 108.818 108.687 108.135 108.687H105.223V112.607ZM119.307 116.511C119.445 116.394 119.579 116.335 119.707 116.335C119.835 116.335 119.968 116.405 120.107 116.543L120.331 116.783C120.448 116.922 120.507 117.055 120.507 117.183C120.507 117.322 120.437 117.455 120.299 117.583C119.808 118.01 119.317 118.314 118.827 118.495C118.347 118.677 117.813 118.767 117.227 118.767C116.405 118.767 115.691 118.597 115.083 118.255C114.485 117.914 114.021 117.434 113.691 116.815C113.371 116.186 113.211 115.461 113.211 114.639C113.211 113.829 113.365 113.103 113.675 112.463C113.995 111.813 114.443 111.306 115.019 110.943C115.605 110.581 116.288 110.399 117.067 110.399C118.229 110.399 119.125 110.746 119.755 111.439C120.384 112.122 120.699 113.066 120.699 114.271V114.415C120.688 114.586 120.635 114.719 120.539 114.815C120.443 114.911 120.304 114.959 120.123 114.959H114.875C114.939 115.663 115.168 116.239 115.563 116.687C115.968 117.125 116.533 117.343 117.259 117.343C117.653 117.343 118 117.285 118.299 117.167C118.597 117.039 118.933 116.821 119.307 116.511ZM117.035 111.743C116.448 111.743 115.973 111.919 115.611 112.271C115.259 112.613 115.029 113.098 114.923 113.727H119.035C118.992 113.109 118.8 112.623 118.459 112.271C118.117 111.919 117.643 111.743 117.035 111.743ZM125.471 110.399C126.538 110.399 127.359 110.65 127.935 111.151C128.511 111.642 128.799 112.298 128.799 113.119V117.967C128.799 118.138 128.751 118.277 128.655 118.383C128.559 118.479 128.42 118.527 128.239 118.527H127.823C127.652 118.527 127.514 118.479 127.407 118.383C127.311 118.277 127.263 118.138 127.263 117.967V117.615C127.007 117.989 126.655 118.277 126.207 118.479C125.759 118.682 125.236 118.783 124.639 118.783C123.818 118.783 123.14 118.602 122.607 118.239C122.084 117.866 121.823 117.306 121.823 116.559C121.823 115.727 122.132 115.114 122.751 114.719C123.38 114.314 124.25 114.01 125.359 113.807L127.167 113.471V113.183C127.167 112.746 127.012 112.41 126.703 112.175C126.404 111.93 126.004 111.807 125.503 111.807C125.076 111.807 124.703 111.882 124.383 112.031C124.074 112.17 123.738 112.405 123.375 112.735C123.236 112.853 123.103 112.911 122.975 112.911C122.847 112.911 122.714 112.853 122.575 112.735L122.319 112.511C122.18 112.383 122.111 112.245 122.111 112.095C122.111 111.957 122.175 111.823 122.303 111.695C122.762 111.258 123.247 110.933 123.759 110.719C124.271 110.506 124.842 110.399 125.471 110.399ZM124.879 117.423C125.519 117.423 126.058 117.253 126.495 116.911C126.943 116.57 127.167 116.079 127.167 115.439V114.703L125.775 114.991C124.996 115.151 124.42 115.333 124.047 115.535C123.674 115.738 123.487 116.047 123.487 116.463C123.487 116.762 123.61 116.997 123.855 117.167C124.1 117.338 124.442 117.423 124.879 117.423ZM136.289 107.711C136.289 107.53 136.337 107.391 136.433 107.295C136.539 107.199 136.678 107.151 136.849 107.151H137.425C137.606 107.151 137.745 107.199 137.841 107.295C137.937 107.391 137.985 107.53 137.985 107.711V117.967C137.985 118.138 137.937 118.277 137.841 118.383C137.745 118.479 137.606 118.527 137.425 118.527H136.961C136.79 118.527 136.651 118.479 136.545 118.383C136.449 118.277 136.401 118.138 136.401 117.967V117.407C135.846 118.303 134.977 118.751 133.793 118.751C133.131 118.751 132.534 118.581 132.001 118.239C131.478 117.898 131.067 117.413 130.769 116.783C130.47 116.154 130.321 115.423 130.321 114.591C130.321 113.77 130.47 113.045 130.769 112.415C131.078 111.786 131.499 111.301 132.033 110.959C132.566 110.618 133.163 110.447 133.825 110.447C134.913 110.447 135.734 110.826 136.289 111.583V107.711ZM134.145 117.295C134.795 117.295 135.329 117.055 135.745 116.575C136.161 116.085 136.369 115.423 136.369 114.591C136.369 113.759 136.161 113.103 135.745 112.623C135.329 112.143 134.795 111.903 134.145 111.903C133.515 111.903 133.009 112.149 132.625 112.639C132.241 113.13 132.049 113.781 132.049 114.591C132.049 115.413 132.235 116.069 132.609 116.559C132.993 117.05 133.505 117.295 134.145 117.295Z" fill="#697690"/>
<path d="M443.626 45.5797C443.456 45.5797 443.317 45.5317 443.21 45.4357C443.114 45.329 443.066 45.1904 443.066 45.0197V34.7797C443.066 34.5984 443.114 34.4597 443.21 34.3637C443.317 34.2677 443.456 34.2197 443.626 34.2197H450.266C450.448 34.2197 450.586 34.2677 450.682 34.3637C450.778 34.4597 450.826 34.5984 450.826 34.7797V35.1957C450.826 35.3664 450.778 35.505 450.682 35.6117C450.586 35.7077 450.448 35.7557 450.266 35.7557H444.89V38.9557H449.866C450.048 38.9557 450.186 39.0037 450.282 39.0997C450.378 39.1957 450.426 39.3344 450.426 39.5157V39.9317C450.426 40.1024 450.378 40.241 450.282 40.3477C450.186 40.4437 450.048 40.4917 449.866 40.4917H444.89V44.0437H450.426C450.608 44.0437 450.746 44.0917 450.842 44.1877C450.938 44.2837 450.986 44.4224 450.986 44.6037V45.0197C450.986 45.1904 450.938 45.329 450.842 45.4357C450.746 45.5317 450.608 45.5797 450.426 45.5797H443.626ZM459.021 44.9077C459.106 45.0464 459.149 45.1584 459.149 45.2437C459.149 45.3504 459.106 45.4357 459.021 45.4997C458.936 45.553 458.818 45.5797 458.669 45.5797H458.045C457.746 45.5797 457.522 45.457 457.373 45.2117L455.661 42.6357L453.949 45.2117C453.8 45.457 453.576 45.5797 453.277 45.5797H452.701C452.541 45.5797 452.418 45.553 452.333 45.4997C452.248 45.4357 452.205 45.3504 452.205 45.2437C452.205 45.1584 452.248 45.0464 452.333 44.9077L454.717 41.4517L452.573 38.3637C452.488 38.225 452.445 38.113 452.445 38.0277C452.445 37.921 452.488 37.841 452.573 37.7877C452.658 37.7237 452.781 37.6917 452.941 37.6917H453.533C453.821 37.6917 454.045 37.809 454.205 38.0437L455.693 40.2517L457.149 38.0597C457.298 37.8144 457.522 37.6917 457.821 37.6917H458.381C458.53 37.6917 458.648 37.7237 458.733 37.7877C458.818 37.8517 458.861 37.937 458.861 38.0437C458.861 38.129 458.818 38.241 458.733 38.3797L456.637 41.3877L459.021 44.9077ZM464.784 37.4837C465.456 37.4837 466.053 37.6544 466.576 37.9957C467.109 38.337 467.525 38.8224 467.824 39.4517C468.122 40.081 468.272 40.8064 468.272 41.6277C468.272 42.4597 468.122 43.1904 467.824 43.8197C467.525 44.449 467.109 44.9344 466.576 45.2757C466.042 45.617 465.445 45.7877 464.784 45.7877C463.674 45.7877 462.842 45.4037 462.288 44.6357V47.8517C462.288 48.033 462.24 48.1717 462.144 48.2677C462.048 48.3637 461.909 48.4117 461.728 48.4117H461.152C460.981 48.4117 460.842 48.3637 460.736 48.2677C460.64 48.1717 460.592 48.033 460.592 47.8517V38.2517C460.592 38.0704 460.64 37.9317 460.736 37.8357C460.842 37.7397 460.981 37.6917 461.152 37.6917H461.616C461.797 37.6917 461.936 37.7397 462.032 37.8357C462.128 37.9317 462.176 38.0704 462.176 38.2517V38.8437C462.741 37.937 463.61 37.4837 464.784 37.4837ZM464.432 44.3157C465.072 44.3157 465.584 44.0757 465.968 43.5957C466.352 43.105 466.544 42.449 466.544 41.6277C466.544 40.817 466.352 40.1664 465.968 39.6757C465.594 39.185 465.088 38.9397 464.448 38.9397C463.797 38.9397 463.264 39.1797 462.848 39.6597C462.432 40.1397 462.224 40.7957 462.224 41.6277C462.224 42.4597 462.432 43.1157 462.848 43.5957C463.264 44.0757 463.792 44.3157 464.432 44.3157ZM470.434 45.5797C470.264 45.5797 470.125 45.5317 470.018 45.4357C469.922 45.329 469.874 45.1904 469.874 45.0197V34.7797C469.874 34.5984 469.922 34.4597 470.018 34.3637C470.125 34.2677 470.264 34.2197 470.434 34.2197H471.01C471.192 34.2197 471.33 34.2677 471.426 34.3637C471.522 34.4597 471.57 34.5984 471.57 34.7797V45.0197C471.57 45.1904 471.522 45.329 471.426 45.4357C471.33 45.5317 471.192 45.5797 471.01 45.5797H470.434ZM477.144 45.8197C476.365 45.8197 475.672 45.6437 475.064 45.2917C474.466 44.9397 473.997 44.449 473.656 43.8197C473.314 43.1797 473.144 42.449 473.144 41.6277C473.144 40.8064 473.314 40.081 473.656 39.4517C473.997 38.8224 474.466 38.3317 475.064 37.9797C475.672 37.6277 476.365 37.4517 477.144 37.4517C477.912 37.4517 478.6 37.6277 479.208 37.9797C479.816 38.3317 480.29 38.8277 480.632 39.4677C480.973 40.097 481.144 40.817 481.144 41.6277C481.144 42.449 480.973 43.1797 480.632 43.8197C480.29 44.449 479.816 44.9397 479.208 45.2917C478.6 45.6437 477.912 45.8197 477.144 45.8197ZM477.144 44.3957C477.826 44.3957 478.376 44.145 478.792 43.6437C479.208 43.1317 479.416 42.4597 479.416 41.6277C479.416 40.8064 479.208 40.145 478.792 39.6437C478.376 39.1424 477.826 38.8917 477.144 38.8917C476.461 38.8917 475.912 39.1424 475.496 39.6437C475.08 40.145 474.872 40.8064 474.872 41.6277C474.872 42.4597 475.08 43.1317 475.496 43.6437C475.912 44.145 476.461 44.3957 477.144 44.3957ZM486.191 37.6117C486.425 37.6117 486.665 37.6384 486.911 37.6917C487.199 37.7557 487.343 37.9264 487.343 38.2037C487.343 38.2784 487.337 38.3317 487.327 38.3637L487.247 38.7477C487.183 39.0464 487.023 39.1957 486.767 39.1957L486.623 39.1797C486.431 39.1477 486.26 39.1317 486.111 39.1317C485.577 39.1317 485.145 39.345 484.815 39.7717C484.495 40.1877 484.335 40.769 484.335 41.5157V45.0197C484.335 45.1904 484.287 45.329 484.191 45.4357C484.095 45.5317 483.956 45.5797 483.775 45.5797H483.199C483.028 45.5797 482.889 45.5317 482.783 45.4357C482.687 45.329 482.639 45.1904 482.639 45.0197V38.2517C482.639 38.0704 482.687 37.9317 482.783 37.8357C482.889 37.7397 483.028 37.6917 483.199 37.6917H483.663C483.844 37.6917 483.983 37.7397 484.079 37.8357C484.175 37.9317 484.223 38.0704 484.223 38.2517V38.8757C484.415 38.481 484.676 38.1717 485.007 37.9477C485.337 37.7237 485.732 37.6117 486.191 37.6117ZM493.849 43.5637C493.988 43.4464 494.121 43.3877 494.249 43.3877C494.377 43.3877 494.51 43.457 494.649 43.5957L494.873 43.8357C494.99 43.9744 495.049 44.1077 495.049 44.2357C495.049 44.3744 494.98 44.5077 494.841 44.6357C494.35 45.0624 493.86 45.3664 493.369 45.5477C492.889 45.729 492.356 45.8197 491.769 45.8197C490.948 45.8197 490.233 45.649 489.625 45.3077C489.028 44.9664 488.564 44.4864 488.233 43.8677C487.913 43.2384 487.753 42.513 487.753 41.6917C487.753 40.881 487.908 40.1557 488.217 39.5157C488.537 38.865 488.985 38.3584 489.561 37.9957C490.148 37.633 490.83 37.4517 491.609 37.4517C492.772 37.4517 493.668 37.7984 494.297 38.4917C494.926 39.1744 495.241 40.1184 495.241 41.3237V41.4677C495.23 41.6384 495.177 41.7717 495.081 41.8677C494.985 41.9637 494.846 42.0117 494.665 42.0117H489.417C489.481 42.7157 489.71 43.2917 490.105 43.7397C490.51 44.177 491.076 44.3957 491.801 44.3957C492.196 44.3957 492.542 44.337 492.841 44.2197C493.14 44.0917 493.476 43.873 493.849 43.5637ZM491.577 38.7957C490.99 38.7957 490.516 38.9717 490.153 39.3237C489.801 39.665 489.572 40.1504 489.465 40.7797H493.577C493.534 40.161 493.342 39.6757 493.001 39.3237C492.66 38.9717 492.185 38.7957 491.577 38.7957Z" fill="#697690"/>
<path d="M443.626 118.527C443.456 118.527 443.317 118.479 443.21 118.383C443.114 118.277 443.066 118.138 443.066 117.967V107.727C443.066 107.546 443.114 107.407 443.21 107.311C443.317 107.215 443.456 107.167 443.626 107.167H450.266C450.448 107.167 450.586 107.215 450.682 107.311C450.778 107.407 450.826 107.546 450.826 107.727V108.143C450.826 108.314 450.778 108.453 450.682 108.559C450.586 108.655 450.448 108.703 450.266 108.703H444.89V112.175H449.834C450.016 112.175 450.154 112.223 450.25 112.319C450.346 112.415 450.394 112.554 450.394 112.735V113.135C450.394 113.306 450.346 113.445 450.25 113.551C450.154 113.647 450.016 113.695 449.834 113.695H444.89V117.967C444.89 118.138 444.842 118.277 444.746 118.383C444.65 118.479 444.512 118.527 444.33 118.527H443.626ZM457.802 116.511C457.941 116.394 458.074 116.335 458.202 116.335C458.33 116.335 458.464 116.405 458.602 116.543L458.826 116.783C458.944 116.922 459.002 117.055 459.002 117.183C459.002 117.322 458.933 117.455 458.794 117.583C458.304 118.01 457.813 118.314 457.322 118.495C456.842 118.677 456.309 118.767 455.722 118.767C454.901 118.767 454.186 118.597 453.578 118.255C452.981 117.914 452.517 117.434 452.186 116.815C451.866 116.186 451.706 115.461 451.706 114.639C451.706 113.829 451.861 113.103 452.17 112.463C452.49 111.813 452.938 111.306 453.514 110.943C454.101 110.581 454.784 110.399 455.562 110.399C456.725 110.399 457.621 110.746 458.25 111.439C458.88 112.122 459.194 113.066 459.194 114.271V114.415C459.184 114.586 459.13 114.719 459.034 114.815C458.938 114.911 458.8 114.959 458.618 114.959H453.37C453.434 115.663 453.664 116.239 454.058 116.687C454.464 117.125 455.029 117.343 455.754 117.343C456.149 117.343 456.496 117.285 456.794 117.167C457.093 117.039 457.429 116.821 457.802 116.511ZM455.53 111.743C454.944 111.743 454.469 111.919 454.106 112.271C453.754 112.613 453.525 113.098 453.418 113.727H457.53C457.488 113.109 457.296 112.623 456.954 112.271C456.613 111.919 456.138 111.743 455.53 111.743ZM466.427 116.511C466.566 116.394 466.699 116.335 466.827 116.335C466.955 116.335 467.089 116.405 467.227 116.543L467.451 116.783C467.569 116.922 467.627 117.055 467.627 117.183C467.627 117.322 467.558 117.455 467.419 117.583C466.929 118.01 466.438 118.314 465.947 118.495C465.467 118.677 464.934 118.767 464.347 118.767C463.526 118.767 462.811 118.597 462.203 118.255C461.606 117.914 461.142 117.434 460.811 116.815C460.491 116.186 460.331 115.461 460.331 114.639C460.331 113.829 460.486 113.103 460.795 112.463C461.115 111.813 461.563 111.306 462.139 110.943C462.726 110.581 463.409 110.399 464.187 110.399C465.35 110.399 466.246 110.746 466.875 111.439C467.505 112.122 467.819 113.066 467.819 114.271V114.415C467.809 114.586 467.755 114.719 467.659 114.815C467.563 114.911 467.425 114.959 467.243 114.959H461.995C462.059 115.663 462.289 116.239 462.683 116.687C463.089 117.125 463.654 117.343 464.379 117.343C464.774 117.343 465.121 117.285 465.419 117.167C465.718 117.039 466.054 116.821 466.427 116.511ZM464.155 111.743C463.569 111.743 463.094 111.919 462.731 112.271C462.379 112.613 462.15 113.098 462.043 113.727H466.155C466.113 113.109 465.921 112.623 465.579 112.271C465.238 111.919 464.763 111.743 464.155 111.743ZM469.997 118.527C469.826 118.527 469.688 118.479 469.581 118.383C469.485 118.277 469.437 118.138 469.437 117.967V107.727C469.437 107.546 469.485 107.407 469.581 107.311C469.688 107.215 469.826 107.167 469.997 107.167H470.573C470.754 107.167 470.893 107.215 470.989 107.311C471.085 107.407 471.133 107.546 471.133 107.727V117.967C471.133 118.138 471.085 118.277 470.989 118.383C470.893 118.479 470.754 118.527 470.573 118.527H469.997Z" fill="#697690"/>
<circle cx="185.744" cy="40.5797" r="7.18335" fill="#5473B5" stroke="#5473B5" stroke-width="2"/>
<circle cx="389.69" cy="113.527" r="7.18335" fill="#5473B5" stroke="#5473B5" stroke-width="2"/>
</svg>
