<svg width="592" height="264" viewBox="0 0 592 264" fill="none" xmlns="http://www.w3.org/2000/svg">
<mask id="path-1-inside-1_467_2649" fill="white">
<path d="M0 4.99999C0 2.23857 2.23858 0 5 0H275C277.761 0 280 2.23858 280 5V211C280 213.761 277.761 216 275 216H5C2.23857 216 0 213.761 0 211V4.99999Z"/>
</mask>
<path d="M0 4.99999C0 2.23857 2.23858 0 5 0H275C277.761 0 280 2.23858 280 5V211C280 213.761 277.761 216 275 216H5C2.23857 216 0 213.761 0 211V4.99999Z" fill="#777766" fill-opacity="0.1"/>
<path d="M54.5 93.9717H45.5V163.915H54.5V93.9717Z" fill="#697690"/>
<path d="M66.5 65.6611H57.5V163.915H66.5V65.6611Z" fill="#697690"/>
<path d="M78.5 78.9836H69.5V163.915H78.5V78.9836Z" fill="#697690"/>
<path d="M90.5 78.9836H81.5V163.915H90.5V78.9836Z" fill="#697690"/>
<path d="M102.5 77.3184H93.5V163.915H102.5V77.3184Z" fill="#697690"/>
<path d="M114.5 82.3145H105.5V163.915H114.5V82.3145Z" fill="#697690"/>
<path d="M126.5 87.3103H117.5V163.915H126.5V87.3103Z" fill="#697690"/>
<path d="M138.5 78.9836H129.5V163.915H138.5V78.9836Z" fill="#697690"/>
<path d="M150.5 73.9878H141.5V163.915H150.5V73.9878Z" fill="#697690"/>
<path d="M162.5 77.3184H153.5V163.915H162.5V77.3184Z" fill="#697690"/>
<path d="M174.5 68.9917H165.5V163.915H174.5V68.9917Z" fill="#697690"/>
<path d="M186.5 97.3022H177.5V163.915H186.5V97.3022Z" fill="#697690"/>
<path d="M198.5 63.9958H189.5V163.915H198.5V63.9958Z" fill="#697690"/>
<path d="M210.5 87.3103H201.5V163.915H210.5V87.3103Z" fill="#697690"/>
<path d="M222.5 68.9917H213.5V163.915H222.5V68.9917Z" fill="#697690"/>
<path d="M234.5 73.9878H225.5V163.915H234.5V73.9878Z" fill="#697690"/>
<path d="M0 5C0 -2.1797 5.8203 -8 13 -8H267C274.18 -8 280 -2.1797 280 5V8C280 8 277.761 8 275 8H5C2.23858 8 0 8 0 8V5ZM280 216H0H280ZM0 216V0V216ZM280 0V216V0Z" fill="#0C873E" mask="url(#path-1-inside-1_467_2649)"/>
<path fill-rule="evenodd" clip-rule="evenodd" d="M12 264C18.6274 264 24 258.627 24 252C24 245.373 18.6274 240 12 240C5.37258 240 0 245.373 0 252C0 258.627 5.37258 264 12 264ZM19.0607 248.561L16.9393 246.439L9.75 253.629L7.06066 250.939L4.93934 253.061L9.75 257.871L19.0607 248.561Z" fill="#0C873E"/>
<path d="M33.792 257C33.6213 257 33.4827 256.952 33.376 256.856C33.28 256.749 33.232 256.611 33.232 256.44V246.2C33.232 246.019 33.28 245.88 33.376 245.784C33.4827 245.688 33.6213 245.64 33.792 245.64H37.648C38.7147 245.64 39.6267 245.88 40.384 246.36C41.152 246.84 41.7333 247.512 42.128 248.376C42.5333 249.229 42.736 250.211 42.736 251.32C42.736 252.429 42.5333 253.416 42.128 254.28C41.7333 255.133 41.152 255.8 40.384 256.28C39.6267 256.76 38.7147 257 37.648 257H33.792ZM37.376 255.464C38.464 255.464 39.3173 255.107 39.936 254.392C40.5653 253.667 40.88 252.643 40.88 251.32C40.88 249.997 40.5653 248.979 39.936 248.264C39.3173 247.539 38.464 247.176 37.376 247.176H35.056V255.464H37.376ZM48.0905 257.24C47.3118 257.24 46.6185 257.064 46.0105 256.712C45.4132 256.36 44.9438 255.869 44.6025 255.24C44.2612 254.6 44.0905 253.869 44.0905 253.048C44.0905 252.227 44.2612 251.501 44.6025 250.872C44.9438 250.243 45.4132 249.752 46.0105 249.4C46.6185 249.048 47.3118 248.872 48.0905 248.872C48.8585 248.872 49.5465 249.048 50.1545 249.4C50.7625 249.752 51.2372 250.248 51.5785 250.888C51.9198 251.517 52.0905 252.237 52.0905 253.048C52.0905 253.869 51.9198 254.6 51.5785 255.24C51.2372 255.869 50.7625 256.36 50.1545 256.712C49.5465 257.064 48.8585 257.24 48.0905 257.24ZM48.0905 255.816C48.7732 255.816 49.3225 255.565 49.7385 255.064C50.1545 254.552 50.3625 253.88 50.3625 253.048C50.3625 252.227 50.1545 251.565 49.7385 251.064C49.3225 250.563 48.7732 250.312 48.0905 250.312C47.4078 250.312 46.8585 250.563 46.4425 251.064C46.0265 251.565 45.8185 252.227 45.8185 253.048C45.8185 253.88 46.0265 254.552 46.4425 255.064C46.8585 255.565 47.4078 255.816 48.0905 255.816Z" fill="#0C873E"/>
<mask id="path-21-inside-2_467_2649" fill="white">
<path d="M312 4.99999C312 2.23857 314.239 0 317 0H587C589.761 0 592 2.23858 592 5V211C592 213.761 589.761 216 587 216H317C314.239 216 312 213.761 312 211V4.99999Z"/>
</mask>
<path d="M312 4.99999C312 2.23857 314.239 0 317 0H587C589.761 0 592 2.23858 592 5V211C592 213.761 589.761 216 587 216H317C314.239 216 312 213.761 312 211V4.99999Z" fill="#777766" fill-opacity="0.1"/>
<path d="M348.718 93.3064H346.456V163.25H348.718V93.3064Z" fill="#697690"/>
<path d="M352.98 60H350.718V163.25H352.98V60Z" fill="#697690"/>
<path d="M357.241 83.3145H354.98V163.25H357.241V83.3145Z" fill="#697690"/>
<path d="M361.503 76.6533H359.241V163.25H361.503V76.6533Z" fill="#697690"/>
<path d="M365.765 78.3186H363.503V163.25H365.765V78.3186Z" fill="#697690"/>
<path d="M370.027 68.3267H367.765V163.25H370.027V68.3267Z" fill="#697690"/>
<path d="M374.289 63.3306H372.027V163.25H374.289V63.3306Z" fill="#697690"/>
<path d="M378.55 93.3064H376.289V163.25H378.55V93.3064Z" fill="#697690"/>
<path d="M382.812 64.9958H380.55V163.25H382.812V64.9958Z" fill="#697690"/>
<path d="M387.074 68.3267H384.812V163.25H387.074V68.3267Z" fill="#697690"/>
<path d="M391.335 68.3267H389.074V163.25H391.335V68.3267Z" fill="#697690"/>
<path d="M395.597 83.3145H393.335V163.25H395.597V83.3145Z" fill="#697690"/>
<path d="M399.859 64.9958H397.597V163.25H399.859V64.9958Z" fill="#697690"/>
<path d="M404.121 83.3145H401.859V163.25H404.121V83.3145Z" fill="#697690"/>
<path d="M408.383 64.9958H406.121V163.25H408.383V64.9958Z" fill="#697690"/>
<path d="M412.644 78.3186H410.383V163.25H412.644V78.3186Z" fill="#697690"/>
<path d="M416.906 78.3186H414.644V163.25H416.906V78.3186Z" fill="#697690"/>
<path d="M421.168 76.6533H418.906V163.25H421.168V76.6533Z" fill="#697690"/>
<path d="M425.429 78.3186H423.168V163.25H425.429V78.3186Z" fill="#697690"/>
<path d="M429.691 88.3105H427.429V163.25H429.691V88.3105Z" fill="#697690"/>
<path d="M433.953 76.6533H431.691V163.25H433.953V76.6533Z" fill="#697690"/>
<path d="M438.215 68.3267H435.953V163.25H438.215V68.3267Z" fill="#697690"/>
<path d="M442.476 81.6492H440.215V163.25H442.476V81.6492Z" fill="#697690"/>
<path d="M446.738 88.3105H444.476V163.25H446.738V88.3105Z" fill="#697690"/>
<path d="M451 63.3306H448.738V163.25H451V63.3306Z" fill="#697690"/>
<path d="M455.262 93.3064H453V163.25H455.262V93.3064Z" fill="#697690"/>
<path d="M459.523 64.9958H457.262V163.25H459.523V64.9958Z" fill="#697690"/>
<path d="M463.785 93.3064H461.523V163.25H463.785V93.3064Z" fill="#697690"/>
<path d="M468.047 86.6453H465.785V163.25H468.047V86.6453Z" fill="#697690"/>
<path d="M472.309 73.3225H470.047V163.25H472.309V73.3225Z" fill="#697690"/>
<path d="M476.57 68.3267H474.309V163.25H476.57V68.3267Z" fill="#697690"/>
<path d="M480.832 76.6533H478.57V163.25H480.832V76.6533Z" fill="#697690"/>
<path d="M485.094 81.6492H482.832V163.25H485.094V81.6492Z" fill="#697690"/>
<path d="M489.355 71.6572H487.094V163.25H489.355V71.6572Z" fill="#697690"/>
<path d="M493.617 81.6492H491.355V163.25H493.617V81.6492Z" fill="#697690"/>
<path d="M497.879 86.6453H495.617V163.25H497.879V86.6453Z" fill="#697690"/>
<path d="M502.141 78.3186H499.879V163.25H502.141V78.3186Z" fill="#697690"/>
<path d="M506.402 73.3225H504.141V163.25H506.402V73.3225Z" fill="#697690"/>
<path d="M510.664 76.6533H508.402V163.25H510.664V76.6533Z" fill="#697690"/>
<path d="M514.926 68.3267H512.665V163.25H514.926V68.3267Z" fill="#697690"/>
<path d="M519.188 96.6372H516.926V163.25H519.188V96.6372Z" fill="#697690"/>
<path d="M523.45 63.3306H521.188V163.25H523.45V63.3306Z" fill="#697690"/>
<path d="M527.711 86.6453H525.45V163.25H527.711V86.6453Z" fill="#697690"/>
<path d="M531.973 68.3267H529.711V163.25H531.973V68.3267Z" fill="#697690"/>
<path d="M536.235 73.3225H533.973V163.25H536.235V73.3225Z" fill="#697690"/>
<path d="M540.497 76.6533H538.235V163.25H540.497V76.6533Z" fill="#697690"/>
<path d="M544.758 63.3306H542.497V163.25H544.758V63.3306Z" fill="#697690"/>
<path d="M549.02 76.6533H546.758V163.25H549.02V76.6533Z" fill="#697690"/>
<path d="M553.282 81.6492H551.02V163.25H553.282V81.6492Z" fill="#697690"/>
<path d="M557.543 64.9958H555.282V163.25H557.543V64.9958Z" fill="#697690"/>
<path d="M312 5C312 -2.1797 317.82 -8 325 -8H579C586.18 -8 592 -2.1797 592 5V8C592 8 589.761 8 587 8H317C314.239 8 312 8 312 8V5ZM592 216H312H592ZM312 216V0V216ZM592 0V216V0Z" fill="#CF4840" mask="url(#path-21-inside-2_467_2649)"/>
<path fill-rule="evenodd" clip-rule="evenodd" d="M324 264C330.627 264 336 258.627 336 252C336 245.373 330.627 240 324 240C317.373 240 312 245.373 312 252C312 258.627 317.373 264 324 264ZM318.439 248.561L321.879 252L318.439 255.439L320.561 257.561L324 254.121L327.439 257.561L329.561 255.439L326.121 252L329.561 248.561L327.439 246.439L324 249.879L320.561 246.439L318.439 248.561Z" fill="#CF4840"/>
<path d="M345.792 257C345.621 257 345.483 256.952 345.376 256.856C345.28 256.749 345.232 256.611 345.232 256.44V246.2C345.232 246.019 345.28 245.88 345.376 245.784C345.483 245.688 345.621 245.64 345.792 245.64H349.648C350.715 245.64 351.627 245.88 352.384 246.36C353.152 246.84 353.733 247.512 354.128 248.376C354.533 249.229 354.736 250.211 354.736 251.32C354.736 252.429 354.533 253.416 354.128 254.28C353.733 255.133 353.152 255.8 352.384 256.28C351.627 256.76 350.715 257 349.648 257H345.792ZM349.376 255.464C350.464 255.464 351.317 255.107 351.936 254.392C352.565 253.667 352.88 252.643 352.88 251.32C352.88 249.997 352.565 248.979 351.936 248.264C351.317 247.539 350.464 247.176 349.376 247.176H347.056V255.464H349.376ZM360.091 257.24C359.312 257.24 358.619 257.064 358.011 256.712C357.413 256.36 356.944 255.869 356.603 255.24C356.261 254.6 356.09 253.869 356.09 253.048C356.09 252.227 356.261 251.501 356.603 250.872C356.944 250.243 357.413 249.752 358.011 249.4C358.619 249.048 359.312 248.872 360.091 248.872C360.859 248.872 361.547 249.048 362.155 249.4C362.763 249.752 363.237 250.248 363.579 250.888C363.92 251.517 364.091 252.237 364.091 253.048C364.091 253.869 363.92 254.6 363.579 255.24C363.237 255.869 362.763 256.36 362.155 256.712C361.547 257.064 360.859 257.24 360.091 257.24ZM360.091 255.816C360.773 255.816 361.323 255.565 361.739 255.064C362.155 254.552 362.363 253.88 362.363 253.048C362.363 252.227 362.155 251.565 361.739 251.064C361.323 250.563 360.773 250.312 360.091 250.312C359.408 250.312 358.859 250.563 358.443 251.064C358.027 251.565 357.819 252.227 357.819 253.048C357.819 253.88 358.027 254.552 358.443 255.064C358.859 255.565 359.408 255.816 360.091 255.816ZM369.601 248.872C370.508 248.872 371.201 249.128 371.681 249.64C372.172 250.141 372.417 250.792 372.417 251.592V256.44C372.417 256.611 372.369 256.749 372.273 256.856C372.177 256.952 372.039 257 371.857 257H371.281C371.111 257 370.972 256.952 370.865 256.856C370.769 256.749 370.721 256.611 370.721 256.44V252.12C370.721 251.544 370.577 251.101 370.289 250.792C370.012 250.483 369.612 250.328 369.089 250.328C368.577 250.328 368.145 250.504 367.793 250.856C367.452 251.208 367.281 251.651 367.281 252.184V256.44C367.281 256.611 367.233 256.749 367.137 256.856C367.041 256.952 366.903 257 366.721 257H366.145C365.975 257 365.836 256.952 365.729 256.856C365.633 256.749 365.585 256.611 365.585 256.44V249.672C365.585 249.491 365.633 249.352 365.729 249.256C365.836 249.16 365.975 249.112 366.145 249.112H366.609C366.791 249.112 366.929 249.16 367.025 249.256C367.121 249.352 367.169 249.491 367.169 249.672V250.088C367.425 249.693 367.761 249.395 368.177 249.192C368.593 248.979 369.068 248.872 369.601 248.872ZM374.527 245.576C374.889 245.576 375.188 245.715 375.423 245.992C375.668 246.259 375.791 246.637 375.791 247.128C375.791 247.693 375.647 248.216 375.359 248.696C375.071 249.176 374.66 249.501 374.127 249.672C374.041 249.693 373.983 249.704 373.951 249.704C373.812 249.704 373.705 249.656 373.631 249.56C373.556 249.453 373.519 249.32 373.519 249.16C373.519 249.128 373.54 249.096 373.583 249.064C373.636 249.032 373.695 249 373.759 248.968C373.833 248.925 373.908 248.888 373.983 248.856C374.185 248.749 374.361 248.6 374.511 248.408C374.66 248.216 374.756 247.987 374.799 247.72C374.671 247.741 374.58 247.752 374.527 247.752C374.196 247.752 373.924 247.656 373.711 247.464C373.497 247.261 373.391 247 373.391 246.68C373.391 246.371 373.503 246.109 373.727 245.896C373.951 245.683 374.217 245.576 374.527 245.576ZM381.003 255.656C381.035 255.645 381.083 255.64 381.147 255.64C381.413 255.64 381.573 255.795 381.627 256.104L381.675 256.36C381.685 256.392 381.691 256.445 381.691 256.52C381.691 256.787 381.541 256.957 381.243 257.032C380.816 257.128 380.427 257.176 380.075 257.176C379.317 257.176 378.768 257 378.427 256.648C378.096 256.296 377.931 255.768 377.931 255.064V250.408H377.051C376.88 250.408 376.741 250.36 376.635 250.264C376.539 250.157 376.491 250.019 376.491 249.848V249.672C376.491 249.491 376.539 249.352 376.635 249.256C376.741 249.16 376.88 249.112 377.051 249.112H377.931V247.128C377.931 246.947 377.979 246.808 378.075 246.712C378.181 246.616 378.32 246.568 378.491 246.568H379.067C379.248 246.568 379.387 246.616 379.483 246.712C379.579 246.808 379.627 246.947 379.627 247.128V249.112H381.067C381.248 249.112 381.387 249.16 381.483 249.256C381.579 249.352 381.627 249.491 381.627 249.672V249.848C381.627 250.019 381.579 250.157 381.483 250.264C381.387 250.36 381.248 250.408 381.067 250.408H379.627V254.856C379.627 255.165 379.691 255.384 379.819 255.512C379.957 255.64 380.176 255.704 380.475 255.704C380.603 255.704 380.779 255.688 381.003 255.656Z" fill="#CF4840"/>
</svg>
