<svg width="592" height="180" viewBox="0 0 592 180" fill="none" xmlns="http://www.w3.org/2000/svg">
<rect x="33.7979" y="72.0291" width="29.8945" height="75.8669" rx="2" fill="#697690" fill-opacity="0.4"/>
<rect x="34.7979" y="73.0291" width="27.8945" height="73.8669" rx="1" stroke="#697690" stroke-opacity="0.78" stroke-width="2"/>
<rect x="75.6501" y="34.6858" width="29.8945" height="113.21" rx="2" fill="#CF4840"/>
<rect x="117.503" y="65.4751" width="29.8945" height="82.4212" rx="2" fill="#697690" fill-opacity="0.4"/>
<rect x="118.503" y="66.4751" width="27.8945" height="80.4212" rx="1" stroke="#697690" stroke-opacity="0.78" stroke-width="2"/>
<rect x="159.355" y="94.1411" width="29.8945" height="53.755" rx="2" fill="#697690" fill-opacity="0.4"/>
<rect x="160.355" y="95.1411" width="27.8945" height="51.755" rx="1" stroke="#697690" stroke-opacity="0.78" stroke-width="2"/>
<path opacity="0.78" d="M33.7979 154.074L189.249 154.074" stroke="#697690" stroke-width="2" stroke-linecap="round"/>
<circle cx="470.417" cy="68.2658" r="35.5886" fill="#CF4840"/>
<circle cx="532.104" cy="107.018" r="26.0984" fill="#697690" fill-opacity="0.4"/>
<circle cx="532.104" cy="107.018" r="25.0984" stroke="#697690" stroke-opacity="0.78" stroke-width="2"/>
<circle cx="479.116" cy="133.117" r="20.9578" fill="#697690" fill-opacity="0.4"/>
<circle cx="479.116" cy="133.117" r="19.9578" stroke="#697690" stroke-opacity="0.78" stroke-width="2"/>
<path d="M314.021 39.9599C314.02 38.819 314.92 38.0347 315.871 38.1011C322.658 38.5754 329.31 40.3068 335.484 43.2184C342.819 46.6778 349.298 51.7178 354.456 57.9767C359.614 64.2357 363.323 71.5586 365.316 79.4201C367.31 87.2816 367.54 95.4869 365.988 103.447C364.436 111.408 361.142 118.927 356.342 125.464C351.542 132.001 345.354 137.395 338.223 141.259C331.092 145.122 323.195 147.36 315.097 147.811C308.282 148.191 301.466 147.298 294.998 145.188C294.092 144.893 293.553 143.828 293.981 142.771L300.617 126.406C301.01 125.436 302.225 124.803 303.538 125.149C306.905 126.037 310.399 126.395 313.893 126.2C318.801 125.926 323.589 124.57 327.912 122.228C332.235 119.886 335.985 116.616 338.895 112.653C341.805 108.69 343.802 104.132 344.743 99.3065C345.683 94.4807 345.544 89.5067 344.336 84.741C343.127 79.9754 340.879 75.5362 337.752 71.742C334.625 67.9478 330.698 64.8926 326.251 62.7955C323.086 61.3029 319.714 60.3219 316.26 59.8808C314.913 59.7087 314.025 58.6656 314.024 57.6189L314.021 39.9599Z" fill="#CF4840"/>
<path d="M308.119 38.1013C309.07 38.0333 309.971 38.8164 309.972 39.9572L309.997 57.6162C309.998 58.6627 309.112 59.7074 307.765 59.8816C301.57 60.6828 295.694 63.2144 290.833 67.226C284.875 72.1415 280.811 78.9738 279.334 86.5545C277.857 94.1353 279.06 101.994 282.736 108.786C285.736 114.329 290.232 118.881 295.673 121.949C296.856 122.616 297.286 123.918 296.891 124.887L290.24 141.245C289.81 142.302 288.681 142.69 287.825 142.27C277.599 137.252 269.153 129.162 263.7 119.089C257.636 107.884 255.652 94.9209 258.089 82.4155C260.525 69.9102 267.23 58.6396 277.057 50.5309C285.892 43.2407 296.757 38.9134 308.119 38.1013Z" fill="#697690" fill-opacity="0.4"/>
<path d="M308.19 39.0987C308.534 39.0742 308.972 39.3681 308.972 39.9586L308.997 57.6176C308.998 58.0995 308.548 58.772 307.637 58.8898C301.256 59.7151 295.204 62.3226 290.196 66.4547C284.06 71.5177 279.874 78.555 278.353 86.3633C276.831 94.1716 278.07 102.266 281.857 109.262C284.947 114.972 289.578 119.66 295.182 122.82C295.982 123.272 296.147 124.064 295.965 124.51L289.313 140.869C289.091 141.416 288.575 141.524 288.266 141.372C278.225 136.445 269.933 128.503 264.58 118.613C258.626 107.612 256.678 94.8846 259.07 82.6068C261.462 70.3289 268.045 59.2633 277.693 51.3022C286.367 44.1446 297.035 39.8961 308.19 39.0987Z" stroke="#697690" stroke-opacity="0.78" stroke-width="2"/>
</svg>
