<svg width="592" height="342" viewBox="0 0 592 342" fill="none" xmlns="http://www.w3.org/2000/svg">
<g clip-path="url(#clip0_523_3571)">
<path d="M165.15 320.224C164.35 320.224 163.539 320.053 162.718 319.712C162.483 319.616 162.366 319.461 162.366 319.248C162.366 319.195 162.387 319.104 162.43 318.976L162.59 318.56C162.686 318.325 162.841 318.208 163.054 318.208C163.139 318.208 163.23 318.224 163.326 318.256C163.955 318.491 164.537 318.608 165.07 318.608C166.062 318.608 166.558 318.016 166.558 316.832V309.2C166.558 309.019 166.606 308.88 166.702 308.784C166.809 308.688 166.947 308.64 167.118 308.64H167.822C168.003 308.64 168.142 308.688 168.238 308.784C168.334 308.88 168.382 309.019 168.382 309.2V317.024C168.382 318.101 168.099 318.907 167.534 319.44C166.969 319.963 166.174 320.224 165.15 320.224ZM173.851 311.872C174.918 311.872 175.739 312.123 176.315 312.624C176.891 313.115 177.179 313.771 177.179 314.592V319.44C177.179 319.611 177.131 319.749 177.035 319.856C176.939 319.952 176.8 320 176.619 320H176.203C176.032 320 175.894 319.952 175.787 319.856C175.691 319.749 175.643 319.611 175.643 319.44V319.088C175.387 319.461 175.035 319.749 174.587 319.952C174.139 320.155 173.616 320.256 173.019 320.256C172.198 320.256 171.52 320.075 170.987 319.712C170.464 319.339 170.203 318.779 170.203 318.032C170.203 317.2 170.512 316.587 171.131 316.192C171.76 315.787 172.63 315.483 173.739 315.28L175.547 314.944V314.656C175.547 314.219 175.392 313.883 175.083 313.648C174.784 313.403 174.384 313.28 173.883 313.28C173.456 313.28 173.083 313.355 172.763 313.504C172.454 313.643 172.118 313.877 171.755 314.208C171.616 314.325 171.483 314.384 171.355 314.384C171.227 314.384 171.094 314.325 170.955 314.208L170.699 313.984C170.56 313.856 170.491 313.717 170.491 313.568C170.491 313.429 170.555 313.296 170.683 313.168C171.142 312.731 171.627 312.405 172.139 312.192C172.651 311.979 173.222 311.872 173.851 311.872ZM173.259 318.896C173.899 318.896 174.438 318.725 174.875 318.384C175.323 318.043 175.547 317.552 175.547 316.912V316.176L174.155 316.464C173.376 316.624 172.8 316.805 172.427 317.008C172.054 317.211 171.867 317.52 171.867 317.936C171.867 318.235 171.99 318.469 172.235 318.64C172.48 318.811 172.822 318.896 173.259 318.896ZM183.133 311.872C184.039 311.872 184.733 312.128 185.213 312.64C185.703 313.141 185.949 313.792 185.949 314.592V319.44C185.949 319.611 185.901 319.749 185.805 319.856C185.709 319.952 185.57 320 185.389 320H184.813C184.642 320 184.503 319.952 184.397 319.856C184.301 319.749 184.253 319.611 184.253 319.44V315.12C184.253 314.544 184.109 314.101 183.821 313.792C183.543 313.483 183.143 313.328 182.621 313.328C182.109 313.328 181.677 313.504 181.325 313.856C180.983 314.208 180.813 314.651 180.813 315.184V319.44C180.813 319.611 180.765 319.749 180.669 319.856C180.573 319.952 180.434 320 180.253 320H179.677C179.506 320 179.367 319.952 179.261 319.856C179.165 319.749 179.117 319.611 179.117 319.44V312.672C179.117 312.491 179.165 312.352 179.261 312.256C179.367 312.16 179.506 312.112 179.677 312.112H180.141C180.322 312.112 180.461 312.16 180.557 312.256C180.653 312.352 180.701 312.491 180.701 312.672V313.088C180.957 312.693 181.293 312.395 181.709 312.192C182.125 311.979 182.599 311.872 183.133 311.872Z" fill="#697690"/>
<path d="M252.714 320C252.543 320 252.405 319.952 252.298 319.856C252.202 319.749 252.154 319.611 252.154 319.44V309.2C252.154 309.019 252.202 308.88 252.298 308.784C252.405 308.688 252.543 308.64 252.714 308.64H259.354C259.535 308.64 259.674 308.688 259.77 308.784C259.866 308.88 259.914 309.019 259.914 309.2V309.616C259.914 309.787 259.866 309.925 259.77 310.032C259.674 310.128 259.535 310.176 259.354 310.176H253.978V313.648H258.922C259.103 313.648 259.242 313.696 259.338 313.792C259.434 313.888 259.482 314.027 259.482 314.208V314.608C259.482 314.779 259.434 314.917 259.338 315.024C259.242 315.12 259.103 315.168 258.922 315.168H253.978V319.44C253.978 319.611 253.93 319.749 253.834 319.856C253.738 319.952 253.599 320 253.418 320H252.714ZM266.89 317.984C267.028 317.867 267.162 317.808 267.29 317.808C267.418 317.808 267.551 317.877 267.69 318.016L267.914 318.256C268.031 318.395 268.09 318.528 268.09 318.656C268.09 318.795 268.02 318.928 267.882 319.056C267.391 319.483 266.9 319.787 266.41 319.968C265.93 320.149 265.396 320.24 264.81 320.24C263.988 320.24 263.274 320.069 262.666 319.728C262.068 319.387 261.604 318.907 261.274 318.288C260.954 317.659 260.794 316.933 260.794 316.112C260.794 315.301 260.948 314.576 261.258 313.936C261.578 313.285 262.026 312.779 262.602 312.416C263.188 312.053 263.871 311.872 264.65 311.872C265.812 311.872 266.708 312.219 267.338 312.912C267.967 313.595 268.282 314.539 268.282 315.744V315.888C268.271 316.059 268.218 316.192 268.122 316.288C268.026 316.384 267.887 316.432 267.706 316.432H262.458C262.522 317.136 262.751 317.712 263.146 318.16C263.551 318.597 264.116 318.816 264.842 318.816C265.236 318.816 265.583 318.757 265.882 318.64C266.18 318.512 266.516 318.293 266.89 317.984ZM264.618 313.216C264.031 313.216 263.556 313.392 263.194 313.744C262.842 314.085 262.612 314.571 262.506 315.2H266.618C266.575 314.581 266.383 314.096 266.042 313.744C265.7 313.392 265.226 313.216 264.618 313.216ZM274.027 311.904C274.699 311.904 275.297 312.075 275.819 312.416C276.353 312.757 276.769 313.243 277.067 313.872C277.366 314.501 277.515 315.227 277.515 316.048C277.515 316.88 277.366 317.611 277.067 318.24C276.769 318.869 276.353 319.355 275.819 319.696C275.286 320.037 274.689 320.208 274.027 320.208C272.843 320.208 271.974 319.765 271.419 318.88V319.44C271.419 319.611 271.371 319.749 271.275 319.856C271.179 319.952 271.041 320 270.859 320H270.395C270.225 320 270.086 319.952 269.979 319.856C269.883 319.749 269.835 319.611 269.835 319.44V309.2C269.835 309.019 269.883 308.88 269.979 308.784C270.086 308.688 270.225 308.64 270.395 308.64H270.971C271.153 308.64 271.291 308.688 271.387 308.784C271.483 308.88 271.531 309.019 271.531 309.2V313.104C272.097 312.304 272.929 311.904 274.027 311.904ZM273.675 318.736C274.315 318.736 274.827 318.496 275.211 318.016C275.595 317.525 275.787 316.869 275.787 316.048C275.787 315.237 275.595 314.587 275.211 314.096C274.838 313.605 274.331 313.36 273.691 313.36C273.041 313.36 272.507 313.605 272.091 314.096C271.675 314.576 271.467 315.227 271.467 316.048C271.467 316.891 271.675 317.552 272.091 318.032C272.507 318.501 273.035 318.736 273.675 318.736Z" fill="#697690"/>
<path d="M350.077 309.104C350.173 308.795 350.386 308.64 350.717 308.64H352.541C352.722 308.64 352.861 308.688 352.957 308.784C353.053 308.88 353.101 309.019 353.101 309.2V319.44C353.101 319.611 353.053 319.749 352.957 319.856C352.861 319.952 352.722 320 352.541 320H351.885C351.714 320 351.575 319.952 351.469 319.856C351.373 319.749 351.325 319.611 351.325 319.44V314.288C351.325 313.648 351.335 312.688 351.357 311.408L351.373 310.016C351.245 310.421 350.941 311.344 350.461 312.784L349.965 314.288L348.205 319.536C348.109 319.845 347.895 320 347.565 320H346.941C346.61 320 346.397 319.851 346.301 319.552L344.509 314.288C343.879 312.475 343.405 311.051 343.085 310.016C343.106 311.893 343.117 313.317 343.117 314.288V319.44C343.117 319.611 343.069 319.749 342.973 319.856C342.877 319.952 342.738 320 342.557 320H341.933C341.762 320 341.623 319.952 341.517 319.856C341.421 319.749 341.373 319.611 341.373 319.44V309.2C341.373 309.019 341.421 308.88 341.517 308.784C341.623 308.688 341.762 308.64 341.933 308.64H343.789C344.119 308.64 344.333 308.789 344.429 309.088L345.917 313.472C346.546 315.349 346.994 316.773 347.261 317.744C347.602 316.549 348.05 315.125 348.605 313.472L350.077 309.104ZM358.632 311.872C359.699 311.872 360.52 312.123 361.096 312.624C361.672 313.115 361.96 313.771 361.96 314.592V319.44C361.96 319.611 361.912 319.749 361.816 319.856C361.72 319.952 361.581 320 361.4 320H360.984C360.813 320 360.675 319.952 360.568 319.856C360.472 319.749 360.424 319.611 360.424 319.44V319.088C360.168 319.461 359.816 319.749 359.368 319.952C358.92 320.155 358.397 320.256 357.8 320.256C356.979 320.256 356.301 320.075 355.768 319.712C355.245 319.339 354.984 318.779 354.984 318.032C354.984 317.2 355.293 316.587 355.912 316.192C356.541 315.787 357.411 315.483 358.52 315.28L360.328 314.944V314.656C360.328 314.219 360.173 313.883 359.864 313.648C359.565 313.403 359.165 313.28 358.664 313.28C358.237 313.28 357.864 313.355 357.544 313.504C357.235 313.643 356.899 313.877 356.536 314.208C356.397 314.325 356.264 314.384 356.136 314.384C356.008 314.384 355.875 314.325 355.736 314.208L355.48 313.984C355.341 313.856 355.272 313.717 355.272 313.568C355.272 313.429 355.336 313.296 355.464 313.168C355.923 312.731 356.408 312.405 356.92 312.192C357.432 311.979 358.003 311.872 358.632 311.872ZM358.04 318.896C358.68 318.896 359.219 318.725 359.656 318.384C360.104 318.043 360.328 317.552 360.328 316.912V316.176L358.936 316.464C358.157 316.624 357.581 316.805 357.208 317.008C356.835 317.211 356.648 317.52 356.648 317.936C356.648 318.235 356.771 318.469 357.016 318.64C357.261 318.811 357.603 318.896 358.04 318.896ZM367.45 312.032C367.685 312.032 367.925 312.059 368.17 312.112C368.458 312.176 368.602 312.347 368.602 312.624C368.602 312.699 368.597 312.752 368.586 312.784L368.506 313.168C368.442 313.467 368.282 313.616 368.026 313.616L367.882 313.6C367.69 313.568 367.519 313.552 367.37 313.552C366.837 313.552 366.405 313.765 366.074 314.192C365.754 314.608 365.594 315.189 365.594 315.936V319.44C365.594 319.611 365.546 319.749 365.45 319.856C365.354 319.952 365.215 320 365.034 320H364.458C364.287 320 364.149 319.952 364.042 319.856C363.946 319.749 363.898 319.611 363.898 319.44V312.672C363.898 312.491 363.946 312.352 364.042 312.256C364.149 312.16 364.287 312.112 364.458 312.112H364.922C365.103 312.112 365.242 312.16 365.338 312.256C365.434 312.352 365.482 312.491 365.482 312.672V313.296C365.674 312.901 365.935 312.592 366.266 312.368C366.597 312.144 366.991 312.032 367.45 312.032Z" fill="#697690"/>
<path d="M440.798 320C440.478 320 440.265 319.851 440.158 319.552L439.406 317.392H434.382L433.63 319.552C433.524 319.851 433.31 320 432.99 320H432.318C432.158 320 432.03 319.968 431.934 319.904C431.849 319.829 431.806 319.728 431.806 319.6C431.806 319.536 431.822 319.456 431.854 319.36L435.566 309.088C435.673 308.789 435.886 308.64 436.206 308.64H437.63C437.95 308.64 438.164 308.789 438.27 309.088L441.982 319.36C442.014 319.456 442.03 319.536 442.03 319.6C442.03 319.728 441.982 319.829 441.886 319.904C441.801 319.968 441.678 320 441.518 320H440.798ZM438.894 315.872L438.398 314.464C438.388 314.443 438.27 314.107 438.046 313.456C437.481 311.856 437.097 310.715 436.894 310.032C436.585 311.013 436.174 312.229 435.662 313.68L435.39 314.48L434.91 315.872H438.894ZM447.606 311.904C448.278 311.904 448.875 312.075 449.398 312.416C449.931 312.757 450.347 313.243 450.646 313.872C450.944 314.501 451.094 315.227 451.094 316.048C451.094 316.88 450.944 317.611 450.646 318.24C450.347 318.869 449.931 319.355 449.398 319.696C448.864 320.037 448.267 320.208 447.606 320.208C446.496 320.208 445.664 319.824 445.11 319.056V322.272C445.11 322.453 445.062 322.592 444.966 322.688C444.87 322.784 444.731 322.832 444.549 322.832H443.974C443.803 322.832 443.664 322.784 443.558 322.688C443.462 322.592 443.414 322.453 443.414 322.272V312.672C443.414 312.491 443.462 312.352 443.558 312.256C443.664 312.16 443.803 312.112 443.974 312.112H444.438C444.619 312.112 444.758 312.16 444.854 312.256C444.95 312.352 444.998 312.491 444.998 312.672V313.264C445.563 312.357 446.432 311.904 447.606 311.904ZM447.254 318.736C447.894 318.736 448.406 318.496 448.79 318.016C449.174 317.525 449.366 316.869 449.366 316.048C449.366 315.237 449.174 314.587 448.79 314.096C448.416 313.605 447.91 313.36 447.27 313.36C446.619 313.36 446.086 313.6 445.67 314.08C445.254 314.56 445.046 315.216 445.046 316.048C445.046 316.88 445.254 317.536 445.67 318.016C446.086 318.496 446.614 318.736 447.254 318.736ZM456.184 312.032C456.419 312.032 456.659 312.059 456.904 312.112C457.192 312.176 457.336 312.347 457.336 312.624C457.336 312.699 457.331 312.752 457.32 312.784L457.24 313.168C457.176 313.467 457.016 313.616 456.76 313.616L456.616 313.6C456.424 313.568 456.254 313.552 456.104 313.552C455.571 313.552 455.139 313.765 454.808 314.192C454.488 314.608 454.328 315.189 454.328 315.936V319.44C454.328 319.611 454.28 319.749 454.184 319.856C454.088 319.952 453.95 320 453.768 320H453.192C453.022 320 452.883 319.952 452.776 319.856C452.68 319.749 452.632 319.611 452.632 319.44V312.672C452.632 312.491 452.68 312.352 452.776 312.256C452.883 312.16 453.022 312.112 453.192 312.112H453.656C453.838 312.112 453.976 312.16 454.072 312.256C454.168 312.352 454.216 312.491 454.216 312.672V313.296C454.408 312.901 454.67 312.592 455 312.368C455.331 312.144 455.726 312.032 456.184 312.032Z" fill="#697690"/>
<path d="M103.619 31.504C104.3 31.504 104.893 31.658 105.397 31.966C105.901 32.2647 106.283 32.6707 106.545 33.184C106.815 33.688 106.951 34.2433 106.951 34.85C106.951 35.4473 106.811 36.0027 106.531 36.516C106.251 37.0293 105.845 37.44 105.313 37.748C104.79 38.056 104.174 38.21 103.465 38.21C102.718 38.21 102.079 38.042 101.547 37.706C101.015 37.37 100.613 36.9173 100.343 36.348C100.072 35.7787 99.9367 35.1393 99.9367 34.43C99.9367 33.3473 100.198 32.3767 100.721 31.518C101.253 30.65 102.013 29.74 103.003 28.788L103.633 28.2C103.726 28.1067 103.838 28.06 103.969 28.06H104.529C104.687 28.06 104.767 28.1113 104.767 28.214C104.767 28.27 104.729 28.3353 104.655 28.41L103.773 29.222C102.363 30.5287 101.458 31.6907 101.057 32.708C101.327 32.3347 101.682 32.0407 102.121 31.826C102.559 31.6113 103.059 31.504 103.619 31.504ZM103.465 37.398C103.978 37.398 104.426 37.286 104.809 37.062C105.191 36.838 105.481 36.5347 105.677 36.152C105.882 35.7693 105.985 35.34 105.985 34.864C105.985 34.1267 105.77 33.52 105.341 33.044C104.911 32.568 104.314 32.33 103.549 32.33C103.007 32.33 102.541 32.442 102.149 32.666C101.757 32.8807 101.453 33.184 101.239 33.576C101.033 33.9587 100.931 34.388 100.931 34.864C100.931 35.34 101.033 35.7693 101.239 36.152C101.444 36.5347 101.738 36.838 102.121 37.062C102.503 37.286 102.951 37.398 103.465 37.398ZM111.72 38.21C111.066 38.21 110.492 38.0513 109.998 37.734C109.512 37.4167 109.125 36.9733 108.836 36.404C108.378 35.4987 108.15 34.374 108.15 33.03C108.15 31.6767 108.378 30.5473 108.836 29.642C109.125 29.0727 109.512 28.634 109.998 28.326C110.492 28.0087 111.066 27.85 111.72 27.85C112.373 27.85 112.942 28.0087 113.428 28.326C113.922 28.634 114.314 29.0727 114.604 29.642C115.061 30.5473 115.29 31.6767 115.29 33.03C115.29 34.374 115.061 35.4987 114.604 36.404C114.314 36.9733 113.922 37.4167 113.428 37.734C112.942 38.0513 112.373 38.21 111.72 38.21ZM111.72 37.398C112.634 37.398 113.32 36.922 113.778 35.97C114.142 35.1953 114.324 34.2153 114.324 33.03C114.324 31.826 114.142 30.8413 113.778 30.076C113.33 29.1333 112.644 28.662 111.72 28.662C110.796 28.662 110.11 29.1333 109.662 30.076C109.298 30.8413 109.116 31.826 109.116 33.03C109.116 34.2247 109.298 35.2047 109.662 35.97C110.119 36.922 110.805 37.398 111.72 37.398ZM120.305 38.21C119.652 38.21 119.078 38.0513 118.583 37.734C118.098 37.4167 117.711 36.9733 117.421 36.404C116.964 35.4987 116.735 34.374 116.735 33.03C116.735 31.6767 116.964 30.5473 117.421 29.642C117.711 29.0727 118.098 28.634 118.583 28.326C119.078 28.0087 119.652 27.85 120.305 27.85C120.959 27.85 121.528 28.0087 122.013 28.326C122.508 28.634 122.9 29.0727 123.189 29.642C123.647 30.5473 123.875 31.6767 123.875 33.03C123.875 34.374 123.647 35.4987 123.189 36.404C122.9 36.9733 122.508 37.4167 122.013 37.734C121.528 38.0513 120.959 38.21 120.305 38.21ZM120.305 37.398C121.22 37.398 121.906 36.922 122.363 35.97C122.727 35.1953 122.909 34.2153 122.909 33.03C122.909 31.826 122.727 30.8413 122.363 30.076C121.915 29.1333 121.229 28.662 120.305 28.662C119.381 28.662 118.695 29.1333 118.247 30.076C117.883 30.8413 117.701 31.826 117.701 33.03C117.701 34.2247 117.883 35.2047 118.247 35.97C118.705 36.922 119.391 37.398 120.305 37.398Z" fill="#697690"/>
<path d="M106.866 121.794C107.052 121.794 107.146 121.887 107.146 122.074V122.312C107.146 122.499 107.052 122.592 106.866 122.592H105.62V124.72C105.62 124.907 105.526 125 105.34 125H104.976C104.789 125 104.696 124.907 104.696 124.72V122.592H99.8797C99.693 122.592 99.5997 122.499 99.5997 122.312V121.948C99.5997 121.845 99.6324 121.733 99.6977 121.612L103.702 115.242C103.776 115.121 103.888 115.06 104.038 115.06H104.486C104.56 115.06 104.621 115.079 104.668 115.116C104.714 115.144 104.738 115.186 104.738 115.242C104.738 115.27 104.719 115.321 104.682 115.396L100.636 121.794H104.696V119.68C104.696 119.493 104.789 119.4 104.976 119.4H105.34C105.526 119.4 105.62 119.493 105.62 119.68V121.794H106.866ZM111.72 125.21C111.066 125.21 110.492 125.051 109.998 124.734C109.512 124.417 109.125 123.973 108.836 123.404C108.378 122.499 108.15 121.374 108.15 120.03C108.15 118.677 108.378 117.547 108.836 116.642C109.125 116.073 109.512 115.634 109.998 115.326C110.492 115.009 111.066 114.85 111.72 114.85C112.373 114.85 112.942 115.009 113.428 115.326C113.922 115.634 114.314 116.073 114.604 116.642C115.061 117.547 115.29 118.677 115.29 120.03C115.29 121.374 115.061 122.499 114.604 123.404C114.314 123.973 113.922 124.417 113.428 124.734C112.942 125.051 112.373 125.21 111.72 125.21ZM111.72 124.398C112.634 124.398 113.32 123.922 113.778 122.97C114.142 122.195 114.324 121.215 114.324 120.03C114.324 118.826 114.142 117.841 113.778 117.076C113.33 116.133 112.644 115.662 111.72 115.662C110.796 115.662 110.11 116.133 109.662 117.076C109.298 117.841 109.116 118.826 109.116 120.03C109.116 121.225 109.298 122.205 109.662 122.97C110.119 123.922 110.805 124.398 111.72 124.398ZM120.305 125.21C119.652 125.21 119.078 125.051 118.583 124.734C118.098 124.417 117.711 123.973 117.421 123.404C116.964 122.499 116.735 121.374 116.735 120.03C116.735 118.677 116.964 117.547 117.421 116.642C117.711 116.073 118.098 115.634 118.583 115.326C119.078 115.009 119.652 114.85 120.305 114.85C120.959 114.85 121.528 115.009 122.013 115.326C122.508 115.634 122.9 116.073 123.189 116.642C123.647 117.547 123.875 118.677 123.875 120.03C123.875 121.374 123.647 122.499 123.189 123.404C122.9 123.973 122.508 124.417 122.013 124.734C121.528 125.051 120.959 125.21 120.305 125.21ZM120.305 124.398C121.22 124.398 121.906 123.922 122.363 122.97C122.727 122.195 122.909 121.215 122.909 120.03C122.909 118.826 122.727 117.841 122.363 117.076C121.915 116.133 121.229 115.662 120.305 115.662C119.381 115.662 118.695 116.133 118.247 117.076C117.883 117.841 117.701 118.826 117.701 120.03C117.701 121.225 117.883 122.205 118.247 122.97C118.705 123.922 119.391 124.398 120.305 124.398Z" fill="#697690"/>
<path d="M106.538 212.188C106.725 212.188 106.818 212.281 106.818 212.468V212.72C106.818 212.907 106.725 213 106.538 213H100.322C100.135 213 100.042 212.907 100.042 212.72V212.664C100.042 211.983 100.159 211.409 100.392 210.942C100.635 210.466 100.947 210.065 101.33 209.738C101.722 209.411 102.259 209.038 102.94 208.618C103.005 208.571 103.248 208.427 103.668 208.184C104.163 207.904 104.55 207.661 104.83 207.456C105.11 207.251 105.343 206.999 105.53 206.7C105.717 206.392 105.81 206.033 105.81 205.622C105.81 204.997 105.6 204.516 105.18 204.18C104.76 203.844 104.251 203.676 103.654 203.676C103.075 203.676 102.595 203.797 102.212 204.04C101.829 204.283 101.386 204.703 100.882 205.3C100.817 205.384 100.737 205.426 100.644 205.426C100.597 205.426 100.541 205.403 100.476 205.356L100.238 205.174C100.154 205.099 100.112 205.025 100.112 204.95C100.112 204.903 100.135 204.847 100.182 204.782C100.677 204.157 101.19 203.681 101.722 203.354C102.263 203.027 102.898 202.864 103.626 202.864C104.233 202.864 104.774 202.981 105.25 203.214C105.726 203.438 106.095 203.76 106.356 204.18C106.627 204.591 106.762 205.057 106.762 205.58C106.762 206.131 106.645 206.607 106.412 207.008C106.188 207.4 105.903 207.727 105.558 207.988C105.213 208.24 104.746 208.539 104.158 208.884L103.458 209.304C102.87 209.668 102.422 209.967 102.114 210.2C101.806 210.424 101.549 210.699 101.344 211.026C101.139 211.343 101.017 211.731 100.98 212.188H106.538ZM111.72 213.21C111.066 213.21 110.492 213.051 109.998 212.734C109.512 212.417 109.125 211.973 108.836 211.404C108.378 210.499 108.15 209.374 108.15 208.03C108.15 206.677 108.378 205.547 108.836 204.642C109.125 204.073 109.512 203.634 109.998 203.326C110.492 203.009 111.066 202.85 111.72 202.85C112.373 202.85 112.942 203.009 113.428 203.326C113.922 203.634 114.314 204.073 114.604 204.642C115.061 205.547 115.29 206.677 115.29 208.03C115.29 209.374 115.061 210.499 114.604 211.404C114.314 211.973 113.922 212.417 113.428 212.734C112.942 213.051 112.373 213.21 111.72 213.21ZM111.72 212.398C112.634 212.398 113.32 211.922 113.778 210.97C114.142 210.195 114.324 209.215 114.324 208.03C114.324 206.826 114.142 205.841 113.778 205.076C113.33 204.133 112.644 203.662 111.72 203.662C110.796 203.662 110.11 204.133 109.662 205.076C109.298 205.841 109.116 206.826 109.116 208.03C109.116 209.225 109.298 210.205 109.662 210.97C110.119 211.922 110.805 212.398 111.72 212.398ZM120.305 213.21C119.652 213.21 119.078 213.051 118.583 212.734C118.098 212.417 117.711 211.973 117.421 211.404C116.964 210.499 116.735 209.374 116.735 208.03C116.735 206.677 116.964 205.547 117.421 204.642C117.711 204.073 118.098 203.634 118.583 203.326C119.078 203.009 119.652 202.85 120.305 202.85C120.959 202.85 121.528 203.009 122.013 203.326C122.508 203.634 122.9 204.073 123.189 204.642C123.647 205.547 123.875 206.677 123.875 208.03C123.875 209.374 123.647 210.499 123.189 211.404C122.9 211.973 122.508 212.417 122.013 212.734C121.528 213.051 120.959 213.21 120.305 213.21ZM120.305 212.398C121.22 212.398 121.906 211.922 122.363 210.97C122.727 210.195 122.909 209.215 122.909 208.03C122.909 206.826 122.727 205.841 122.363 205.076C121.915 204.133 121.229 203.662 120.305 203.662C119.381 203.662 118.695 204.133 118.247 205.076C117.883 205.841 117.701 206.826 117.701 208.03C117.701 209.225 117.883 210.205 118.247 210.97C118.705 211.922 119.391 212.398 120.305 212.398Z" fill="#697690"/>
<path d="M120.305 300.21C119.652 300.21 119.078 300.051 118.583 299.734C118.098 299.417 117.711 298.973 117.421 298.404C116.964 297.499 116.735 296.374 116.735 295.03C116.735 293.677 116.964 292.547 117.421 291.642C117.711 291.073 118.098 290.634 118.583 290.326C119.078 290.009 119.652 289.85 120.305 289.85C120.959 289.85 121.528 290.009 122.013 290.326C122.508 290.634 122.9 291.073 123.189 291.642C123.647 292.547 123.875 293.677 123.875 295.03C123.875 296.374 123.647 297.499 123.189 298.404C122.9 298.973 122.508 299.417 122.013 299.734C121.528 300.051 120.959 300.21 120.305 300.21ZM120.305 299.398C121.22 299.398 121.906 298.922 122.363 297.97C122.727 297.195 122.909 296.215 122.909 295.03C122.909 293.826 122.727 292.841 122.363 292.076C121.915 291.133 121.229 290.662 120.305 290.662C119.381 290.662 118.695 291.133 118.247 292.076C117.883 292.841 117.701 293.826 117.701 295.03C117.701 296.225 117.883 297.205 118.247 297.97C118.705 298.922 119.391 299.398 120.305 299.398Z" fill="#697690"/>
<path d="M134.5 33H493.917" stroke="#697690" stroke-opacity="0.6" stroke-dasharray="2 2"/>
<path d="M134.5 76H493.917" stroke="#697690" stroke-opacity="0.6" stroke-dasharray="2 2"/>
<path d="M134.5 120H493.917" stroke="#697690" stroke-opacity="0.6" stroke-dasharray="2 2"/>
<path d="M134.5 164H493.917" stroke="#697690" stroke-opacity="0.6" stroke-dasharray="2 2"/>
<path d="M134.5 208H493.917" stroke="#697690" stroke-opacity="0.6" stroke-dasharray="2 2"/>
<path d="M134.5 252H493.917" stroke="#697690" stroke-opacity="0.6" stroke-dasharray="2 2"/>
<path d="M134.5 295.5H493.917" stroke="#697690"/>
<path d="M174.5 203.368L264.5 110.172L354.5 161.675L444.5 53.949" stroke="#5473B5" stroke-width="3" stroke-linecap="round"/>
</g>
<defs>
<clipPath id="clip0_523_3571">
<rect width="592" height="342" fill="white"/>
</clipPath>
</defs>
</svg>
