<svg width="592" height="313" viewBox="0 0 592 313" fill="none" xmlns="http://www.w3.org/2000/svg">
<circle cx="86.0766" cy="62.4217" r="15.365" fill="#5473B5"/>
<circle cx="141.171" cy="62.4217" r="30.7303" fill="#5473B5"/>
<path d="M84.4808 138.099C83.3501 138.099 82.3688 137.843 81.5368 137.331C80.7155 136.819 80.0808 136.115 79.6328 135.219C79.1955 134.312 78.9768 133.288 78.9768 132.147C78.9768 131.006 79.1955 129.992 79.6328 129.107C80.0701 128.211 80.7048 127.507 81.5368 126.995C82.3688 126.483 83.3661 126.227 84.5288 126.227C85.2328 126.227 85.8728 126.328 86.4488 126.531C87.0248 126.723 87.6061 127.048 88.1928 127.507C88.3528 127.635 88.4328 127.779 88.4328 127.939C88.4328 128.046 88.3795 128.168 88.2728 128.307L87.9208 128.723C87.7928 128.872 87.6595 128.947 87.5208 128.947C87.4141 128.947 87.2808 128.894 87.1208 128.787C86.6408 128.414 86.1981 128.158 85.7928 128.019C85.3981 127.88 84.9715 127.811 84.5128 127.811C83.7661 127.811 83.1155 127.992 82.5608 128.355C82.0061 128.718 81.5795 129.23 81.2808 129.891C80.9821 130.542 80.8328 131.294 80.8328 132.147C80.8328 133 80.9821 133.758 81.2808 134.419C81.5795 135.08 82.0008 135.598 82.5448 135.971C83.0888 136.334 83.7235 136.515 84.4488 136.515C84.9928 136.515 85.4781 136.419 85.9048 136.227C86.3315 136.035 86.7955 135.726 87.2968 135.299C87.4355 135.182 87.5688 135.123 87.6968 135.123C87.8355 135.123 87.9688 135.198 88.0968 135.347L88.4488 135.747C88.5555 135.864 88.6088 135.987 88.6088 136.115C88.6088 136.296 88.5235 136.456 88.3528 136.595C87.7341 137.128 87.1208 137.512 86.5128 137.747C85.9155 137.982 85.2381 138.099 84.4808 138.099ZM93.678 138.083C92.8994 138.083 92.206 137.907 91.598 137.555C91.0007 137.203 90.5314 136.712 90.19 136.083C89.8487 135.443 89.678 134.712 89.678 133.891C89.678 133.07 89.8487 132.344 90.19 131.715C90.5314 131.086 91.0007 130.595 91.598 130.243C92.206 129.891 92.8994 129.715 93.678 129.715C94.446 129.715 95.134 129.891 95.742 130.243C96.35 130.595 96.8247 131.091 97.166 131.731C97.5074 132.36 97.678 133.08 97.678 133.891C97.678 134.712 97.5074 135.443 97.166 136.083C96.8247 136.712 96.35 137.203 95.742 137.555C95.134 137.907 94.446 138.083 93.678 138.083ZM93.678 136.659C94.3607 136.659 94.91 136.408 95.326 135.907C95.742 135.395 95.95 134.723 95.95 133.891C95.95 133.07 95.742 132.408 95.326 131.907C94.91 131.406 94.3607 131.155 93.678 131.155C92.9954 131.155 92.446 131.406 92.03 131.907C91.614 132.408 91.406 133.07 91.406 133.891C91.406 134.723 91.614 135.395 92.03 135.907C92.446 136.408 92.9954 136.659 93.678 136.659ZM107.637 129.715C108.48 129.715 109.13 129.955 109.589 130.435C110.048 130.904 110.277 131.539 110.277 132.339V137.283C110.277 137.454 110.229 137.592 110.133 137.699C110.037 137.795 109.898 137.843 109.717 137.843H109.141C108.97 137.843 108.832 137.795 108.725 137.699C108.629 137.592 108.581 137.454 108.581 137.283V132.851C108.581 132.328 108.464 131.918 108.229 131.619C107.994 131.32 107.637 131.171 107.157 131.171C106.666 131.171 106.277 131.336 105.989 131.667C105.712 131.998 105.573 132.424 105.573 132.947V137.283C105.573 137.454 105.525 137.592 105.429 137.699C105.333 137.795 105.194 137.843 105.013 137.843H104.437C104.266 137.843 104.128 137.795 104.021 137.699C103.925 137.592 103.877 137.454 103.877 137.283V132.851C103.877 132.328 103.76 131.918 103.525 131.619C103.301 131.32 102.949 131.171 102.469 131.171C102 131.171 101.621 131.326 101.333 131.635C101.045 131.944 100.89 132.344 100.869 132.835V137.283C100.869 137.454 100.821 137.592 100.725 137.699C100.629 137.795 100.49 137.843 100.309 137.843H99.7329C99.5622 137.843 99.4236 137.795 99.3169 137.699C99.2209 137.592 99.1729 137.454 99.1729 137.283V130.515C99.1729 130.334 99.2209 130.195 99.3169 130.099C99.4236 130.003 99.5622 129.955 99.7329 129.955H100.197C100.378 129.955 100.517 130.003 100.613 130.099C100.709 130.195 100.757 130.334 100.757 130.515V130.867C101.248 130.099 102.005 129.715 103.029 129.715C103.541 129.715 103.989 129.822 104.373 130.035C104.757 130.248 105.05 130.547 105.253 130.931C105.797 130.12 106.592 129.715 107.637 129.715ZM116.412 129.747C117.084 129.747 117.681 129.918 118.204 130.259C118.737 130.6 119.153 131.086 119.452 131.715C119.75 132.344 119.9 133.07 119.9 133.891C119.9 134.723 119.75 135.454 119.452 136.083C119.153 136.712 118.737 137.198 118.204 137.539C117.67 137.88 117.073 138.051 116.412 138.051C115.302 138.051 114.47 137.667 113.916 136.899V140.115C113.916 140.296 113.868 140.435 113.772 140.531C113.676 140.627 113.537 140.675 113.356 140.675H112.78C112.609 140.675 112.47 140.627 112.364 140.531C112.268 140.435 112.22 140.296 112.22 140.115V130.515C112.22 130.334 112.268 130.195 112.364 130.099C112.47 130.003 112.609 129.955 112.78 129.955H113.244C113.425 129.955 113.564 130.003 113.66 130.099C113.756 130.195 113.804 130.334 113.804 130.515V131.107C114.369 130.2 115.238 129.747 116.412 129.747ZM116.06 136.579C116.7 136.579 117.212 136.339 117.596 135.859C117.98 135.368 118.172 134.712 118.172 133.891C118.172 133.08 117.98 132.43 117.596 131.939C117.222 131.448 116.716 131.203 116.076 131.203C115.425 131.203 114.892 131.443 114.476 131.923C114.06 132.403 113.852 133.059 113.852 133.891C113.852 134.723 114.06 135.379 114.476 135.859C114.892 136.339 115.42 136.579 116.06 136.579ZM124.767 129.715C125.833 129.715 126.655 129.966 127.231 130.467C127.807 130.958 128.095 131.614 128.095 132.435V137.283C128.095 137.454 128.047 137.592 127.951 137.699C127.855 137.795 127.716 137.843 127.535 137.843H127.119C126.948 137.843 126.809 137.795 126.703 137.699C126.607 137.592 126.559 137.454 126.559 137.283V136.931C126.303 137.304 125.951 137.592 125.503 137.795C125.055 137.998 124.532 138.099 123.935 138.099C123.113 138.099 122.436 137.918 121.903 137.555C121.38 137.182 121.119 136.622 121.119 135.875C121.119 135.043 121.428 134.43 122.047 134.035C122.676 133.63 123.545 133.326 124.655 133.123L126.463 132.787V132.499C126.463 132.062 126.308 131.726 125.999 131.491C125.7 131.246 125.3 131.123 124.799 131.123C124.372 131.123 123.999 131.198 123.679 131.347C123.369 131.486 123.033 131.72 122.671 132.051C122.532 132.168 122.399 132.227 122.271 132.227C122.143 132.227 122.009 132.168 121.871 132.051L121.615 131.827C121.476 131.699 121.407 131.56 121.407 131.411C121.407 131.272 121.471 131.139 121.599 131.011C122.057 130.574 122.543 130.248 123.055 130.035C123.567 129.822 124.137 129.715 124.767 129.715ZM124.175 136.739C124.815 136.739 125.353 136.568 125.791 136.227C126.239 135.886 126.463 135.395 126.463 134.755V134.019L125.071 134.307C124.292 134.467 123.716 134.648 123.343 134.851C122.969 135.054 122.783 135.363 122.783 135.779C122.783 136.078 122.905 136.312 123.151 136.483C123.396 136.654 123.737 136.739 124.175 136.739ZM133.584 129.875C133.819 129.875 134.059 129.902 134.304 129.955C134.592 130.019 134.736 130.19 134.736 130.467C134.736 130.542 134.731 130.595 134.72 130.627L134.64 131.011C134.576 131.31 134.416 131.459 134.16 131.459L134.016 131.443C133.824 131.411 133.654 131.395 133.504 131.395C132.971 131.395 132.539 131.608 132.208 132.035C131.888 132.451 131.728 133.032 131.728 133.779V137.283C131.728 137.454 131.68 137.592 131.584 137.699C131.488 137.795 131.35 137.843 131.168 137.843H130.592C130.422 137.843 130.283 137.795 130.176 137.699C130.08 137.592 130.032 137.454 130.032 137.283V130.515C130.032 130.334 130.08 130.195 130.176 130.099C130.283 130.003 130.422 129.955 130.592 129.955H131.056C131.238 129.955 131.376 130.003 131.472 130.099C131.568 130.195 131.616 130.334 131.616 130.515V131.139C131.808 130.744 132.07 130.435 132.4 130.211C132.731 129.987 133.126 129.875 133.584 129.875ZM136.834 128.419C136.524 128.419 136.263 128.318 136.05 128.115C135.836 127.902 135.73 127.651 135.73 127.363C135.73 127.064 135.836 126.814 136.05 126.611C136.263 126.408 136.524 126.307 136.834 126.307C137.143 126.307 137.404 126.408 137.618 126.611C137.831 126.814 137.938 127.064 137.938 127.363C137.938 127.651 137.831 127.902 137.618 128.115C137.404 128.318 137.143 128.419 136.834 128.419ZM136.53 137.843C136.359 137.843 136.22 137.795 136.114 137.699C136.018 137.592 135.97 137.454 135.97 137.283V130.515C135.97 130.334 136.018 130.195 136.114 130.099C136.22 130.003 136.359 129.955 136.53 129.955H137.106C137.287 129.955 137.426 130.003 137.522 130.099C137.618 130.195 137.666 130.334 137.666 130.515V137.283C137.666 137.454 137.618 137.592 137.522 137.699C137.426 137.795 137.287 137.843 137.106 137.843H136.53ZM142.666 138.083C142.015 138.083 141.434 138.003 140.922 137.843C140.421 137.672 139.909 137.379 139.386 136.963C139.226 136.846 139.146 136.712 139.146 136.563C139.146 136.446 139.205 136.318 139.322 136.179L139.562 135.907C139.69 135.758 139.829 135.683 139.978 135.683C140.095 135.683 140.223 135.736 140.362 135.843C140.81 136.174 141.205 136.403 141.546 136.531C141.887 136.648 142.271 136.707 142.698 136.707C143.157 136.707 143.53 136.616 143.818 136.435C144.117 136.243 144.266 135.987 144.266 135.667C144.266 135.422 144.181 135.23 144.01 135.091C143.85 134.942 143.637 134.83 143.37 134.755C143.103 134.67 142.709 134.574 142.186 134.467C141.45 134.307 140.874 134.136 140.458 133.955C140.053 133.763 139.759 133.523 139.578 133.235C139.397 132.947 139.306 132.579 139.306 132.131C139.306 131.672 139.434 131.262 139.69 130.899C139.957 130.536 140.325 130.248 140.794 130.035C141.274 129.822 141.834 129.715 142.474 129.715C143.05 129.715 143.562 129.779 144.01 129.907C144.469 130.035 144.917 130.254 145.354 130.563C145.525 130.691 145.61 130.835 145.61 130.995C145.61 131.102 145.557 131.224 145.45 131.363L145.242 131.619C145.125 131.768 144.981 131.843 144.81 131.843C144.682 131.843 144.559 131.8 144.442 131.715C144.09 131.48 143.765 131.32 143.466 131.235C143.167 131.139 142.831 131.091 142.458 131.091C141.999 131.091 141.631 131.182 141.354 131.363C141.077 131.544 140.938 131.779 140.938 132.067C140.938 132.259 141.002 132.414 141.13 132.531C141.269 132.638 141.461 132.734 141.706 132.819C141.962 132.894 142.362 132.99 142.906 133.107C143.642 133.267 144.223 133.448 144.65 133.651C145.087 133.843 145.407 134.094 145.61 134.403C145.823 134.702 145.93 135.091 145.93 135.571C145.93 136.318 145.631 136.926 145.034 137.395C144.447 137.854 143.658 138.083 142.666 138.083ZM150.944 138.083C150.165 138.083 149.472 137.907 148.864 137.555C148.266 137.203 147.797 136.712 147.456 136.083C147.114 135.443 146.944 134.712 146.944 133.891C146.944 133.07 147.114 132.344 147.456 131.715C147.797 131.086 148.266 130.595 148.864 130.243C149.472 129.891 150.165 129.715 150.944 129.715C151.712 129.715 152.4 129.891 153.008 130.243C153.616 130.595 154.09 131.091 154.432 131.731C154.773 132.36 154.944 133.08 154.944 133.891C154.944 134.712 154.773 135.443 154.432 136.083C154.09 136.712 153.616 137.203 153.008 137.555C152.4 137.907 151.712 138.083 150.944 138.083ZM150.944 136.659C151.626 136.659 152.176 136.408 152.592 135.907C153.008 135.395 153.216 134.723 153.216 133.891C153.216 133.07 153.008 132.408 152.592 131.907C152.176 131.406 151.626 131.155 150.944 131.155C150.261 131.155 149.712 131.406 149.296 131.907C148.88 132.408 148.672 133.07 148.672 133.891C148.672 134.723 148.88 135.395 149.296 135.907C149.712 136.408 150.261 136.659 150.944 136.659ZM160.455 129.715C161.361 129.715 162.055 129.971 162.535 130.483C163.025 130.984 163.271 131.635 163.271 132.435V137.283C163.271 137.454 163.223 137.592 163.127 137.699C163.031 137.795 162.892 137.843 162.711 137.843H162.135C161.964 137.843 161.825 137.795 161.719 137.699C161.623 137.592 161.575 137.454 161.575 137.283V132.963C161.575 132.387 161.431 131.944 161.143 131.635C160.865 131.326 160.465 131.171 159.943 131.171C159.431 131.171 158.999 131.347 158.647 131.699C158.305 132.051 158.135 132.494 158.135 133.027V137.283C158.135 137.454 158.087 137.592 157.991 137.699C157.895 137.795 157.756 137.843 157.575 137.843H156.999C156.828 137.843 156.689 137.795 156.583 137.699C156.487 137.592 156.439 137.454 156.439 137.283V130.515C156.439 130.334 156.487 130.195 156.583 130.099C156.689 130.003 156.828 129.955 156.999 129.955H157.463C157.644 129.955 157.783 130.003 157.879 130.099C157.975 130.195 158.023 130.334 158.023 130.515V130.931C158.279 130.536 158.615 130.238 159.031 130.035C159.447 129.822 159.921 129.715 160.455 129.715Z" fill="#697690"/>
<circle cx="287.751" cy="70.6709" r="17.6768" fill="#5473B5"/>
<circle cx="324.309" cy="38.9677" r="22.4815" fill="#5473B5"/>
<circle cx="258.156" cy="95.4102" r="12.9466" fill="#5473B5"/>
<path d="M262.393 138.099C261.262 138.099 260.281 137.843 259.449 137.331C258.628 136.819 257.993 136.115 257.545 135.219C257.108 134.312 256.889 133.288 256.889 132.147C256.889 131.006 257.108 129.992 257.545 129.107C257.982 128.211 258.617 127.507 259.449 126.995C260.281 126.483 261.278 126.227 262.441 126.227C263.145 126.227 263.785 126.328 264.361 126.531C264.937 126.723 265.518 127.048 266.105 127.507C266.265 127.635 266.345 127.779 266.345 127.939C266.345 128.046 266.292 128.168 266.185 128.307L265.833 128.723C265.705 128.872 265.572 128.947 265.433 128.947C265.326 128.947 265.193 128.894 265.033 128.787C264.553 128.414 264.11 128.158 263.705 128.019C263.31 127.88 262.884 127.811 262.425 127.811C261.678 127.811 261.028 127.992 260.473 128.355C259.918 128.718 259.492 129.23 259.193 129.891C258.894 130.542 258.745 131.294 258.745 132.147C258.745 133 258.894 133.758 259.193 134.419C259.492 135.08 259.913 135.598 260.457 135.971C261.001 136.334 261.636 136.515 262.361 136.515C262.905 136.515 263.39 136.419 263.817 136.227C264.244 136.035 264.708 135.726 265.209 135.299C265.348 135.182 265.481 135.123 265.609 135.123C265.748 135.123 265.881 135.198 266.009 135.347L266.361 135.747C266.468 135.864 266.521 135.987 266.521 136.115C266.521 136.296 266.436 136.456 266.265 136.595C265.646 137.128 265.033 137.512 264.425 137.747C263.828 137.982 263.15 138.099 262.393 138.099ZM271.59 138.083C270.812 138.083 270.118 137.907 269.51 137.555C268.913 137.203 268.444 136.712 268.102 136.083C267.761 135.443 267.59 134.712 267.59 133.891C267.59 133.07 267.761 132.344 268.102 131.715C268.444 131.086 268.913 130.595 269.51 130.243C270.118 129.891 270.812 129.715 271.59 129.715C272.358 129.715 273.046 129.891 273.654 130.243C274.262 130.595 274.737 131.091 275.078 131.731C275.42 132.36 275.59 133.08 275.59 133.891C275.59 134.712 275.42 135.443 275.078 136.083C274.737 136.712 274.262 137.203 273.654 137.555C273.046 137.907 272.358 138.083 271.59 138.083ZM271.59 136.659C272.273 136.659 272.822 136.408 273.238 135.907C273.654 135.395 273.862 134.723 273.862 133.891C273.862 133.07 273.654 132.408 273.238 131.907C272.822 131.406 272.273 131.155 271.59 131.155C270.908 131.155 270.358 131.406 269.942 131.907C269.526 132.408 269.318 133.07 269.318 133.891C269.318 134.723 269.526 135.395 269.942 135.907C270.358 136.408 270.908 136.659 271.59 136.659ZM280.637 129.875C280.872 129.875 281.112 129.902 281.357 129.955C281.645 130.019 281.789 130.19 281.789 130.467C281.789 130.542 281.784 130.595 281.773 130.627L281.693 131.011C281.629 131.31 281.469 131.459 281.213 131.459L281.069 131.443C280.877 131.411 280.707 131.395 280.557 131.395C280.024 131.395 279.592 131.608 279.261 132.035C278.941 132.451 278.781 133.032 278.781 133.779V137.283C278.781 137.454 278.733 137.592 278.637 137.699C278.541 137.795 278.403 137.843 278.221 137.843H277.645C277.475 137.843 277.336 137.795 277.229 137.699C277.133 137.592 277.085 137.454 277.085 137.283V130.515C277.085 130.334 277.133 130.195 277.229 130.099C277.336 130.003 277.475 129.955 277.645 129.955H278.109C278.291 129.955 278.429 130.003 278.525 130.099C278.621 130.195 278.669 130.334 278.669 130.515V131.139C278.861 130.744 279.123 130.435 279.453 130.211C279.784 129.987 280.179 129.875 280.637 129.875ZM286.575 129.875C286.809 129.875 287.049 129.902 287.295 129.955C287.583 130.019 287.727 130.19 287.727 130.467C287.727 130.542 287.721 130.595 287.711 130.627L287.631 131.011C287.567 131.31 287.407 131.459 287.151 131.459L287.007 131.443C286.815 131.411 286.644 131.395 286.495 131.395C285.961 131.395 285.529 131.608 285.199 132.035C284.879 132.451 284.719 133.032 284.719 133.779V137.283C284.719 137.454 284.671 137.592 284.575 137.699C284.479 137.795 284.34 137.843 284.159 137.843H283.583C283.412 137.843 283.273 137.795 283.167 137.699C283.071 137.592 283.023 137.454 283.023 137.283V130.515C283.023 130.334 283.071 130.195 283.167 130.099C283.273 130.003 283.412 129.955 283.583 129.955H284.047C284.228 129.955 284.367 130.003 284.463 130.099C284.559 130.195 284.607 130.334 284.607 130.515V131.139C284.799 130.744 285.06 130.435 285.391 130.211C285.721 129.987 286.116 129.875 286.575 129.875ZM294.233 135.827C294.372 135.71 294.505 135.651 294.633 135.651C294.761 135.651 294.895 135.72 295.033 135.859L295.257 136.099C295.375 136.238 295.433 136.371 295.433 136.499C295.433 136.638 295.364 136.771 295.225 136.899C294.735 137.326 294.244 137.63 293.753 137.811C293.273 137.992 292.74 138.083 292.153 138.083C291.332 138.083 290.617 137.912 290.009 137.571C289.412 137.23 288.948 136.75 288.617 136.131C288.297 135.502 288.137 134.776 288.137 133.955C288.137 133.144 288.292 132.419 288.601 131.779C288.921 131.128 289.369 130.622 289.945 130.259C290.532 129.896 291.215 129.715 291.993 129.715C293.156 129.715 294.052 130.062 294.681 130.755C295.311 131.438 295.625 132.382 295.625 133.587V133.731C295.615 133.902 295.561 134.035 295.465 134.131C295.369 134.227 295.231 134.275 295.049 134.275H289.801C289.865 134.979 290.095 135.555 290.489 136.003C290.895 136.44 291.46 136.659 292.185 136.659C292.58 136.659 292.927 136.6 293.225 136.483C293.524 136.355 293.86 136.136 294.233 135.827ZM291.961 131.059C291.375 131.059 290.9 131.235 290.537 131.587C290.185 131.928 289.956 132.414 289.849 133.043H293.961C293.919 132.424 293.727 131.939 293.385 131.587C293.044 131.235 292.569 131.059 291.961 131.059ZM297.803 137.843C297.632 137.843 297.494 137.795 297.387 137.699C297.291 137.592 297.243 137.454 297.243 137.283V127.043C297.243 126.862 297.291 126.723 297.387 126.627C297.494 126.531 297.632 126.483 297.803 126.483H298.379C298.56 126.483 298.699 126.531 298.795 126.627C298.891 126.723 298.939 126.862 298.939 127.043V137.283C298.939 137.454 298.891 137.592 298.795 137.699C298.699 137.795 298.56 137.843 298.379 137.843H297.803ZM304.288 129.715C305.355 129.715 306.176 129.966 306.752 130.467C307.328 130.958 307.616 131.614 307.616 132.435V137.283C307.616 137.454 307.568 137.592 307.472 137.699C307.376 137.795 307.238 137.843 307.056 137.843H306.64C306.47 137.843 306.331 137.795 306.224 137.699C306.128 137.592 306.08 137.454 306.08 137.283V136.931C305.824 137.304 305.472 137.592 305.024 137.795C304.576 137.998 304.054 138.099 303.456 138.099C302.635 138.099 301.958 137.918 301.424 137.555C300.902 137.182 300.64 136.622 300.64 135.875C300.64 135.043 300.95 134.43 301.568 134.035C302.198 133.63 303.067 133.326 304.176 133.123L305.984 132.787V132.499C305.984 132.062 305.83 131.726 305.52 131.491C305.222 131.246 304.822 131.123 304.32 131.123C303.894 131.123 303.52 131.198 303.2 131.347C302.891 131.486 302.555 131.72 302.192 132.051C302.054 132.168 301.92 132.227 301.792 132.227C301.664 132.227 301.531 132.168 301.392 132.051L301.136 131.827C300.998 131.699 300.928 131.56 300.928 131.411C300.928 131.272 300.992 131.139 301.12 131.011C301.579 130.574 302.064 130.248 302.576 130.035C303.088 129.822 303.659 129.715 304.288 129.715ZM303.696 136.739C304.336 136.739 304.875 136.568 305.312 136.227C305.76 135.886 305.984 135.395 305.984 134.755V134.019L304.592 134.307C303.814 134.467 303.238 134.648 302.864 134.851C302.491 135.054 302.304 135.363 302.304 135.779C302.304 136.078 302.427 136.312 302.672 136.483C302.918 136.654 303.259 136.739 303.696 136.739ZM313.19 136.499C313.222 136.488 313.27 136.483 313.334 136.483C313.601 136.483 313.761 136.638 313.814 136.947L313.862 137.203C313.873 137.235 313.878 137.288 313.878 137.363C313.878 137.63 313.729 137.8 313.43 137.875C313.003 137.971 312.614 138.019 312.262 138.019C311.505 138.019 310.955 137.843 310.614 137.491C310.283 137.139 310.118 136.611 310.118 135.907V131.251H309.238C309.067 131.251 308.929 131.203 308.822 131.107C308.726 131 308.678 130.862 308.678 130.691V130.515C308.678 130.334 308.726 130.195 308.822 130.099C308.929 130.003 309.067 129.955 309.238 129.955H310.118V127.971C310.118 127.79 310.166 127.651 310.262 127.555C310.369 127.459 310.507 127.411 310.678 127.411H311.254C311.435 127.411 311.574 127.459 311.67 127.555C311.766 127.651 311.814 127.79 311.814 127.971V129.955H313.254C313.435 129.955 313.574 130.003 313.67 130.099C313.766 130.195 313.814 130.334 313.814 130.515V130.691C313.814 130.862 313.766 131 313.67 131.107C313.574 131.203 313.435 131.251 313.254 131.251H311.814V135.699C311.814 136.008 311.878 136.227 312.006 136.355C312.145 136.483 312.363 136.547 312.662 136.547C312.79 136.547 312.966 136.531 313.19 136.499ZM316.074 128.419C315.765 128.419 315.504 128.318 315.29 128.115C315.077 127.902 314.97 127.651 314.97 127.363C314.97 127.064 315.077 126.814 315.29 126.611C315.504 126.408 315.765 126.307 316.074 126.307C316.384 126.307 316.645 126.408 316.858 126.611C317.072 126.814 317.178 127.064 317.178 127.363C317.178 127.651 317.072 127.902 316.858 128.115C316.645 128.318 316.384 128.419 316.074 128.419ZM315.77 137.843C315.6 137.843 315.461 137.795 315.354 137.699C315.258 137.592 315.21 137.454 315.21 137.283V130.515C315.21 130.334 315.258 130.195 315.354 130.099C315.461 130.003 315.6 129.955 315.77 129.955H316.346C316.528 129.955 316.666 130.003 316.762 130.099C316.858 130.195 316.906 130.334 316.906 130.515V137.283C316.906 137.454 316.858 137.592 316.762 137.699C316.666 137.795 316.528 137.843 316.346 137.843H315.77ZM322.419 138.083C321.64 138.083 320.947 137.907 320.339 137.555C319.741 137.203 319.272 136.712 318.931 136.083C318.589 135.443 318.419 134.712 318.419 133.891C318.419 133.07 318.589 132.344 318.931 131.715C319.272 131.086 319.741 130.595 320.339 130.243C320.947 129.891 321.64 129.715 322.419 129.715C323.187 129.715 323.875 129.891 324.483 130.243C325.091 130.595 325.565 131.091 325.907 131.731C326.248 132.36 326.419 133.08 326.419 133.891C326.419 134.712 326.248 135.443 325.907 136.083C325.565 136.712 325.091 137.203 324.483 137.555C323.875 137.907 323.187 138.083 322.419 138.083ZM322.419 136.659C323.101 136.659 323.651 136.408 324.067 135.907C324.483 135.395 324.691 134.723 324.691 133.891C324.691 133.07 324.483 132.408 324.067 131.907C323.651 131.406 323.101 131.155 322.419 131.155C321.736 131.155 321.187 131.406 320.771 131.907C320.355 132.408 320.147 133.07 320.147 133.891C320.147 134.723 320.355 135.395 320.771 135.907C321.187 136.408 321.736 136.659 322.419 136.659ZM331.929 129.715C332.836 129.715 333.529 129.971 334.009 130.483C334.5 130.984 334.745 131.635 334.745 132.435V137.283C334.745 137.454 334.697 137.592 334.601 137.699C334.505 137.795 334.367 137.843 334.185 137.843H333.609C333.439 137.843 333.3 137.795 333.193 137.699C333.097 137.592 333.049 137.454 333.049 137.283V132.963C333.049 132.387 332.905 131.944 332.617 131.635C332.34 131.326 331.94 131.171 331.417 131.171C330.905 131.171 330.473 131.347 330.121 131.699C329.78 132.051 329.609 132.494 329.609 133.027V137.283C329.609 137.454 329.561 137.592 329.465 137.699C329.369 137.795 329.231 137.843 329.049 137.843H328.473C328.303 137.843 328.164 137.795 328.057 137.699C327.961 137.592 327.913 137.454 327.913 137.283V130.515C327.913 130.334 327.961 130.195 328.057 130.099C328.164 130.003 328.303 129.955 328.473 129.955H328.937C329.119 129.955 329.257 130.003 329.353 130.099C329.449 130.195 329.497 130.334 329.497 130.515V130.931C329.753 130.536 330.089 130.238 330.505 130.035C330.921 129.822 331.396 129.715 331.929 129.715Z" fill="#697690"/>
<circle cx="444.648" cy="74.6335" r="10.0225" fill="#5473B5"/>
<circle cx="444.648" cy="98.6785" r="10.0225" fill="#5473B5"/>
<circle cx="470.694" cy="26.5434" r="10.0225" fill="#5473B5"/>
<circle cx="470.694" cy="50.5884" r="10.0225" fill="#5473B5"/>
<circle cx="470.694" cy="74.6334" r="10.0225" fill="#5473B5"/>
<circle cx="470.694" cy="98.6785" r="10.0225" fill="#5473B5"/>
<circle cx="496.739" cy="74.6335" r="10.0225" fill="#5473B5"/>
<circle cx="496.739" cy="98.6785" r="10.0225" fill="#5473B5"/>
<path d="M430.814 137.843C430.643 137.843 430.504 137.795 430.398 137.699C430.302 137.592 430.254 137.454 430.254 137.283V127.043C430.254 126.862 430.302 126.723 430.398 126.627C430.504 126.531 430.643 126.483 430.814 126.483H434.67C435.736 126.483 436.648 126.723 437.406 127.203C438.174 127.683 438.755 128.355 439.15 129.219C439.555 130.072 439.758 131.054 439.758 132.163C439.758 133.272 439.555 134.259 439.15 135.123C438.755 135.976 438.174 136.643 437.406 137.123C436.648 137.603 435.736 137.843 434.67 137.843H430.814ZM434.398 136.307C435.486 136.307 436.339 135.95 436.958 135.235C437.587 134.51 437.902 133.486 437.902 132.163C437.902 130.84 437.587 129.822 436.958 129.107C436.339 128.382 435.486 128.019 434.398 128.019H432.078V136.307H434.398ZM442.205 128.419C441.896 128.419 441.635 128.318 441.421 128.115C441.208 127.902 441.101 127.651 441.101 127.363C441.101 127.064 441.208 126.814 441.421 126.611C441.635 126.408 441.896 126.307 442.205 126.307C442.515 126.307 442.776 126.408 442.989 126.611C443.203 126.814 443.309 127.064 443.309 127.363C443.309 127.651 443.203 127.902 442.989 128.115C442.776 128.318 442.515 128.419 442.205 128.419ZM441.901 137.843C441.731 137.843 441.592 137.795 441.485 137.699C441.389 137.592 441.341 137.454 441.341 137.283V130.515C441.341 130.334 441.389 130.195 441.485 130.099C441.592 130.003 441.731 129.955 441.901 129.955H442.477C442.659 129.955 442.797 130.003 442.893 130.099C442.989 130.195 443.037 130.334 443.037 130.515V137.283C443.037 137.454 442.989 137.592 442.893 137.699C442.797 137.795 442.659 137.843 442.477 137.843H441.901ZM448.038 138.083C447.387 138.083 446.806 138.003 446.294 137.843C445.792 137.672 445.28 137.379 444.758 136.963C444.598 136.846 444.518 136.712 444.518 136.563C444.518 136.446 444.576 136.318 444.694 136.179L444.934 135.907C445.062 135.758 445.2 135.683 445.35 135.683C445.467 135.683 445.595 135.736 445.734 135.843C446.182 136.174 446.576 136.403 446.918 136.531C447.259 136.648 447.643 136.707 448.07 136.707C448.528 136.707 448.902 136.616 449.19 136.435C449.488 136.243 449.638 135.987 449.638 135.667C449.638 135.422 449.552 135.23 449.382 135.091C449.222 134.942 449.008 134.83 448.742 134.755C448.475 134.67 448.08 134.574 447.558 134.467C446.822 134.307 446.246 134.136 445.83 133.955C445.424 133.763 445.131 133.523 444.95 133.235C444.768 132.947 444.678 132.579 444.678 132.131C444.678 131.672 444.806 131.262 445.062 130.899C445.328 130.536 445.696 130.248 446.166 130.035C446.646 129.822 447.206 129.715 447.846 129.715C448.422 129.715 448.934 129.779 449.382 129.907C449.84 130.035 450.288 130.254 450.726 130.563C450.896 130.691 450.982 130.835 450.982 130.995C450.982 131.102 450.928 131.224 450.822 131.363L450.614 131.619C450.496 131.768 450.352 131.843 450.182 131.843C450.054 131.843 449.931 131.8 449.814 131.715C449.462 131.48 449.136 131.32 448.838 131.235C448.539 131.139 448.203 131.091 447.83 131.091C447.371 131.091 447.003 131.182 446.726 131.363C446.448 131.544 446.31 131.779 446.31 132.067C446.31 132.259 446.374 132.414 446.502 132.531C446.64 132.638 446.832 132.734 447.078 132.819C447.334 132.894 447.734 132.99 448.278 133.107C449.014 133.267 449.595 133.448 450.022 133.651C450.459 133.843 450.779 134.094 450.982 134.403C451.195 134.702 451.302 135.091 451.302 135.571C451.302 136.318 451.003 136.926 450.406 137.395C449.819 137.854 449.03 138.083 448.038 138.083ZM456.54 136.499C456.572 136.488 456.62 136.483 456.684 136.483C456.951 136.483 457.111 136.638 457.164 136.947L457.212 137.203C457.223 137.235 457.228 137.288 457.228 137.363C457.228 137.63 457.079 137.8 456.78 137.875C456.353 137.971 455.964 138.019 455.612 138.019C454.855 138.019 454.305 137.843 453.964 137.491C453.633 137.139 453.468 136.611 453.468 135.907V131.251H452.588C452.417 131.251 452.279 131.203 452.172 131.107C452.076 131 452.028 130.862 452.028 130.691V130.515C452.028 130.334 452.076 130.195 452.172 130.099C452.279 130.003 452.417 129.955 452.588 129.955H453.468V127.971C453.468 127.79 453.516 127.651 453.612 127.555C453.719 127.459 453.857 127.411 454.028 127.411H454.604C454.785 127.411 454.924 127.459 455.02 127.555C455.116 127.651 455.164 127.79 455.164 127.971V129.955H456.604C456.785 129.955 456.924 130.003 457.02 130.099C457.116 130.195 457.164 130.334 457.164 130.515V130.691C457.164 130.862 457.116 131 457.02 131.107C456.924 131.203 456.785 131.251 456.604 131.251H455.164V135.699C455.164 136.008 455.228 136.227 455.356 136.355C455.495 136.483 455.713 136.547 456.012 136.547C456.14 136.547 456.316 136.531 456.54 136.499ZM462.112 129.875C462.347 129.875 462.587 129.902 462.832 129.955C463.12 130.019 463.264 130.19 463.264 130.467C463.264 130.542 463.259 130.595 463.248 130.627L463.168 131.011C463.104 131.31 462.944 131.459 462.688 131.459L462.544 131.443C462.352 131.411 462.181 131.395 462.032 131.395C461.499 131.395 461.067 131.608 460.736 132.035C460.416 132.451 460.256 133.032 460.256 133.779V137.283C460.256 137.454 460.208 137.592 460.112 137.699C460.016 137.795 459.877 137.843 459.696 137.843H459.12C458.949 137.843 458.811 137.795 458.704 137.699C458.608 137.592 458.56 137.454 458.56 137.283V130.515C458.56 130.334 458.608 130.195 458.704 130.099C458.811 130.003 458.949 129.955 459.12 129.955H459.584C459.765 129.955 459.904 130.003 460 130.099C460.096 130.195 460.144 130.334 460.144 130.515V131.139C460.336 130.744 460.597 130.435 460.928 130.211C461.259 129.987 461.653 129.875 462.112 129.875ZM465.362 128.419C465.052 128.419 464.791 128.318 464.578 128.115C464.364 127.902 464.258 127.651 464.258 127.363C464.258 127.064 464.364 126.814 464.578 126.611C464.791 126.408 465.052 126.307 465.362 126.307C465.671 126.307 465.932 126.408 466.146 126.611C466.359 126.814 466.466 127.064 466.466 127.363C466.466 127.651 466.359 127.902 466.146 128.115C465.932 128.318 465.671 128.419 465.362 128.419ZM465.058 137.843C464.887 137.843 464.748 137.795 464.642 137.699C464.546 137.592 464.498 137.454 464.498 137.283V130.515C464.498 130.334 464.546 130.195 464.642 130.099C464.748 130.003 464.887 129.955 465.058 129.955H465.634C465.815 129.955 465.954 130.003 466.05 130.099C466.146 130.195 466.194 130.334 466.194 130.515V137.283C466.194 137.454 466.146 137.592 466.05 137.699C465.954 137.795 465.815 137.843 465.634 137.843H465.058ZM472.346 129.747C473.018 129.747 473.615 129.918 474.138 130.259C474.671 130.6 475.087 131.086 475.386 131.715C475.685 132.344 475.834 133.07 475.834 133.891C475.834 134.723 475.685 135.454 475.386 136.083C475.087 136.712 474.671 137.198 474.138 137.539C473.605 137.88 473.007 138.051 472.346 138.051C471.162 138.051 470.293 137.608 469.738 136.723V137.283C469.738 137.454 469.69 137.592 469.594 137.699C469.498 137.795 469.359 137.843 469.178 137.843H468.714C468.543 137.843 468.405 137.795 468.298 137.699C468.202 137.592 468.154 137.454 468.154 137.283V127.043C468.154 126.862 468.202 126.723 468.298 126.627C468.405 126.531 468.543 126.483 468.714 126.483H469.29C469.471 126.483 469.61 126.531 469.706 126.627C469.802 126.723 469.85 126.862 469.85 127.043V130.947C470.415 130.147 471.247 129.747 472.346 129.747ZM471.994 136.579C472.634 136.579 473.146 136.339 473.53 135.859C473.914 135.368 474.106 134.712 474.106 133.891C474.106 133.08 473.914 132.43 473.53 131.939C473.157 131.448 472.65 131.203 472.01 131.203C471.359 131.203 470.826 131.448 470.41 131.939C469.994 132.419 469.786 133.07 469.786 133.891C469.786 134.734 469.994 135.395 470.41 135.875C470.826 136.344 471.354 136.579 471.994 136.579ZM482.381 130.515C482.381 130.334 482.429 130.195 482.525 130.099C482.631 130.003 482.77 129.955 482.941 129.955H483.517C483.698 129.955 483.837 130.003 483.933 130.099C484.029 130.195 484.077 130.334 484.077 130.515V137.283C484.077 137.454 484.029 137.592 483.933 137.699C483.837 137.795 483.698 137.843 483.517 137.843H483.085C482.914 137.843 482.775 137.795 482.669 137.699C482.573 137.592 482.525 137.454 482.525 137.283V136.915C482.311 137.278 482.002 137.566 481.597 137.779C481.191 137.982 480.711 138.083 480.157 138.083C479.218 138.083 478.519 137.854 478.061 137.395C477.602 136.926 477.373 136.307 477.373 135.539V130.515C477.373 130.334 477.421 130.195 477.517 130.099C477.623 130.003 477.762 129.955 477.933 129.955H478.509C478.69 129.955 478.829 130.003 478.925 130.099C479.021 130.195 479.069 130.334 479.069 130.515V135.091C479.069 135.582 479.191 135.96 479.437 136.227C479.693 136.483 480.061 136.611 480.541 136.611C481.095 136.611 481.538 136.451 481.869 136.131C482.21 135.811 482.381 135.347 482.381 134.739V130.515ZM489.837 136.499C489.869 136.488 489.917 136.483 489.981 136.483C490.248 136.483 490.408 136.638 490.461 136.947L490.509 137.203C490.52 137.235 490.525 137.288 490.525 137.363C490.525 137.63 490.376 137.8 490.077 137.875C489.65 137.971 489.261 138.019 488.909 138.019C488.152 138.019 487.602 137.843 487.261 137.491C486.93 137.139 486.765 136.611 486.765 135.907V131.251H485.885C485.714 131.251 485.576 131.203 485.469 131.107C485.373 131 485.325 130.862 485.325 130.691V130.515C485.325 130.334 485.373 130.195 485.469 130.099C485.576 130.003 485.714 129.955 485.885 129.955H486.765V127.971C486.765 127.79 486.813 127.651 486.909 127.555C487.016 127.459 487.154 127.411 487.325 127.411H487.901C488.082 127.411 488.221 127.459 488.317 127.555C488.413 127.651 488.461 127.79 488.461 127.971V129.955H489.901C490.082 129.955 490.221 130.003 490.317 130.099C490.413 130.195 490.461 130.334 490.461 130.515V130.691C490.461 130.862 490.413 131 490.317 131.107C490.221 131.203 490.082 131.251 489.901 131.251H488.461V135.699C488.461 136.008 488.525 136.227 488.653 136.355C488.792 136.483 489.01 136.547 489.309 136.547C489.437 136.547 489.613 136.531 489.837 136.499ZM492.721 128.419C492.412 128.419 492.15 128.318 491.937 128.115C491.724 127.902 491.617 127.651 491.617 127.363C491.617 127.064 491.724 126.814 491.937 126.611C492.15 126.408 492.412 126.307 492.721 126.307C493.03 126.307 493.292 126.408 493.505 126.611C493.718 126.814 493.825 127.064 493.825 127.363C493.825 127.651 493.718 127.902 493.505 128.115C493.292 128.318 493.03 128.419 492.721 128.419ZM492.417 137.843C492.246 137.843 492.108 137.795 492.001 137.699C491.905 137.592 491.857 137.454 491.857 137.283V130.515C491.857 130.334 491.905 130.195 492.001 130.099C492.108 130.003 492.246 129.955 492.417 129.955H492.993C493.174 129.955 493.313 130.003 493.409 130.099C493.505 130.195 493.553 130.334 493.553 130.515V137.283C493.553 137.454 493.505 137.592 493.409 137.699C493.313 137.795 493.174 137.843 492.993 137.843H492.417ZM499.065 138.083C498.287 138.083 497.593 137.907 496.985 137.555C496.388 137.203 495.919 136.712 495.577 136.083C495.236 135.443 495.065 134.712 495.065 133.891C495.065 133.07 495.236 132.344 495.577 131.715C495.919 131.086 496.388 130.595 496.985 130.243C497.593 129.891 498.287 129.715 499.065 129.715C499.833 129.715 500.521 129.891 501.129 130.243C501.737 130.595 502.212 131.091 502.553 131.731C502.895 132.36 503.065 133.08 503.065 133.891C503.065 134.712 502.895 135.443 502.553 136.083C502.212 136.712 501.737 137.203 501.129 137.555C500.521 137.907 499.833 138.083 499.065 138.083ZM499.065 136.659C499.748 136.659 500.297 136.408 500.713 135.907C501.129 135.395 501.337 134.723 501.337 133.891C501.337 133.07 501.129 132.408 500.713 131.907C500.297 131.406 499.748 131.155 499.065 131.155C498.383 131.155 497.833 131.406 497.417 131.907C497.001 132.408 496.793 133.07 496.793 133.891C496.793 134.723 497.001 135.395 497.417 135.907C497.833 136.408 498.383 136.659 499.065 136.659ZM508.576 129.715C509.483 129.715 510.176 129.971 510.656 130.483C511.147 130.984 511.392 131.635 511.392 132.435V137.283C511.392 137.454 511.344 137.592 511.248 137.699C511.152 137.795 511.013 137.843 510.832 137.843H510.256C510.085 137.843 509.947 137.795 509.84 137.699C509.744 137.592 509.696 137.454 509.696 137.283V132.963C509.696 132.387 509.552 131.944 509.264 131.635C508.987 131.326 508.587 131.171 508.064 131.171C507.552 131.171 507.12 131.347 506.768 131.699C506.427 132.051 506.256 132.494 506.256 133.027V137.283C506.256 137.454 506.208 137.592 506.112 137.699C506.016 137.795 505.877 137.843 505.696 137.843H505.12C504.949 137.843 504.811 137.795 504.704 137.699C504.608 137.592 504.56 137.454 504.56 137.283V130.515C504.56 130.334 504.608 130.195 504.704 130.099C504.811 130.003 504.949 129.955 505.12 129.955H505.584C505.765 129.955 505.904 130.003 506 130.099C506.096 130.195 506.144 130.334 506.144 130.515V130.931C506.4 130.536 506.736 130.238 507.152 130.035C507.568 129.822 508.043 129.715 508.576 129.715Z" fill="#697690"/>
<circle cx="65.9705" cy="233.119" r="5.78493" fill="#5473B5"/>
<circle cx="83.7047" cy="225.216" r="5.78493" fill="#5473B5"/>
<circle cx="101.439" cy="217.312" r="5.78493" fill="#5473B5"/>
<circle cx="119.173" cy="225.216" r="5.78493" fill="#5473B5"/>
<circle cx="136.908" cy="217.312" r="5.78493" fill="#5473B5"/>
<circle cx="154.642" cy="209.41" r="5.78493" fill="#5473B5"/>
<path d="M59.7707 288.686C59.6 288.686 59.4613 288.638 59.3547 288.542C59.2587 288.436 59.2107 288.297 59.2107 288.126V278.878H56.2987C56.128 278.878 55.9893 278.83 55.8827 278.734C55.7867 278.628 55.7387 278.489 55.7387 278.318V277.886C55.7387 277.705 55.7867 277.566 55.8827 277.47C55.9893 277.374 56.128 277.326 56.2987 277.326H63.9307C64.112 277.326 64.2507 277.374 64.3467 277.47C64.4427 277.566 64.4907 277.705 64.4907 277.886V278.318C64.4907 278.489 64.4427 278.628 64.3467 278.734C64.2507 278.83 64.112 278.878 63.9307 278.878H61.0347V288.126C61.0347 288.297 60.9867 288.436 60.8907 288.542C60.7947 288.638 60.656 288.686 60.4747 288.686H59.7707ZM68.178 280.718C68.4127 280.718 68.6527 280.745 68.898 280.798C69.186 280.862 69.33 281.033 69.33 281.31C69.33 281.385 69.3247 281.438 69.314 281.47L69.234 281.854C69.17 282.153 69.01 282.302 68.754 282.302L68.61 282.286C68.418 282.254 68.2474 282.238 68.098 282.238C67.5647 282.238 67.1327 282.452 66.802 282.878C66.482 283.294 66.322 283.876 66.322 284.622V288.126C66.322 288.297 66.274 288.436 66.178 288.542C66.082 288.638 65.9434 288.686 65.762 288.686H65.186C65.0154 288.686 64.8767 288.638 64.77 288.542C64.674 288.436 64.626 288.297 64.626 288.126V281.358C64.626 281.177 64.674 281.038 64.77 280.942C64.8767 280.846 65.0154 280.798 65.186 280.798H65.65C65.8314 280.798 65.97 280.846 66.066 280.942C66.162 281.038 66.21 281.177 66.21 281.358V281.982C66.402 281.588 66.6634 281.278 66.994 281.054C67.3247 280.83 67.7194 280.718 68.178 280.718ZM75.8365 286.67C75.9752 286.553 76.1085 286.494 76.2365 286.494C76.3645 286.494 76.4979 286.564 76.6365 286.702L76.8605 286.942C76.9779 287.081 77.0365 287.214 77.0365 287.342C77.0365 287.481 76.9672 287.614 76.8285 287.742C76.3379 288.169 75.8472 288.473 75.3565 288.654C74.8765 288.836 74.3432 288.926 73.7565 288.926C72.9352 288.926 72.2205 288.756 71.6125 288.414C71.0152 288.073 70.5512 287.593 70.2205 286.974C69.9005 286.345 69.7405 285.62 69.7405 284.798C69.7405 283.988 69.8952 283.262 70.2045 282.622C70.5245 281.972 70.9725 281.465 71.5485 281.102C72.1352 280.74 72.8179 280.558 73.5965 280.558C74.7592 280.558 75.6552 280.905 76.2845 281.598C76.9139 282.281 77.2285 283.225 77.2285 284.43V284.574C77.2179 284.745 77.1645 284.878 77.0685 284.974C76.9725 285.07 76.8339 285.118 76.6525 285.118H71.4045C71.4685 285.822 71.6979 286.398 72.0925 286.846C72.4979 287.284 73.0632 287.502 73.7885 287.502C74.1832 287.502 74.5299 287.444 74.8285 287.326C75.1272 287.198 75.4632 286.98 75.8365 286.67ZM73.5645 281.902C72.9779 281.902 72.5032 282.078 72.1405 282.43C71.7885 282.772 71.5592 283.257 71.4525 283.886H75.5645C75.5219 283.268 75.3299 282.782 74.9885 282.43C74.6472 282.078 74.1725 281.902 73.5645 281.902ZM82.7983 280.558C83.705 280.558 84.3983 280.814 84.8783 281.326C85.369 281.828 85.6143 282.478 85.6143 283.278V288.126C85.6143 288.297 85.5663 288.436 85.4703 288.542C85.3743 288.638 85.2356 288.686 85.0543 288.686H84.4783C84.3076 288.686 84.169 288.638 84.0623 288.542C83.9663 288.436 83.9183 288.297 83.9183 288.126V283.806C83.9183 283.23 83.7743 282.788 83.4863 282.478C83.209 282.169 82.809 282.014 82.2863 282.014C81.7743 282.014 81.3423 282.19 80.9903 282.542C80.649 282.894 80.4783 283.337 80.4783 283.87V288.126C80.4783 288.297 80.4303 288.436 80.3343 288.542C80.2383 288.638 80.0996 288.686 79.9183 288.686H79.3423C79.1716 288.686 79.033 288.638 78.9263 288.542C78.8303 288.436 78.7823 288.297 78.7823 288.126V281.358C78.7823 281.177 78.8303 281.038 78.9263 280.942C79.033 280.846 79.1716 280.798 79.3423 280.798H79.8063C79.9876 280.798 80.1263 280.846 80.2223 280.942C80.3183 281.038 80.3663 281.177 80.3663 281.358V281.774C80.6223 281.38 80.9583 281.081 81.3743 280.878C81.7903 280.665 82.265 280.558 82.7983 280.558ZM93.1155 277.87C93.1155 277.689 93.1635 277.55 93.2595 277.454C93.3662 277.358 93.5049 277.31 93.6755 277.31H94.2515C94.4329 277.31 94.5715 277.358 94.6675 277.454C94.7635 277.55 94.8115 277.689 94.8115 277.87V288.126C94.8115 288.297 94.7635 288.436 94.6675 288.542C94.5715 288.638 94.4329 288.686 94.2515 288.686H93.7875C93.6169 288.686 93.4782 288.638 93.3715 288.542C93.2755 288.436 93.2275 288.297 93.2275 288.126V287.566C92.6729 288.462 91.8035 288.91 90.6195 288.91C89.9582 288.91 89.3609 288.74 88.8275 288.398C88.3049 288.057 87.8942 287.572 87.5955 286.942C87.2969 286.313 87.1475 285.582 87.1475 284.75C87.1475 283.929 87.2969 283.204 87.5955 282.574C87.9049 281.945 88.3262 281.46 88.8595 281.118C89.3929 280.777 89.9902 280.606 90.6515 280.606C91.7395 280.606 92.5609 280.985 93.1155 281.742V277.87ZM90.9715 287.454C91.6222 287.454 92.1555 287.214 92.5715 286.734C92.9875 286.244 93.1955 285.582 93.1955 284.75C93.1955 283.918 92.9875 283.262 92.5715 282.782C92.1555 282.302 91.6222 282.062 90.9715 282.062C90.3422 282.062 89.8355 282.308 89.4515 282.798C89.0675 283.289 88.8755 283.94 88.8755 284.75C88.8755 285.572 89.0622 286.228 89.4355 286.718C89.8195 287.209 90.3315 287.454 90.9715 287.454ZM103.912 288.926C103.134 288.926 102.44 288.75 101.832 288.398C101.235 288.046 100.766 287.556 100.424 286.926C100.083 286.286 99.9124 285.556 99.9124 284.734C99.9124 283.913 100.083 283.188 100.424 282.558C100.766 281.929 101.235 281.438 101.832 281.086C102.44 280.734 103.134 280.558 103.912 280.558C104.68 280.558 105.368 280.734 105.976 281.086C106.584 281.438 107.059 281.934 107.4 282.574C107.742 283.204 107.912 283.924 107.912 284.734C107.912 285.556 107.742 286.286 107.4 286.926C107.059 287.556 106.584 288.046 105.976 288.398C105.368 288.75 104.68 288.926 103.912 288.926ZM103.912 287.502C104.595 287.502 105.144 287.252 105.56 286.75C105.976 286.238 106.184 285.566 106.184 284.734C106.184 283.913 105.976 283.252 105.56 282.75C105.144 282.249 104.595 281.998 103.912 281.998C103.23 281.998 102.68 282.249 102.264 282.75C101.848 283.252 101.64 283.913 101.64 284.734C101.64 285.566 101.848 286.238 102.264 286.75C102.68 287.252 103.23 287.502 103.912 287.502ZM114.114 281.262C114.21 280.953 114.418 280.798 114.738 280.798H115.33C115.661 280.798 115.826 280.932 115.826 281.198C115.826 281.273 115.81 281.353 115.778 281.438L113.458 288.238C113.362 288.537 113.149 288.686 112.818 288.686H111.682C111.351 288.686 111.138 288.537 111.042 288.238L108.722 281.438C108.69 281.353 108.674 281.273 108.674 281.198C108.674 280.932 108.839 280.798 109.17 280.798H109.81C110.13 280.798 110.338 280.953 110.434 281.262L111.17 283.55C111.65 285.086 112.018 286.334 112.274 287.294C112.615 286.025 112.983 284.777 113.378 283.55L114.114 281.262ZM122.712 286.67C122.85 286.553 122.984 286.494 123.112 286.494C123.24 286.494 123.373 286.564 123.512 286.702L123.736 286.942C123.853 287.081 123.912 287.214 123.912 287.342C123.912 287.481 123.842 287.614 123.704 287.742C123.213 288.169 122.722 288.473 122.232 288.654C121.752 288.836 121.218 288.926 120.632 288.926C119.81 288.926 119.096 288.756 118.488 288.414C117.89 288.073 117.426 287.593 117.096 286.974C116.776 286.345 116.616 285.62 116.616 284.798C116.616 283.988 116.77 283.262 117.08 282.622C117.4 281.972 117.848 281.465 118.424 281.102C119.01 280.74 119.693 280.558 120.472 280.558C121.634 280.558 122.53 280.905 123.16 281.598C123.789 282.281 124.104 283.225 124.104 284.43V284.574C124.093 284.745 124.04 284.878 123.944 284.974C123.848 285.07 123.709 285.118 123.528 285.118H118.28C118.344 285.822 118.573 286.398 118.968 286.846C119.373 287.284 119.938 287.502 120.664 287.502C121.058 287.502 121.405 287.444 121.704 287.326C122.002 287.198 122.338 286.98 122.712 286.67ZM120.44 281.902C119.853 281.902 119.378 282.078 119.016 282.43C118.664 282.772 118.434 283.257 118.328 283.886H122.44C122.397 283.268 122.205 282.782 121.864 282.43C121.522 282.078 121.048 281.902 120.44 281.902ZM129.209 280.718C129.444 280.718 129.684 280.745 129.929 280.798C130.217 280.862 130.361 281.033 130.361 281.31C130.361 281.385 130.356 281.438 130.345 281.47L130.265 281.854C130.201 282.153 130.041 282.302 129.785 282.302L129.641 282.286C129.449 282.254 129.279 282.238 129.129 282.238C128.596 282.238 128.164 282.452 127.833 282.878C127.513 283.294 127.353 283.876 127.353 284.622V288.126C127.353 288.297 127.305 288.436 127.209 288.542C127.113 288.638 126.975 288.686 126.793 288.686H126.217C126.047 288.686 125.908 288.638 125.801 288.542C125.705 288.436 125.657 288.297 125.657 288.126V281.358C125.657 281.177 125.705 281.038 125.801 280.942C125.908 280.846 126.047 280.798 126.217 280.798H126.681C126.863 280.798 127.001 280.846 127.097 280.942C127.193 281.038 127.241 281.177 127.241 281.358V281.982C127.433 281.588 127.695 281.278 128.025 281.054C128.356 280.83 128.751 280.718 129.209 280.718ZM138.981 287.342C139.013 287.332 139.061 287.326 139.125 287.326C139.392 287.326 139.552 287.481 139.605 287.79L139.653 288.046C139.664 288.078 139.669 288.132 139.669 288.206C139.669 288.473 139.52 288.644 139.221 288.718C138.794 288.814 138.405 288.862 138.053 288.862C137.296 288.862 136.746 288.686 136.405 288.334C136.074 287.982 135.909 287.454 135.909 286.75V282.094H135.029C134.858 282.094 134.72 282.046 134.613 281.95C134.517 281.844 134.469 281.705 134.469 281.534V281.358C134.469 281.177 134.517 281.038 134.613 280.942C134.72 280.846 134.858 280.798 135.029 280.798H135.909V278.814C135.909 278.633 135.957 278.494 136.053 278.398C136.16 278.302 136.298 278.254 136.469 278.254H137.045C137.226 278.254 137.365 278.302 137.461 278.398C137.557 278.494 137.605 278.633 137.605 278.814V280.798H139.045C139.226 280.798 139.365 280.846 139.461 280.942C139.557 281.038 139.605 281.177 139.605 281.358V281.534C139.605 281.705 139.557 281.844 139.461 281.95C139.365 282.046 139.226 282.094 139.045 282.094H137.605V286.542C137.605 286.852 137.669 287.07 137.797 287.198C137.936 287.326 138.154 287.39 138.453 287.39C138.581 287.39 138.757 287.374 138.981 287.342ZM141.865 279.262C141.556 279.262 141.294 279.161 141.081 278.958C140.868 278.745 140.761 278.494 140.761 278.206C140.761 277.908 140.868 277.657 141.081 277.454C141.294 277.252 141.556 277.15 141.865 277.15C142.174 277.15 142.436 277.252 142.649 277.454C142.862 277.657 142.969 277.908 142.969 278.206C142.969 278.494 142.862 278.745 142.649 278.958C142.436 279.161 142.174 279.262 141.865 279.262ZM141.561 288.686C141.39 288.686 141.252 288.638 141.145 288.542C141.049 288.436 141.001 288.297 141.001 288.126V281.358C141.001 281.177 141.049 281.038 141.145 280.942C141.252 280.846 141.39 280.798 141.561 280.798H142.137C142.318 280.798 142.457 280.846 142.553 280.942C142.649 281.038 142.697 281.177 142.697 281.358V288.126C142.697 288.297 142.649 288.436 142.553 288.542C142.457 288.638 142.318 288.686 142.137 288.686H141.561ZM153.121 280.558C153.964 280.558 154.615 280.798 155.073 281.278C155.532 281.748 155.761 282.382 155.761 283.182V288.126C155.761 288.297 155.713 288.436 155.617 288.542C155.521 288.638 155.383 288.686 155.201 288.686H154.625C154.455 288.686 154.316 288.638 154.209 288.542C154.113 288.436 154.065 288.297 154.065 288.126V283.694C154.065 283.172 153.948 282.761 153.713 282.462C153.479 282.164 153.121 282.014 152.641 282.014C152.151 282.014 151.761 282.18 151.473 282.51C151.196 282.841 151.057 283.268 151.057 283.79V288.126C151.057 288.297 151.009 288.436 150.913 288.542C150.817 288.638 150.679 288.686 150.497 288.686H149.921C149.751 288.686 149.612 288.638 149.505 288.542C149.409 288.436 149.361 288.297 149.361 288.126V283.694C149.361 283.172 149.244 282.761 149.009 282.462C148.785 282.164 148.433 282.014 147.953 282.014C147.484 282.014 147.105 282.169 146.817 282.478C146.529 282.788 146.375 283.188 146.353 283.678V288.126C146.353 288.297 146.305 288.436 146.209 288.542C146.113 288.638 145.975 288.686 145.793 288.686H145.217C145.047 288.686 144.908 288.638 144.801 288.542C144.705 288.436 144.657 288.297 144.657 288.126V281.358C144.657 281.177 144.705 281.038 144.801 280.942C144.908 280.846 145.047 280.798 145.217 280.798H145.681C145.863 280.798 146.001 280.846 146.097 280.942C146.193 281.038 146.241 281.177 146.241 281.358V281.71C146.732 280.942 147.489 280.558 148.513 280.558C149.025 280.558 149.473 280.665 149.857 280.878C150.241 281.092 150.535 281.39 150.737 281.774C151.281 280.964 152.076 280.558 153.121 280.558ZM163.352 286.67C163.491 286.553 163.624 286.494 163.752 286.494C163.88 286.494 164.013 286.564 164.152 286.702L164.376 286.942C164.493 287.081 164.552 287.214 164.552 287.342C164.552 287.481 164.483 287.614 164.344 287.742C163.853 288.169 163.363 288.473 162.872 288.654C162.392 288.836 161.859 288.926 161.272 288.926C160.451 288.926 159.736 288.756 159.128 288.414C158.531 288.073 158.067 287.593 157.736 286.974C157.416 286.345 157.256 285.62 157.256 284.798C157.256 283.988 157.411 283.262 157.72 282.622C158.04 281.972 158.488 281.465 159.064 281.102C159.651 280.74 160.333 280.558 161.112 280.558C162.275 280.558 163.171 280.905 163.8 281.598C164.429 282.281 164.744 283.225 164.744 284.43V284.574C164.733 284.745 164.68 284.878 164.584 284.974C164.488 285.07 164.349 285.118 164.168 285.118H158.92C158.984 285.822 159.213 286.398 159.608 286.846C160.013 287.284 160.579 287.502 161.304 287.502C161.699 287.502 162.045 287.444 162.344 287.326C162.643 287.198 162.979 286.98 163.352 286.67ZM161.08 281.902C160.493 281.902 160.019 282.078 159.656 282.43C159.304 282.772 159.075 283.257 158.968 283.886H163.08C163.037 283.268 162.845 282.782 162.504 282.43C162.163 282.078 161.688 281.902 161.08 281.902Z" fill="#697690"/>
<circle cx="296" cy="221.265" r="34.0684" stroke="#5473B5" stroke-width="2.57108"/>
<circle cx="288.86" cy="231.472" r="17.6768" fill="#5473B5"/>
<path d="M246.362 288.686C246.192 288.686 246.053 288.638 245.946 288.542C245.85 288.436 245.802 288.297 245.802 288.126V277.886C245.802 277.705 245.85 277.566 245.946 277.47C246.053 277.374 246.192 277.326 246.362 277.326H250.954C252.085 277.326 252.986 277.641 253.658 278.27C254.33 278.889 254.666 279.737 254.666 280.814C254.666 281.892 254.33 282.74 253.658 283.358C252.986 283.977 252.085 284.286 250.954 284.286H247.626V288.126C247.626 288.297 247.578 288.436 247.482 288.542C247.386 288.638 247.248 288.686 247.066 288.686H246.362ZM250.666 282.766C251.349 282.766 251.882 282.601 252.266 282.27C252.661 281.929 252.858 281.444 252.858 280.814C252.858 280.174 252.661 279.689 252.266 279.358C251.882 279.017 251.349 278.846 250.666 278.846H247.626V282.766H250.666ZM259.296 280.558C260.363 280.558 261.184 280.809 261.76 281.31C262.336 281.801 262.624 282.457 262.624 283.278V288.126C262.624 288.297 262.576 288.436 262.48 288.542C262.384 288.638 262.245 288.686 262.064 288.686H261.648C261.477 288.686 261.339 288.638 261.232 288.542C261.136 288.436 261.088 288.297 261.088 288.126V287.774C260.832 288.148 260.48 288.436 260.032 288.638C259.584 288.841 259.061 288.942 258.464 288.942C257.643 288.942 256.965 288.761 256.432 288.398C255.909 288.025 255.648 287.465 255.648 286.718C255.648 285.886 255.957 285.273 256.576 284.878C257.205 284.473 258.075 284.169 259.184 283.966L260.992 283.63V283.342C260.992 282.905 260.837 282.569 260.528 282.334C260.229 282.089 259.829 281.966 259.328 281.966C258.901 281.966 258.528 282.041 258.208 282.19C257.899 282.329 257.563 282.564 257.2 282.894C257.061 283.012 256.928 283.07 256.8 283.07C256.672 283.07 256.539 283.012 256.4 282.894L256.144 282.67C256.005 282.542 255.936 282.404 255.936 282.254C255.936 282.116 256 281.982 256.128 281.854C256.587 281.417 257.072 281.092 257.584 280.878C258.096 280.665 258.667 280.558 259.296 280.558ZM258.704 287.582C259.344 287.582 259.883 287.412 260.32 287.07C260.768 286.729 260.992 286.238 260.992 285.598V284.862L259.6 285.15C258.821 285.31 258.245 285.492 257.872 285.694C257.499 285.897 257.312 286.206 257.312 286.622C257.312 286.921 257.435 287.156 257.68 287.326C257.925 287.497 258.267 287.582 258.704 287.582ZM268.114 280.718C268.348 280.718 268.588 280.745 268.834 280.798C269.122 280.862 269.266 281.033 269.266 281.31C269.266 281.385 269.26 281.438 269.25 281.47L269.17 281.854C269.106 282.153 268.946 282.302 268.69 282.302L268.546 282.286C268.354 282.254 268.183 282.238 268.034 282.238C267.5 282.238 267.068 282.452 266.738 282.878C266.418 283.294 266.258 283.876 266.258 284.622V288.126C266.258 288.297 266.21 288.436 266.114 288.542C266.018 288.638 265.879 288.686 265.698 288.686H265.122C264.951 288.686 264.812 288.638 264.706 288.542C264.61 288.436 264.562 288.297 264.562 288.126V281.358C264.562 281.177 264.61 281.038 264.706 280.942C264.812 280.846 264.951 280.798 265.122 280.798H265.586C265.767 280.798 265.906 280.846 266.002 280.942C266.098 281.038 266.146 281.177 266.146 281.358V281.982C266.338 281.588 266.599 281.278 266.93 281.054C267.26 280.83 267.655 280.718 268.114 280.718ZM274.495 287.342C274.527 287.332 274.575 287.326 274.639 287.326C274.905 287.326 275.065 287.481 275.119 287.79L275.167 288.046C275.177 288.078 275.183 288.132 275.183 288.206C275.183 288.473 275.033 288.644 274.735 288.718C274.308 288.814 273.919 288.862 273.567 288.862C272.809 288.862 272.26 288.686 271.919 288.334C271.588 287.982 271.423 287.454 271.423 286.75V282.094H270.543C270.372 282.094 270.233 282.046 270.127 281.95C270.031 281.844 269.983 281.705 269.983 281.534V281.358C269.983 281.177 270.031 281.038 270.127 280.942C270.233 280.846 270.372 280.798 270.543 280.798H271.423V278.814C271.423 278.633 271.471 278.494 271.567 278.398C271.673 278.302 271.812 278.254 271.983 278.254H272.559C272.74 278.254 272.879 278.302 272.975 278.398C273.071 278.494 273.119 278.633 273.119 278.814V280.798H274.559C274.74 280.798 274.879 280.846 274.975 280.942C275.071 281.038 275.119 281.177 275.119 281.358V281.534C275.119 281.705 275.071 281.844 274.975 281.95C274.879 282.046 274.74 282.094 274.559 282.094H273.119V286.542C273.119 286.852 273.183 287.07 273.311 287.198C273.449 287.326 273.668 287.39 273.967 287.39C274.095 287.39 274.271 287.374 274.495 287.342ZM279.68 288.926C279.029 288.926 278.448 288.846 277.936 288.686C277.435 288.516 276.923 288.222 276.4 287.806C276.24 287.689 276.16 287.556 276.16 287.406C276.16 287.289 276.219 287.161 276.336 287.022L276.576 286.75C276.704 286.601 276.843 286.526 276.992 286.526C277.109 286.526 277.237 286.58 277.376 286.686C277.824 287.017 278.219 287.246 278.56 287.374C278.901 287.492 279.285 287.55 279.712 287.55C280.171 287.55 280.544 287.46 280.832 287.278C281.131 287.086 281.28 286.83 281.28 286.51C281.28 286.265 281.195 286.073 281.024 285.934C280.864 285.785 280.651 285.673 280.384 285.598C280.117 285.513 279.723 285.417 279.2 285.31C278.464 285.15 277.888 284.98 277.472 284.798C277.067 284.606 276.773 284.366 276.592 284.078C276.411 283.79 276.32 283.422 276.32 282.974C276.32 282.516 276.448 282.105 276.704 281.742C276.971 281.38 277.339 281.092 277.808 280.878C278.288 280.665 278.848 280.558 279.488 280.558C280.064 280.558 280.576 280.622 281.024 280.75C281.483 280.878 281.931 281.097 282.368 281.406C282.539 281.534 282.624 281.678 282.624 281.838C282.624 281.945 282.571 282.068 282.464 282.206L282.256 282.462C282.139 282.612 281.995 282.686 281.824 282.686C281.696 282.686 281.573 282.644 281.456 282.558C281.104 282.324 280.779 282.164 280.48 282.078C280.181 281.982 279.845 281.934 279.472 281.934C279.013 281.934 278.645 282.025 278.368 282.206C278.091 282.388 277.952 282.622 277.952 282.91C277.952 283.102 278.016 283.257 278.144 283.374C278.283 283.481 278.475 283.577 278.72 283.662C278.976 283.737 279.376 283.833 279.92 283.95C280.656 284.11 281.237 284.292 281.664 284.494C282.101 284.686 282.421 284.937 282.624 285.246C282.837 285.545 282.944 285.934 282.944 286.414C282.944 287.161 282.645 287.769 282.048 288.238C281.461 288.697 280.672 288.926 279.68 288.926ZM291.792 287.342C291.824 287.332 291.872 287.326 291.936 287.326C292.202 287.326 292.362 287.481 292.416 287.79L292.464 288.046C292.474 288.078 292.48 288.132 292.48 288.206C292.48 288.473 292.33 288.644 292.032 288.718C291.605 288.814 291.216 288.862 290.864 288.862C290.106 288.862 289.557 288.686 289.216 288.334C288.885 287.982 288.72 287.454 288.72 286.75V282.094H287.84C287.669 282.094 287.53 282.046 287.424 281.95C287.328 281.844 287.28 281.705 287.28 281.534V281.358C287.28 281.177 287.328 281.038 287.424 280.942C287.53 280.846 287.669 280.798 287.84 280.798H288.72V278.814C288.72 278.633 288.768 278.494 288.864 278.398C288.97 278.302 289.109 278.254 289.28 278.254H289.856C290.037 278.254 290.176 278.302 290.272 278.398C290.368 278.494 290.416 278.633 290.416 278.814V280.798H291.856C292.037 280.798 292.176 280.846 292.272 280.942C292.368 281.038 292.416 281.177 292.416 281.358V281.534C292.416 281.705 292.368 281.844 292.272 281.95C292.176 282.046 292.037 282.094 291.856 282.094H290.416V286.542C290.416 286.852 290.48 287.07 290.608 287.198C290.746 287.326 290.965 287.39 291.264 287.39C291.392 287.39 291.568 287.374 291.792 287.342ZM297.114 288.926C296.335 288.926 295.642 288.75 295.034 288.398C294.436 288.046 293.967 287.556 293.626 286.926C293.284 286.286 293.114 285.556 293.114 284.734C293.114 283.913 293.284 283.188 293.626 282.558C293.967 281.929 294.436 281.438 295.034 281.086C295.642 280.734 296.335 280.558 297.114 280.558C297.882 280.558 298.57 280.734 299.178 281.086C299.786 281.438 300.26 281.934 300.602 282.574C300.943 283.204 301.114 283.924 301.114 284.734C301.114 285.556 300.943 286.286 300.602 286.926C300.26 287.556 299.786 288.046 299.178 288.398C298.57 288.75 297.882 288.926 297.114 288.926ZM297.114 287.502C297.796 287.502 298.346 287.252 298.762 286.75C299.178 286.238 299.386 285.566 299.386 284.734C299.386 283.913 299.178 283.252 298.762 282.75C298.346 282.249 297.796 281.998 297.114 281.998C296.431 281.998 295.882 282.249 295.466 282.75C295.05 283.252 294.842 283.913 294.842 284.734C294.842 285.566 295.05 286.238 295.466 286.75C295.882 287.252 296.431 287.502 297.114 287.502ZM315.067 281.278C315.141 280.958 315.349 280.798 315.691 280.798H316.283C316.443 280.798 316.565 280.836 316.651 280.91C316.747 280.974 316.795 281.076 316.795 281.214C316.795 281.246 316.784 281.316 316.763 281.422L314.859 288.206C314.784 288.526 314.576 288.686 314.235 288.686H313.195C312.875 288.686 312.667 288.526 312.571 288.206L312.043 286.35C311.808 285.529 311.547 284.5 311.259 283.262L311.179 282.91C310.891 284.212 310.613 285.364 310.347 286.366L309.851 288.206C309.776 288.526 309.568 288.686 309.227 288.686H308.203C307.883 288.686 307.675 288.526 307.579 288.206L305.659 281.422C305.637 281.316 305.627 281.246 305.627 281.214C305.627 281.076 305.669 280.974 305.755 280.91C305.851 280.836 305.979 280.798 306.139 280.798H306.763C307.104 280.798 307.312 280.958 307.387 281.278L307.963 283.55C308.187 284.382 308.448 285.492 308.747 286.878L308.811 287.198C309.12 285.769 309.408 284.553 309.675 283.55L310.283 281.278C310.357 280.958 310.565 280.798 310.907 280.798H311.515C311.856 280.798 312.064 280.958 312.139 281.278L312.763 283.55C313.061 284.66 313.36 285.876 313.659 287.198C313.883 286.057 314.16 284.841 314.491 283.55L315.067 281.278ZM322.218 280.558C323.125 280.558 323.818 280.814 324.298 281.326C324.789 281.828 325.034 282.478 325.034 283.278V288.126C325.034 288.297 324.986 288.436 324.89 288.542C324.794 288.638 324.656 288.686 324.474 288.686H323.898C323.728 288.686 323.589 288.638 323.482 288.542C323.386 288.436 323.338 288.297 323.338 288.126V283.806C323.338 283.23 323.194 282.788 322.906 282.478C322.629 282.169 322.229 282.014 321.706 282.014C321.194 282.014 320.762 282.19 320.41 282.542C320.069 282.894 319.898 283.337 319.898 283.87V288.126C319.898 288.297 319.85 288.436 319.754 288.542C319.658 288.638 319.52 288.686 319.338 288.686H318.762C318.592 288.686 318.453 288.638 318.346 288.542C318.25 288.436 318.202 288.297 318.202 288.126V277.886C318.202 277.705 318.25 277.566 318.346 277.47C318.453 277.374 318.592 277.326 318.762 277.326H319.338C319.52 277.326 319.658 277.374 319.754 277.47C319.85 277.566 319.898 277.705 319.898 277.886V281.614C320.154 281.273 320.48 281.012 320.874 280.83C321.28 280.649 321.728 280.558 322.218 280.558ZM330.536 288.926C329.757 288.926 329.064 288.75 328.456 288.398C327.858 288.046 327.389 287.556 327.048 286.926C326.706 286.286 326.536 285.556 326.536 284.734C326.536 283.913 326.706 283.188 327.048 282.558C327.389 281.929 327.858 281.438 328.456 281.086C329.064 280.734 329.757 280.558 330.536 280.558C331.304 280.558 331.992 280.734 332.6 281.086C333.208 281.438 333.682 281.934 334.024 282.574C334.365 283.204 334.536 283.924 334.536 284.734C334.536 285.556 334.365 286.286 334.024 286.926C333.682 287.556 333.208 288.046 332.6 288.398C331.992 288.75 331.304 288.926 330.536 288.926ZM330.536 287.502C331.218 287.502 331.768 287.252 332.184 286.75C332.6 286.238 332.808 285.566 332.808 284.734C332.808 283.913 332.6 283.252 332.184 282.75C331.768 282.249 331.218 281.998 330.536 281.998C329.853 281.998 329.304 282.249 328.888 282.75C328.472 283.252 328.264 283.913 328.264 284.734C328.264 285.566 328.472 286.238 328.888 286.75C329.304 287.252 329.853 287.502 330.536 287.502ZM336.655 288.686C336.484 288.686 336.345 288.638 336.239 288.542C336.143 288.436 336.095 288.297 336.095 288.126V277.886C336.095 277.705 336.143 277.566 336.239 277.47C336.345 277.374 336.484 277.326 336.655 277.326H337.231C337.412 277.326 337.551 277.374 337.647 277.47C337.743 277.566 337.791 277.705 337.791 277.886V288.126C337.791 288.297 337.743 288.436 337.647 288.542C337.551 288.638 337.412 288.686 337.231 288.686H336.655ZM345.46 286.67C345.598 286.553 345.732 286.494 345.86 286.494C345.988 286.494 346.121 286.564 346.26 286.702L346.484 286.942C346.601 287.081 346.66 287.214 346.66 287.342C346.66 287.481 346.59 287.614 346.452 287.742C345.961 288.169 345.47 288.473 344.98 288.654C344.5 288.836 343.966 288.926 343.38 288.926C342.558 288.926 341.844 288.756 341.236 288.414C340.638 288.073 340.174 287.593 339.844 286.974C339.524 286.345 339.364 285.62 339.364 284.798C339.364 283.988 339.518 283.262 339.828 282.622C340.148 281.972 340.596 281.465 341.172 281.102C341.758 280.74 342.441 280.558 343.22 280.558C344.382 280.558 345.278 280.905 345.908 281.598C346.537 282.281 346.852 283.225 346.852 284.43V284.574C346.841 284.745 346.788 284.878 346.692 284.974C346.596 285.07 346.457 285.118 346.276 285.118H341.028C341.092 285.822 341.321 286.398 341.716 286.846C342.121 287.284 342.686 287.502 343.412 287.502C343.806 287.502 344.153 287.444 344.452 287.326C344.75 287.198 345.086 286.98 345.46 286.67ZM343.188 281.902C342.601 281.902 342.126 282.078 341.764 282.43C341.412 282.772 341.182 283.257 341.076 283.886H345.188C345.145 283.268 344.953 282.782 344.612 282.43C344.27 282.078 343.796 281.902 343.188 281.902Z" fill="#697690"/>
<mask id="path-27-inside-1_550_9764" fill="white">
<path d="M509.147 183.628C508.602 184.146 507.709 183.105 507.226 184.263C506.725 185.175 506.52 184.161 505.331 184.417C501.444 184.894 509.908 192.356 501.352 193.487C500.709 191.381 499.179 191.269 497.742 192.853C497.111 193.696 498.325 193.644 497.493 194.37C496.738 194.673 497.158 197.347 495.641 197.062C494.34 197.306 493.635 194.698 492.322 193.908C490.498 192.93 486.615 191.824 487.924 195.939C488.467 199.244 490.724 200.03 490.066 203.321C489.641 201.335 488.554 198.806 487.476 197.963C488.177 197.819 487.507 196.136 486.971 196.504C486.388 197.215 487.947 198.532 486.259 197.739C487.057 196.137 483.528 190.936 482.657 192.835C481.174 192.186 480.872 193.221 480.128 194.85C478.378 195.814 476.86 194.151 476.998 197.517C474.914 198.077 479.014 201.623 476.963 203.175C476.626 202.817 475.866 202.21 475.626 203.038C475.228 202.225 474.847 199.57 473.456 199.334C471.561 196.88 471.935 192.566 467.66 194.902C466.569 198.357 470.227 203.18 467.935 206.108C464.018 208.17 467.019 202.185 463.81 205.062C461.697 207.083 461.271 209.218 462.027 211.535C461.967 212.081 461.438 209.626 461.006 209.777C460.246 209.486 460.747 214.884 460.2 214.201C460.192 212.714 460.106 210.05 459.085 209.108C458.461 208.718 459.333 207.907 459.162 207.008C459.275 205.954 458.533 206.07 457.962 206.391C459.202 204.854 455.02 205.391 455.698 203.913C456.164 203.963 457.684 205.237 458.433 203.673C459.367 202.755 458.127 202.688 458.682 202.069C459.335 201.323 459.606 199.828 459.805 198.914C459.646 198.167 458.816 198.113 458.57 197.431C460.549 197.555 458.677 195.854 457.687 195.999C456.88 196.118 457.772 195.854 457.533 195.408C456.925 193.916 456.307 194.881 455.475 195.031C455.352 193.758 456.175 192.495 454.574 191.987C453.197 191.534 454.225 190.042 452.671 190.075C451.849 190.17 452.623 188.996 451.573 189.706C450.539 190.335 451.691 187.86 450.973 188.112C450.531 188.114 451.079 187.637 450.484 187.511C449.678 187.356 449.204 184.025 448.169 185.522C446.628 183.805 447.084 187.146 445.271 185.128C444.619 184.332 443.402 184.733 443.556 185.531C441.452 185.113 441.514 186.295 442.862 187.366C439.449 187.031 442.241 189.95 444.053 189.123C445.002 188.804 445.889 189.013 446.497 189.706C449.209 191.532 444.599 189.178 443.907 190.178C441.12 191.707 446.116 193.465 447.149 194.525C447.349 194.988 447.865 194.759 447.629 195.253C447.337 195.952 448.855 197.314 448.521 198.246C448.275 197.855 447.854 196.888 447.407 196.865C447.162 197.407 446.288 195.025 445.786 194.893C445.22 194.822 444.756 194.326 444.774 195.493C444.49 196.947 444.908 195.037 443.883 195.031C443.011 194.977 443.536 193.191 442.408 193.744C441.809 192.582 440.95 191.495 439.389 190.949C438.655 190.535 437.155 191.785 437.289 192.218C437.426 192.433 437.417 192.441 437.109 192.476C435.401 192.938 437.905 194.487 437.77 194.782C434.084 192.052 434.473 196.521 437.229 198.074C438.774 199.48 432.929 194.685 434.382 199.36C435.399 201.77 437.782 201.846 439.955 201.615C440.514 201.596 439.422 201.83 438.729 201.941C435.604 202.24 437.71 203.19 438.318 203.904C438.148 203.938 437.048 204.719 437.254 204.136C436.718 201.3 428.101 197.118 432.77 203.596C430.949 203.242 431.972 204.66 432.658 205.61C432.001 205.069 430.28 203.553 429.4 203.39C428.335 206.736 423.778 207.744 430.695 207.471C432.041 207.989 432.111 209.737 433.507 209.76C435.545 210.12 436.718 207.683 438.738 208.259C440.032 208.939 440.869 208.024 440.753 206.698C441.697 207.525 442.452 207.083 443.342 206.57C444.007 205.961 443.233 207.045 443.171 207.316C445.568 209.426 444.906 207.818 445.134 206.947C445.434 208.036 445.682 207.976 445.871 206.775C446.008 205.841 446.077 205.747 446.128 206.39C446.439 208.441 447.009 204.054 446.986 206.621C447.135 210.477 448.008 206.673 448.872 207.976C446.195 208.845 450.944 212.005 451.109 208.73C451.533 209.721 451.668 209.137 452.131 209.09C452.374 209.506 452.241 209.945 452.911 209.999C452.139 211.38 445.815 213.836 444.928 216.301C444.878 216.619 445.433 216.363 445.554 216.335C446.055 216.116 445.204 217.374 445.477 217.484C449.283 215.832 450.03 220.001 454.017 216.206C454.298 216.368 453.102 218.979 453.074 219.464C451.415 220.072 448.762 218.116 446.969 218.71C444.676 219.131 445.229 220.038 444.31 217.853C443.943 217.589 443.357 218.826 442.844 218.95C442.309 219.18 442.415 219.282 442.433 219.653C441.765 219.277 440.875 220.144 440.443 219.687C438.446 218.087 439.087 221.568 438.548 220.982C437.353 218.413 434.88 223.206 433.266 221.135C432.945 220.606 432.801 220.955 432.066 221.221C430.765 222.085 429.606 221.068 430.874 223.493C431.348 225.525 432.518 226.382 434.501 225.894C436.93 222.299 442.105 226.178 445.588 225.466C446.326 225.097 446.524 225.162 446.257 225.808C445.869 226.112 446.515 226.597 446.823 226.768C447.223 227.165 445.815 228.185 446.566 228.792C446.927 229.2 447.072 231.482 447.62 231.209C447.989 231.209 448.058 231.304 447.929 231.69C447.661 233.048 449.543 234.164 450.416 232.675C451.981 230.379 449.562 234.587 450.441 235.393C450.212 235.663 449.24 236.759 449.215 236.868C449.635 237.267 451.564 237.44 452.165 236.885C453.395 236.166 450.473 238.576 451.711 238.926C452.201 239.211 452.722 239.9 452.054 240.297C451.53 240.664 449.099 239.57 450.347 240.872C451.012 241.28 449.469 241.156 450.124 242.261C450.333 242.87 449.249 242.557 448.761 243.152C448.249 243.487 447.693 242.87 447.029 243.375C444.765 245.812 444.679 241.71 443.221 241.625C442.955 241.982 441.924 244.192 442.578 244.866C442.954 245.068 442.602 245.604 442.493 245.844C441.831 247.08 442.572 246.595 442.39 247.756C442.178 249.984 445.842 247.641 447.054 248.107C448.702 248.545 450.998 248.442 452.542 247.807C453.396 249.219 456.444 248.508 457.421 247.653C461.639 248.218 465.291 253.371 469.357 255.781C473.264 255.561 477.088 258.219 480.83 259.066C494.867 259.525 490.911 253.911 497.713 250.43C509.719 248.777 503.818 250.142 511.683 242.302C514.82 239.621 515.162 239.098 518.834 238.315C521.404 238.085 519.857 237.477 521.587 236.696C522.805 237.645 520.479 237.011 520.661 237.81C521.907 238.223 524.023 237.794 523.842 236.284C522.982 234.959 526.97 234.442 527.548 232.666C527.732 231.035 531.136 225.888 527.555 229.391C526.895 230.034 526.664 230.103 526.466 229.734C526.246 229.204 528.146 228.618 528.147 228.113C527.715 227.318 529.552 227.926 529.699 227.565C529.865 226.893 528.64 226.433 528.404 225.764C530.039 227.464 532.961 226.029 532.031 223.861C533.525 224.416 535.06 222.043 533.866 221.16C533.729 221.075 533.818 221.012 534.132 220.972C534.863 220.804 535.675 220.468 534.741 220.063C533.601 219.644 533.078 218.35 531.62 218.271C530.639 218.194 531.543 218.124 531.68 217.859C532.445 217.434 534.035 219.743 534.767 219.205C536.621 219.062 537.077 212.777 535.435 215.03C534.252 216.779 536.068 213.445 534.321 213.805C536.164 212.37 534.894 210.982 533.146 211.404C533.365 211.309 534.091 210.809 533.592 210.504C533.472 210.396 533.535 210.284 533.781 210.17C535.21 209.532 534.913 204.789 533.077 205.446C532.776 206.007 532.494 205.028 532.306 204.803C532.049 203.586 530.351 204.357 529.562 204.074C523.512 201.208 530.738 198.577 522.419 201.75C521.595 200.031 525.227 198.007 523.842 195.603C522.573 192.191 522.306 195.184 521.031 194.943C517.793 194.303 520.838 193.386 518.501 193.4C519.853 192.601 521.348 190.969 520.148 189.49C520.878 188.631 526.31 185.895 522.712 186.755C521.724 187.073 521.55 186.994 520.894 186.369C519.246 186.686 518.842 189.592 516.976 189.74C515.968 189.747 515.901 190.109 516.075 191.214C516.326 192.299 516.033 192.054 515.124 191.386C510.376 189.946 515.8 187.764 511.188 186.198C510.533 186.225 511.18 184.886 510.922 184.621C509.956 184.34 509.733 182.934 509.147 183.627V183.628ZM452.725 231.178C452.519 231.401 452.056 231.684 451.996 231.624C451.903 231.612 453.291 230.526 452.725 231.178ZM454.834 235.07C454.823 235.228 452.815 236.618 453.874 235.524C454.397 235.036 454.714 234.881 454.834 235.07ZM455.906 235.422C455.906 235.464 455.803 235.447 455.675 235.396C454.868 235.048 455.853 235.281 455.906 235.422Z"/>
</mask>
<path d="M509.147 183.628C508.602 184.146 507.709 183.105 507.226 184.263C506.725 185.175 506.52 184.161 505.331 184.417C501.444 184.894 509.908 192.356 501.352 193.487C500.709 191.381 499.179 191.269 497.742 192.853C497.111 193.696 498.325 193.644 497.493 194.37C496.738 194.673 497.158 197.347 495.641 197.062C494.34 197.306 493.635 194.698 492.322 193.908C490.498 192.93 486.615 191.824 487.924 195.939C488.467 199.244 490.724 200.03 490.066 203.321C489.641 201.335 488.554 198.806 487.476 197.963C488.177 197.819 487.507 196.136 486.971 196.504C486.388 197.215 487.947 198.532 486.259 197.739C487.057 196.137 483.528 190.936 482.657 192.835C481.174 192.186 480.872 193.221 480.128 194.85C478.378 195.814 476.86 194.151 476.998 197.517C474.914 198.077 479.014 201.623 476.963 203.175C476.626 202.817 475.866 202.21 475.626 203.038C475.228 202.225 474.847 199.57 473.456 199.334C471.561 196.88 471.935 192.566 467.66 194.902C466.569 198.357 470.227 203.18 467.935 206.108C464.018 208.17 467.019 202.185 463.81 205.062C461.697 207.083 461.271 209.218 462.027 211.535C461.967 212.081 461.438 209.626 461.006 209.777C460.246 209.486 460.747 214.884 460.2 214.201C460.192 212.714 460.106 210.05 459.085 209.108C458.461 208.718 459.333 207.907 459.162 207.008C459.275 205.954 458.533 206.07 457.962 206.391C459.202 204.854 455.02 205.391 455.698 203.913C456.164 203.963 457.684 205.237 458.433 203.673C459.367 202.755 458.127 202.688 458.682 202.069C459.335 201.323 459.606 199.828 459.805 198.914C459.646 198.167 458.816 198.113 458.57 197.431C460.549 197.555 458.677 195.854 457.687 195.999C456.88 196.118 457.772 195.854 457.533 195.408C456.925 193.916 456.307 194.881 455.475 195.031C455.352 193.758 456.175 192.495 454.574 191.987C453.197 191.534 454.225 190.042 452.671 190.075C451.849 190.17 452.623 188.996 451.573 189.706C450.539 190.335 451.691 187.86 450.973 188.112C450.531 188.114 451.079 187.637 450.484 187.511C449.678 187.356 449.204 184.025 448.169 185.522C446.628 183.805 447.084 187.146 445.271 185.128C444.619 184.332 443.402 184.733 443.556 185.531C441.452 185.113 441.514 186.295 442.862 187.366C439.449 187.031 442.241 189.95 444.053 189.123C445.002 188.804 445.889 189.013 446.497 189.706C449.209 191.532 444.599 189.178 443.907 190.178C441.12 191.707 446.116 193.465 447.149 194.525C447.349 194.988 447.865 194.759 447.629 195.253C447.337 195.952 448.855 197.314 448.521 198.246C448.275 197.855 447.854 196.888 447.407 196.865C447.162 197.407 446.288 195.025 445.786 194.893C445.22 194.822 444.756 194.326 444.774 195.493C444.49 196.947 444.908 195.037 443.883 195.031C443.011 194.977 443.536 193.191 442.408 193.744C441.809 192.582 440.95 191.495 439.389 190.949C438.655 190.535 437.155 191.785 437.289 192.218C437.426 192.433 437.417 192.441 437.109 192.476C435.401 192.938 437.905 194.487 437.77 194.782C434.084 192.052 434.473 196.521 437.229 198.074C438.774 199.48 432.929 194.685 434.382 199.36C435.399 201.77 437.782 201.846 439.955 201.615C440.514 201.596 439.422 201.83 438.729 201.941C435.604 202.24 437.71 203.19 438.318 203.904C438.148 203.938 437.048 204.719 437.254 204.136C436.718 201.3 428.101 197.118 432.77 203.596C430.949 203.242 431.972 204.66 432.658 205.61C432.001 205.069 430.28 203.553 429.4 203.39C428.335 206.736 423.778 207.744 430.695 207.471C432.041 207.989 432.111 209.737 433.507 209.76C435.545 210.12 436.718 207.683 438.738 208.259C440.032 208.939 440.869 208.024 440.753 206.698C441.697 207.525 442.452 207.083 443.342 206.57C444.007 205.961 443.233 207.045 443.171 207.316C445.568 209.426 444.906 207.818 445.134 206.947C445.434 208.036 445.682 207.976 445.871 206.775C446.008 205.841 446.077 205.747 446.128 206.39C446.439 208.441 447.009 204.054 446.986 206.621C447.135 210.477 448.008 206.673 448.872 207.976C446.195 208.845 450.944 212.005 451.109 208.73C451.533 209.721 451.668 209.137 452.131 209.09C452.374 209.506 452.241 209.945 452.911 209.999C452.139 211.38 445.815 213.836 444.928 216.301C444.878 216.619 445.433 216.363 445.554 216.335C446.055 216.116 445.204 217.374 445.477 217.484C449.283 215.832 450.03 220.001 454.017 216.206C454.298 216.368 453.102 218.979 453.074 219.464C451.415 220.072 448.762 218.116 446.969 218.71C444.676 219.131 445.229 220.038 444.31 217.853C443.943 217.589 443.357 218.826 442.844 218.95C442.309 219.18 442.415 219.282 442.433 219.653C441.765 219.277 440.875 220.144 440.443 219.687C438.446 218.087 439.087 221.568 438.548 220.982C437.353 218.413 434.88 223.206 433.266 221.135C432.945 220.606 432.801 220.955 432.066 221.221C430.765 222.085 429.606 221.068 430.874 223.493C431.348 225.525 432.518 226.382 434.501 225.894C436.93 222.299 442.105 226.178 445.588 225.466C446.326 225.097 446.524 225.162 446.257 225.808C445.869 226.112 446.515 226.597 446.823 226.768C447.223 227.165 445.815 228.185 446.566 228.792C446.927 229.2 447.072 231.482 447.62 231.209C447.989 231.209 448.058 231.304 447.929 231.69C447.661 233.048 449.543 234.164 450.416 232.675C451.981 230.379 449.562 234.587 450.441 235.393C450.212 235.663 449.24 236.759 449.215 236.868C449.635 237.267 451.564 237.44 452.165 236.885C453.395 236.166 450.473 238.576 451.711 238.926C452.201 239.211 452.722 239.9 452.054 240.297C451.53 240.664 449.099 239.57 450.347 240.872C451.012 241.28 449.469 241.156 450.124 242.261C450.333 242.87 449.249 242.557 448.761 243.152C448.249 243.487 447.693 242.87 447.029 243.375C444.765 245.812 444.679 241.71 443.221 241.625C442.955 241.982 441.924 244.192 442.578 244.866C442.954 245.068 442.602 245.604 442.493 245.844C441.831 247.08 442.572 246.595 442.39 247.756C442.178 249.984 445.842 247.641 447.054 248.107C448.702 248.545 450.998 248.442 452.542 247.807C453.396 249.219 456.444 248.508 457.421 247.653C461.639 248.218 465.291 253.371 469.357 255.781C473.264 255.561 477.088 258.219 480.83 259.066C494.867 259.525 490.911 253.911 497.713 250.43C509.719 248.777 503.818 250.142 511.683 242.302C514.82 239.621 515.162 239.098 518.834 238.315C521.404 238.085 519.857 237.477 521.587 236.696C522.805 237.645 520.479 237.011 520.661 237.81C521.907 238.223 524.023 237.794 523.842 236.284C522.982 234.959 526.97 234.442 527.548 232.666C527.732 231.035 531.136 225.888 527.555 229.391C526.895 230.034 526.664 230.103 526.466 229.734C526.246 229.204 528.146 228.618 528.147 228.113C527.715 227.318 529.552 227.926 529.699 227.565C529.865 226.893 528.64 226.433 528.404 225.764C530.039 227.464 532.961 226.029 532.031 223.861C533.525 224.416 535.06 222.043 533.866 221.16C533.729 221.075 533.818 221.012 534.132 220.972C534.863 220.804 535.675 220.468 534.741 220.063C533.601 219.644 533.078 218.35 531.62 218.271C530.639 218.194 531.543 218.124 531.68 217.859C532.445 217.434 534.035 219.743 534.767 219.205C536.621 219.062 537.077 212.777 535.435 215.03C534.252 216.779 536.068 213.445 534.321 213.805C536.164 212.37 534.894 210.982 533.146 211.404C533.365 211.309 534.091 210.809 533.592 210.504C533.472 210.396 533.535 210.284 533.781 210.17C535.21 209.532 534.913 204.789 533.077 205.446C532.776 206.007 532.494 205.028 532.306 204.803C532.049 203.586 530.351 204.357 529.562 204.074C523.512 201.208 530.738 198.577 522.419 201.75C521.595 200.031 525.227 198.007 523.842 195.603C522.573 192.191 522.306 195.184 521.031 194.943C517.793 194.303 520.838 193.386 518.501 193.4C519.853 192.601 521.348 190.969 520.148 189.49C520.878 188.631 526.31 185.895 522.712 186.755C521.724 187.073 521.55 186.994 520.894 186.369C519.246 186.686 518.842 189.592 516.976 189.74C515.968 189.747 515.901 190.109 516.075 191.214C516.326 192.299 516.033 192.054 515.124 191.386C510.376 189.946 515.8 187.764 511.188 186.198C510.533 186.225 511.18 184.886 510.922 184.621C509.956 184.34 509.733 182.934 509.147 183.627V183.628ZM452.725 231.178C452.519 231.401 452.056 231.684 451.996 231.624C451.903 231.612 453.291 230.526 452.725 231.178ZM454.834 235.07C454.823 235.228 452.815 236.618 453.874 235.524C454.397 235.036 454.714 234.881 454.834 235.07ZM455.906 235.422C455.906 235.464 455.803 235.447 455.675 235.396C454.868 235.048 455.853 235.281 455.906 235.422Z" fill="#5473B5" fill-opacity="0.4" stroke="#5473B5" stroke-opacity="0.77" stroke-width="2" stroke-linejoin="round" mask="url(#path-27-inside-1_550_9764)"/>
<circle cx="482.925" cy="208.775" r="4.15479" fill="#5473B5"/>
<circle cx="491.718" cy="236.018" r="11.9477" fill="#5473B5"/>
<circle cx="516.308" cy="214.387" r="8.11231" fill="#5473B5"/>
<circle cx="463.947" cy="226.395" r="6.94922" fill="#5473B5"/>
<path d="M444.827 284.11C444.656 284.11 444.518 284.062 444.411 283.966C444.315 283.86 444.267 283.721 444.267 283.55V283.134C444.267 282.953 444.315 282.814 444.411 282.718C444.518 282.622 444.656 282.574 444.827 282.574H448.843C449.024 282.574 449.163 282.622 449.259 282.718C449.355 282.814 449.403 282.953 449.403 283.134V288.126C449.403 288.297 449.355 288.436 449.259 288.542C449.163 288.638 449.024 288.686 448.843 288.686H448.507C448.155 288.686 447.963 288.51 447.931 288.158L447.867 287.438C447.184 288.43 446.054 288.926 444.475 288.926C443.344 288.926 442.374 288.676 441.563 288.174C440.752 287.673 440.134 286.974 439.707 286.078C439.28 285.182 439.067 284.153 439.067 282.99C439.067 281.86 439.291 280.846 439.739 279.95C440.187 279.054 440.832 278.356 441.675 277.854C442.518 277.342 443.515 277.086 444.667 277.086C445.531 277.086 446.304 277.225 446.987 277.502C447.67 277.769 448.342 278.206 449.003 278.814C449.142 278.942 449.211 279.076 449.211 279.214C449.211 279.353 449.147 279.486 449.019 279.614L448.635 279.998C448.496 280.137 448.363 280.206 448.235 280.206C448.096 280.206 447.963 280.142 447.835 280.014C447.28 279.534 446.763 279.193 446.283 278.99C445.803 278.777 445.259 278.67 444.651 278.67C443.915 278.67 443.264 278.846 442.699 279.198C442.144 279.55 441.707 280.052 441.387 280.702C441.078 281.353 440.923 282.121 440.923 283.006C440.923 283.902 441.072 284.676 441.371 285.326C441.67 285.977 442.091 286.478 442.635 286.83C443.19 287.172 443.84 287.342 444.587 287.342C445.536 287.342 446.294 287.086 446.859 286.574C447.435 286.052 447.723 285.342 447.723 284.446V284.11H444.827ZM457.036 286.67C457.175 286.553 457.308 286.494 457.436 286.494C457.564 286.494 457.698 286.564 457.836 286.702L458.06 286.942C458.178 287.081 458.236 287.214 458.236 287.342C458.236 287.481 458.167 287.614 458.028 287.742C457.538 288.169 457.047 288.473 456.556 288.654C456.076 288.836 455.543 288.926 454.956 288.926C454.135 288.926 453.42 288.756 452.812 288.414C452.215 288.073 451.751 287.593 451.42 286.974C451.1 286.345 450.94 285.62 450.94 284.798C450.94 283.988 451.095 283.262 451.404 282.622C451.724 281.972 452.172 281.465 452.748 281.102C453.335 280.74 454.018 280.558 454.796 280.558C455.959 280.558 456.855 280.905 457.484 281.598C458.114 282.281 458.428 283.225 458.428 284.43V284.574C458.418 284.745 458.364 284.878 458.268 284.974C458.172 285.07 458.034 285.118 457.852 285.118H452.604C452.668 285.822 452.898 286.398 453.292 286.846C453.698 287.284 454.263 287.502 454.988 287.502C455.383 287.502 455.73 287.444 456.028 287.326C456.327 287.198 456.663 286.98 457.036 286.67ZM454.764 281.902C454.178 281.902 453.703 282.078 453.34 282.43C452.988 282.772 452.759 283.257 452.652 283.886H456.764C456.722 283.268 456.53 282.782 456.188 282.43C455.847 282.078 455.372 281.902 454.764 281.902ZM463.565 288.926C462.787 288.926 462.093 288.75 461.485 288.398C460.888 288.046 460.419 287.556 460.077 286.926C459.736 286.286 459.565 285.556 459.565 284.734C459.565 283.913 459.736 283.188 460.077 282.558C460.419 281.929 460.888 281.438 461.485 281.086C462.093 280.734 462.787 280.558 463.565 280.558C464.333 280.558 465.021 280.734 465.629 281.086C466.237 281.438 466.712 281.934 467.053 282.574C467.395 283.204 467.565 283.924 467.565 284.734C467.565 285.556 467.395 286.286 467.053 286.926C466.712 287.556 466.237 288.046 465.629 288.398C465.021 288.75 464.333 288.926 463.565 288.926ZM463.565 287.502C464.248 287.502 464.797 287.252 465.213 286.75C465.629 286.238 465.837 285.566 465.837 284.734C465.837 283.913 465.629 283.252 465.213 282.75C464.797 282.249 464.248 281.998 463.565 281.998C462.883 281.998 462.333 282.249 461.917 282.75C461.501 283.252 461.293 283.913 461.293 284.734C461.293 285.566 461.501 286.238 461.917 286.75C462.333 287.252 462.883 287.502 463.565 287.502ZM469.684 288.686C469.513 288.686 469.375 288.638 469.268 288.542C469.172 288.436 469.124 288.297 469.124 288.126V277.886C469.124 277.705 469.172 277.566 469.268 277.47C469.375 277.374 469.513 277.326 469.684 277.326H470.26C470.441 277.326 470.58 277.374 470.676 277.47C470.772 277.566 470.82 277.705 470.82 277.886V288.126C470.82 288.297 470.772 288.436 470.676 288.542C470.58 288.638 470.441 288.686 470.26 288.686H469.684ZM476.393 288.926C475.615 288.926 474.921 288.75 474.313 288.398C473.716 288.046 473.247 287.556 472.905 286.926C472.564 286.286 472.393 285.556 472.393 284.734C472.393 283.913 472.564 283.188 472.905 282.558C473.247 281.929 473.716 281.438 474.313 281.086C474.921 280.734 475.615 280.558 476.393 280.558C477.161 280.558 477.849 280.734 478.457 281.086C479.065 281.438 479.54 281.934 479.881 282.574C480.223 283.204 480.393 283.924 480.393 284.734C480.393 285.556 480.223 286.286 479.881 286.926C479.54 287.556 479.065 288.046 478.457 288.398C477.849 288.75 477.161 288.926 476.393 288.926ZM476.393 287.502C477.076 287.502 477.625 287.252 478.041 286.75C478.457 286.238 478.665 285.566 478.665 284.734C478.665 283.913 478.457 283.252 478.041 282.75C477.625 282.249 477.076 281.998 476.393 281.998C475.711 281.998 475.161 282.249 474.745 282.75C474.329 283.252 474.121 283.913 474.121 284.734C474.121 285.566 474.329 286.238 474.745 286.75C475.161 287.252 475.711 287.502 476.393 287.502ZM485.454 288.926C484.675 288.926 483.987 288.756 483.39 288.414C482.803 288.073 482.345 287.588 482.014 286.958C481.694 286.318 481.534 285.577 481.534 284.734C481.534 283.892 481.699 283.156 482.03 282.526C482.361 281.897 482.825 281.412 483.422 281.07C484.019 280.729 484.707 280.558 485.486 280.558C486.051 280.558 486.558 280.644 487.006 280.814C487.465 280.974 487.902 281.252 488.318 281.646C488.446 281.774 488.51 281.908 488.51 282.046C488.51 282.174 488.441 282.308 488.302 282.446L488.03 282.718C487.913 282.836 487.785 282.894 487.646 282.894C487.507 282.894 487.363 282.83 487.214 282.702C486.905 282.436 486.611 282.254 486.334 282.158C486.067 282.052 485.779 281.998 485.47 281.998C484.766 281.998 484.222 282.26 483.838 282.782C483.454 283.305 483.262 283.956 483.262 284.734C483.262 285.513 483.454 286.169 483.838 286.702C484.222 287.225 484.766 287.486 485.47 287.486C485.811 287.486 486.126 287.422 486.414 287.294C486.702 287.156 487.011 286.926 487.342 286.606C487.481 286.468 487.625 286.398 487.774 286.398C487.902 286.398 488.025 286.452 488.142 286.558L488.414 286.782C488.553 286.9 488.622 287.033 488.622 287.182C488.622 287.342 488.542 287.513 488.382 287.694C487.945 288.142 487.491 288.462 487.022 288.654C486.563 288.836 486.041 288.926 485.454 288.926ZM493.497 280.558C494.564 280.558 495.385 280.809 495.961 281.31C496.537 281.801 496.825 282.457 496.825 283.278V288.126C496.825 288.297 496.777 288.436 496.681 288.542C496.585 288.638 496.447 288.686 496.265 288.686H495.849C495.679 288.686 495.54 288.638 495.433 288.542C495.337 288.436 495.289 288.297 495.289 288.126V287.774C495.033 288.148 494.681 288.436 494.233 288.638C493.785 288.841 493.263 288.942 492.665 288.942C491.844 288.942 491.167 288.761 490.633 288.398C490.111 288.025 489.849 287.465 489.849 286.718C489.849 285.886 490.159 285.273 490.777 284.878C491.407 284.473 492.276 284.169 493.385 283.966L495.193 283.63V283.342C495.193 282.905 495.039 282.569 494.729 282.334C494.431 282.089 494.031 281.966 493.529 281.966C493.103 281.966 492.729 282.041 492.409 282.19C492.1 282.329 491.764 282.564 491.401 282.894C491.263 283.012 491.129 283.07 491.001 283.07C490.873 283.07 490.74 283.012 490.601 282.894L490.345 282.67C490.207 282.542 490.137 282.404 490.137 282.254C490.137 282.116 490.201 281.982 490.329 281.854C490.788 281.417 491.273 281.092 491.785 280.878C492.297 280.665 492.868 280.558 493.497 280.558ZM492.905 287.582C493.545 287.582 494.084 287.412 494.521 287.07C494.969 286.729 495.193 286.238 495.193 285.598V284.862L493.801 285.15C493.023 285.31 492.447 285.492 492.073 285.694C491.7 285.897 491.513 286.206 491.513 286.622C491.513 286.921 491.636 287.156 491.881 287.326C492.127 287.497 492.468 287.582 492.905 287.582ZM502.399 287.342C502.431 287.332 502.479 287.326 502.543 287.326C502.81 287.326 502.97 287.481 503.023 287.79L503.071 288.046C503.082 288.078 503.087 288.132 503.087 288.206C503.087 288.473 502.938 288.644 502.639 288.718C502.213 288.814 501.823 288.862 501.471 288.862C500.714 288.862 500.165 288.686 499.823 288.334C499.493 287.982 499.327 287.454 499.327 286.75V282.094H498.447C498.277 282.094 498.138 282.046 498.031 281.95C497.935 281.844 497.887 281.705 497.887 281.534V281.358C497.887 281.177 497.935 281.038 498.031 280.942C498.138 280.846 498.277 280.798 498.447 280.798H499.327V278.814C499.327 278.633 499.375 278.494 499.471 278.398C499.578 278.302 499.717 278.254 499.887 278.254H500.463C500.645 278.254 500.783 278.302 500.879 278.398C500.975 278.494 501.023 278.633 501.023 278.814V280.798H502.463C502.645 280.798 502.783 280.846 502.879 280.942C502.975 281.038 503.023 281.177 503.023 281.358V281.534C503.023 281.705 502.975 281.844 502.879 281.95C502.783 282.046 502.645 282.094 502.463 282.094H501.023V286.542C501.023 286.852 501.087 287.07 501.215 287.198C501.354 287.326 501.573 287.39 501.871 287.39C501.999 287.39 502.175 287.374 502.399 287.342ZM505.283 279.262C504.974 279.262 504.713 279.161 504.499 278.958C504.286 278.745 504.179 278.494 504.179 278.206C504.179 277.908 504.286 277.657 504.499 277.454C504.713 277.252 504.974 277.15 505.283 277.15C505.593 277.15 505.854 277.252 506.067 277.454C506.281 277.657 506.387 277.908 506.387 278.206C506.387 278.494 506.281 278.745 506.067 278.958C505.854 279.161 505.593 279.262 505.283 279.262ZM504.979 288.686C504.809 288.686 504.67 288.638 504.563 288.542C504.467 288.436 504.419 288.297 504.419 288.126V281.358C504.419 281.177 504.467 281.038 504.563 280.942C504.67 280.846 504.809 280.798 504.979 280.798H505.555C505.737 280.798 505.875 280.846 505.971 280.942C506.067 281.038 506.115 281.177 506.115 281.358V288.126C506.115 288.297 506.067 288.436 505.971 288.542C505.875 288.638 505.737 288.686 505.555 288.686H504.979ZM511.628 288.926C510.849 288.926 510.156 288.75 509.548 288.398C508.95 288.046 508.481 287.556 508.14 286.926C507.798 286.286 507.628 285.556 507.628 284.734C507.628 283.913 507.798 283.188 508.14 282.558C508.481 281.929 508.95 281.438 509.548 281.086C510.156 280.734 510.849 280.558 511.628 280.558C512.396 280.558 513.084 280.734 513.692 281.086C514.3 281.438 514.774 281.934 515.116 282.574C515.457 283.204 515.628 283.924 515.628 284.734C515.628 285.556 515.457 286.286 515.116 286.926C514.774 287.556 514.3 288.046 513.692 288.398C513.084 288.75 512.396 288.926 511.628 288.926ZM511.628 287.502C512.31 287.502 512.86 287.252 513.276 286.75C513.692 286.238 513.9 285.566 513.9 284.734C513.9 283.913 513.692 283.252 513.276 282.75C512.86 282.249 512.31 281.998 511.628 281.998C510.945 281.998 510.396 282.249 509.98 282.75C509.564 283.252 509.356 283.913 509.356 284.734C509.356 285.566 509.564 286.238 509.98 286.75C510.396 287.252 510.945 287.502 511.628 287.502ZM521.139 280.558C522.045 280.558 522.739 280.814 523.219 281.326C523.709 281.828 523.955 282.478 523.955 283.278V288.126C523.955 288.297 523.907 288.436 523.811 288.542C523.715 288.638 523.576 288.686 523.395 288.686H522.819C522.648 288.686 522.509 288.638 522.403 288.542C522.307 288.436 522.259 288.297 522.259 288.126V283.806C522.259 283.23 522.115 282.788 521.827 282.478C521.549 282.169 521.149 282.014 520.627 282.014C520.115 282.014 519.683 282.19 519.331 282.542C518.989 282.894 518.819 283.337 518.819 283.87V288.126C518.819 288.297 518.771 288.436 518.675 288.542C518.579 288.638 518.44 288.686 518.259 288.686H517.683C517.512 288.686 517.373 288.638 517.267 288.542C517.171 288.436 517.123 288.297 517.123 288.126V281.358C517.123 281.177 517.171 281.038 517.267 280.942C517.373 280.846 517.512 280.798 517.683 280.798H518.147C518.328 280.798 518.467 280.846 518.563 280.942C518.659 281.038 518.707 281.177 518.707 281.358V281.774C518.963 281.38 519.299 281.081 519.715 280.878C520.131 280.665 520.605 280.558 521.139 280.558Z" fill="#697690"/>
</svg>
