<svg width="592" height="202" viewBox="0 0 592 202" fill="none" xmlns="http://www.w3.org/2000/svg">
<rect x="30.6292" y="75.3335" width="29.325" height="74.4215" rx="3.91" fill="#667788" fill-opacity="0.5"/>
<rect x="71.6842" y="38.7015" width="29.325" height="111.053" rx="3.91" fill="#CC3399"/>
<rect x="112.739" y="68.904" width="29.325" height="80.851" rx="3.91" fill="#667788" fill-opacity="0.5"/>
<rect x="153.794" y="97.024" width="29.325" height="52.7309" rx="3.91" fill="#667788" fill-opacity="0.5"/>
<path opacity="0.78" d="M30.6292 155.815L183.119 155.815" stroke="#667788" stroke-opacity="0.78" stroke-width="3.91" stroke-linecap="round"/>
<circle cx="458.929" cy="71.6418" r="34.9106" fill="#CC3399"/>
<circle cx="519.441" cy="109.656" r="25.6012" fill="#667788" fill-opacity="0.5"/>
<circle cx="467.463" cy="135.257" r="20.5585" fill="#667788" fill-opacity="0.5"/>
<path d="M305.514 43.8748C305.513 42.7556 306.396 41.9862 307.328 42.0514C313.986 42.5167 320.511 44.215 326.568 47.0712C333.763 50.4647 340.119 55.4087 345.179 61.5484C350.238 67.6881 353.876 74.8714 355.832 82.5832C357.788 90.2949 358.013 98.3439 356.491 106.153C354.969 113.962 351.737 121.337 347.029 127.75C342.32 134.162 336.25 139.454 329.255 143.244C322.26 147.034 314.513 149.229 306.569 149.672C299.884 150.044 293.199 149.168 286.853 147.098C285.965 146.809 285.436 145.764 285.856 144.727L292.365 128.674C292.751 127.722 293.943 127.101 295.231 127.441C298.533 128.312 301.961 128.663 305.388 128.472C310.203 128.204 314.9 126.873 319.14 124.575C323.38 122.278 327.06 119.07 329.914 115.183C332.769 111.295 334.728 106.824 335.65 102.091C336.573 97.3569 336.437 92.4776 335.251 87.8028C334.065 83.1279 331.86 78.7733 328.793 75.0514C325.726 71.3295 321.873 68.3325 317.511 66.2753C314.406 64.8111 311.098 63.8489 307.71 63.4162C306.389 63.2474 305.517 62.2241 305.517 61.1974L305.514 43.8748Z" fill="#CC3399"/>
<path d="M299.724 42.0516C300.657 41.9849 301.541 42.7531 301.542 43.8721L301.566 61.1947C301.568 62.2213 300.698 63.246 299.377 63.4169C293.3 64.2029 287.536 66.6862 282.767 70.6214C276.923 75.4433 272.936 82.1454 271.488 89.5817C270.039 97.0181 271.219 104.727 274.825 111.39C277.768 116.827 282.178 121.293 287.515 124.302C288.676 124.957 289.097 126.233 288.71 127.184L282.185 143.231C281.764 144.267 280.656 144.647 279.817 144.236C269.785 139.313 261.5 131.378 256.152 121.496C250.203 110.505 248.257 97.7887 250.647 85.5216C253.037 73.2545 259.614 62.1986 269.254 54.2444C277.92 47.093 288.579 42.8482 299.724 42.0516Z" fill="#667788" fill-opacity="0.5"/>
</svg>
