<svg width="41" height="24" viewBox="0 0 41 24" fill="none" xmlns="http://www.w3.org/2000/svg">
<rect width="41" height="24" rx="4" fill="#5473B5"/>
<path d="M11.5615 16C11.4015 16 11.3215 15.92 11.3215 15.76V8.188H8.81345C8.65345 8.188 8.57345 8.108 8.57345 7.948V7.72C8.57345 7.56 8.65345 7.48 8.81345 7.48H14.6695C14.8295 7.48 14.9095 7.56 14.9095 7.72V7.948C14.9095 8.108 14.8295 8.188 14.6695 8.188H12.1735V15.76C12.1735 15.92 12.0935 16 11.9335 16H11.5615ZM19.1745 14.596C19.2305 14.54 19.2905 14.512 19.3545 14.512C19.4105 14.512 19.4625 14.536 19.5105 14.584L19.6665 14.728C19.7225 14.784 19.7505 14.844 19.7505 14.908C19.7505 14.956 19.7265 15.012 19.6785 15.076C19.2865 15.468 18.9065 15.748 18.5385 15.916C18.1705 16.076 17.7585 16.156 17.3025 16.156C16.7265 16.156 16.2265 16.028 15.8025 15.772C15.3785 15.516 15.0505 15.16 14.8185 14.704C14.5865 14.24 14.4705 13.704 14.4705 13.096C14.4705 12.48 14.5825 11.936 14.8065 11.464C15.0385 10.984 15.3625 10.612 15.7785 10.348C16.1945 10.076 16.6745 9.94 17.2185 9.94C18.0265 9.94 18.6625 10.192 19.1265 10.696C19.5905 11.2 19.8225 11.88 19.8225 12.736V12.88C19.8145 12.952 19.7865 13.008 19.7385 13.048C19.6985 13.088 19.6425 13.108 19.5705 13.108H15.2745C15.2985 13.78 15.4745 14.348 15.8025 14.812C16.1385 15.268 16.6385 15.496 17.3025 15.496C17.6625 15.496 17.9785 15.432 18.2505 15.304C18.5305 15.168 18.8385 14.932 19.1745 14.596ZM17.2185 10.6C16.6905 10.6 16.2545 10.764 15.9105 11.092C15.5745 11.412 15.3705 11.884 15.2985 12.508H19.0305C19.0145 11.924 18.8465 11.46 18.5265 11.116C18.2065 10.772 17.7705 10.6 17.2185 10.6ZM23.6532 16.156C23.0852 16.156 22.5892 16.028 22.1652 15.772C21.7492 15.508 21.4252 15.144 21.1932 14.68C20.9692 14.208 20.8572 13.664 20.8572 13.048C20.8572 12.44 20.9692 11.9 21.1932 11.428C21.4252 10.956 21.7492 10.592 22.1652 10.336C22.5892 10.072 23.0772 9.94 23.6292 9.94C24.0772 9.94 24.4692 10.016 24.8052 10.168C25.1412 10.312 25.4652 10.552 25.7772 10.888C25.8252 10.936 25.8492 10.988 25.8492 11.044C25.8492 11.116 25.8172 11.176 25.7532 11.224L25.5852 11.38C25.5372 11.428 25.4812 11.452 25.4172 11.452C25.3612 11.452 25.3012 11.42 25.2372 11.356C24.9572 11.076 24.6892 10.88 24.4332 10.768C24.1852 10.656 23.9092 10.6 23.6052 10.6C23.1892 10.6 22.8332 10.716 22.5372 10.948C22.2492 11.18 22.0332 11.484 21.8892 11.86C21.7452 12.228 21.6732 12.624 21.6732 13.048C21.6732 13.472 21.7452 13.872 21.8892 14.248C22.0332 14.616 22.2532 14.916 22.5492 15.148C22.8452 15.372 23.2092 15.484 23.6412 15.484C23.9612 15.484 24.2412 15.428 24.4812 15.316C24.7292 15.196 25.0052 14.972 25.3092 14.644C25.3732 14.58 25.4332 14.548 25.4892 14.548C25.5532 14.548 25.6092 14.572 25.6572 14.62L25.8252 14.752C25.8812 14.8 25.9092 14.856 25.9092 14.92C25.9092 14.984 25.8732 15.06 25.8012 15.148C25.4652 15.516 25.1292 15.776 24.7932 15.928C24.4572 16.08 24.0772 16.156 23.6532 16.156ZM29.8346 9.94C30.5226 9.94 31.0466 10.136 31.4066 10.528C31.7666 10.912 31.9466 11.388 31.9466 11.956V15.76C31.9466 15.92 31.8666 16 31.7066 16H31.3946C31.2346 16 31.1546 15.92 31.1546 15.76V12.22C31.1546 11.692 31.0266 11.292 30.7706 11.02C30.5146 10.748 30.1466 10.612 29.6666 10.612C29.3626 10.612 29.0826 10.688 28.8266 10.84C28.5706 10.984 28.3666 11.184 28.2146 11.44C28.0626 11.696 27.9866 11.976 27.9866 12.28V15.76C27.9866 15.92 27.9066 16 27.7466 16H27.4346C27.2746 16 27.1946 15.92 27.1946 15.76V7.72C27.1946 7.56 27.2746 7.48 27.4346 7.48H27.7466C27.9066 7.48 27.9866 7.56 27.9866 7.72V10.852C28.1786 10.548 28.4346 10.32 28.7546 10.168C29.0826 10.016 29.4426 9.94 29.8346 9.94Z" fill="white"/>
</svg>
