<svg width="592" height="153" viewBox="0 0 592 153" fill="none" xmlns="http://www.w3.org/2000/svg">
<path d="M149.53 38.9656C148.944 39.5514 148.944 40.5011 149.53 41.0869L159.076 50.6328C159.662 51.2186 160.612 51.2186 161.197 50.6328C161.783 50.0471 161.783 49.0973 161.197 48.5115L152.712 40.0262L161.197 31.541C161.783 30.9552 161.783 30.0054 161.197 29.4196C160.612 28.8339 159.662 28.8339 159.076 29.4196L149.53 38.9656ZM431.284 41.0869C431.87 40.5011 431.87 39.5514 431.284 38.9656L421.738 29.4196C421.153 28.8339 420.203 28.8339 419.617 29.4196C419.031 30.0054 419.031 30.9552 419.617 31.541L428.102 40.0262L419.617 48.5115C419.031 49.0973 419.031 50.0471 419.617 50.6328C420.203 51.2186 421.153 51.2186 421.738 50.6328L431.284 41.0869ZM150.591 41.5262H430.224V38.5262H150.591V41.5262Z" fill="#5473B5"/>
<path d="M149.53 111.913C148.944 112.499 148.944 113.449 149.53 114.034L159.076 123.58C159.662 124.166 160.612 124.166 161.197 123.58C161.783 122.995 161.783 122.045 161.197 121.459L152.712 112.974L161.197 104.488C161.783 103.903 161.783 102.953 161.197 102.367C160.612 101.781 159.662 101.781 159.076 102.367L149.53 111.913ZM431.284 114.034C431.87 113.449 431.87 112.499 431.284 111.913L421.738 102.367C421.153 101.781 420.203 101.781 419.617 102.367C419.031 102.953 419.031 103.903 419.617 104.488L428.102 112.974L419.617 121.459C419.031 122.045 419.031 122.995 419.617 123.58C420.203 124.166 421.153 124.166 421.738 123.58L431.284 114.034ZM150.591 114.474H430.224V111.474H150.591V114.474Z" fill="#5473B5"/>
<path d="M88.9591 45.0264C88.7884 45.0264 88.6497 44.9784 88.5431 44.8824C88.4471 44.7757 88.3991 44.637 88.3991 44.4664V34.2264C88.3991 34.045 88.4471 33.9064 88.5431 33.8104C88.6497 33.7144 88.7884 33.6664 88.9591 33.6664H95.5991C95.7804 33.6664 95.9191 33.7144 96.0151 33.8104C96.1111 33.9064 96.1591 34.045 96.1591 34.2264V34.6424C96.1591 34.813 96.1111 34.9517 96.0151 35.0584C95.9191 35.1544 95.7804 35.2024 95.5991 35.2024H90.2231V38.4024H95.1991C95.3804 38.4024 95.5191 38.4504 95.6151 38.5464C95.7111 38.6424 95.7591 38.781 95.7591 38.9624V39.3784C95.7591 39.549 95.7111 39.6877 95.6151 39.7944C95.5191 39.8904 95.3804 39.9384 95.1991 39.9384H90.2231V43.4904H95.7591C95.9404 43.4904 96.0791 43.5384 96.1751 43.6344C96.2711 43.7304 96.3191 43.869 96.3191 44.0504V44.4664C96.3191 44.637 96.2711 44.7757 96.1751 44.8824C96.0791 44.9784 95.9404 45.0264 95.7591 45.0264H88.9591ZM104.354 44.3544C104.439 44.493 104.482 44.605 104.482 44.6904C104.482 44.797 104.439 44.8824 104.354 44.9464C104.268 44.9997 104.151 45.0264 104.002 45.0264H103.378C103.079 45.0264 102.855 44.9037 102.706 44.6584L100.994 42.0824L99.2817 44.6584C99.1323 44.9037 98.9083 45.0264 98.6097 45.0264H98.0337C97.8737 45.0264 97.751 44.9997 97.6657 44.9464C97.5803 44.8824 97.5377 44.797 97.5377 44.6904C97.5377 44.605 97.5803 44.493 97.6657 44.3544L100.05 40.8984L97.9057 37.8104C97.8203 37.6717 97.7777 37.5597 97.7777 37.4744C97.7777 37.3677 97.8203 37.2877 97.9057 37.2344C97.991 37.1704 98.1137 37.1384 98.2737 37.1384H98.8657C99.1537 37.1384 99.3777 37.2557 99.5377 37.4904L101.026 39.6984L102.482 37.5064C102.631 37.261 102.855 37.1384 103.154 37.1384H103.714C103.863 37.1384 103.98 37.1704 104.066 37.2344C104.151 37.2984 104.194 37.3837 104.194 37.4904C104.194 37.5757 104.151 37.6877 104.066 37.8264L101.97 40.8344L104.354 44.3544ZM110.116 36.9304C110.788 36.9304 111.386 37.101 111.908 37.4424C112.442 37.7837 112.858 38.269 113.156 38.8984C113.455 39.5277 113.604 40.253 113.604 41.0744C113.604 41.9064 113.455 42.637 113.156 43.2664C112.858 43.8957 112.442 44.381 111.908 44.7224C111.375 45.0637 110.778 45.2344 110.116 45.2344C109.007 45.2344 108.175 44.8504 107.62 44.0824V47.2984C107.62 47.4797 107.572 47.6184 107.476 47.7144C107.38 47.8104 107.242 47.8584 107.06 47.8584H106.484C106.314 47.8584 106.175 47.8104 106.068 47.7144C105.972 47.6184 105.924 47.4797 105.924 47.2984V37.6984C105.924 37.517 105.972 37.3784 106.068 37.2824C106.175 37.1864 106.314 37.1384 106.484 37.1384H106.948C107.13 37.1384 107.268 37.1864 107.364 37.2824C107.46 37.3784 107.508 37.517 107.508 37.6984V38.2904C108.074 37.3837 108.943 36.9304 110.116 36.9304ZM109.764 43.7624C110.404 43.7624 110.916 43.5224 111.3 43.0424C111.684 42.5517 111.876 41.8957 111.876 41.0744C111.876 40.2637 111.684 39.613 111.3 39.1224C110.927 38.6317 110.42 38.3864 109.78 38.3864C109.13 38.3864 108.596 38.6264 108.18 39.1064C107.764 39.5864 107.556 40.2424 107.556 41.0744C107.556 41.9064 107.764 42.5624 108.18 43.0424C108.596 43.5224 109.124 43.7624 109.764 43.7624ZM115.767 45.0264C115.596 45.0264 115.458 44.9784 115.351 44.8824C115.255 44.7757 115.207 44.637 115.207 44.4664V34.2264C115.207 34.045 115.255 33.9064 115.351 33.8104C115.458 33.7144 115.596 33.6664 115.767 33.6664H116.343C116.524 33.6664 116.663 33.7144 116.759 33.8104C116.855 33.9064 116.903 34.045 116.903 34.2264V44.4664C116.903 44.637 116.855 44.7757 116.759 44.8824C116.663 44.9784 116.524 45.0264 116.343 45.0264H115.767ZM122.252 36.8984C123.319 36.8984 124.14 37.149 124.716 37.6504C125.292 38.141 125.58 38.797 125.58 39.6184V44.4664C125.58 44.637 125.532 44.7757 125.436 44.8824C125.34 44.9784 125.202 45.0264 125.02 45.0264H124.604C124.434 45.0264 124.295 44.9784 124.188 44.8824C124.092 44.7757 124.044 44.637 124.044 44.4664V44.1144C123.788 44.4877 123.436 44.7757 122.988 44.9784C122.54 45.181 122.018 45.2824 121.42 45.2824C120.599 45.2824 119.922 45.101 119.388 44.7384C118.866 44.365 118.604 43.805 118.604 43.0584C118.604 42.2264 118.914 41.613 119.532 41.2184C120.162 40.813 121.031 40.509 122.14 40.3064L123.948 39.9704V39.6824C123.948 39.245 123.794 38.909 123.484 38.6744C123.186 38.429 122.786 38.3064 122.284 38.3064C121.858 38.3064 121.484 38.381 121.164 38.5304C120.855 38.669 120.519 38.9037 120.156 39.2344C120.018 39.3517 119.884 39.4104 119.756 39.4104C119.628 39.4104 119.495 39.3517 119.356 39.2344L119.1 39.0104C118.962 38.8824 118.892 38.7437 118.892 38.5944C118.892 38.4557 118.956 38.3224 119.084 38.1944C119.543 37.757 120.028 37.4317 120.54 37.2184C121.052 37.005 121.623 36.8984 122.252 36.8984ZM121.66 43.9224C122.3 43.9224 122.839 43.7517 123.276 43.4104C123.724 43.069 123.948 42.5784 123.948 41.9384V41.2024L122.556 41.4904C121.778 41.6504 121.202 41.8317 120.828 42.0344C120.455 42.237 120.268 42.5464 120.268 42.9624C120.268 43.261 120.391 43.4957 120.636 43.6664C120.882 43.837 121.223 43.9224 121.66 43.9224ZM128.382 35.6024C128.073 35.6024 127.811 35.501 127.598 35.2984C127.385 35.085 127.278 34.8344 127.278 34.5464C127.278 34.2477 127.385 33.997 127.598 33.7944C127.811 33.5917 128.073 33.4904 128.382 33.4904C128.691 33.4904 128.953 33.5917 129.166 33.7944C129.379 33.997 129.486 34.2477 129.486 34.5464C129.486 34.8344 129.379 35.085 129.166 35.2984C128.953 35.501 128.691 35.6024 128.382 35.6024ZM128.078 45.0264C127.907 45.0264 127.769 44.9784 127.662 44.8824C127.566 44.7757 127.518 44.637 127.518 44.4664V37.6984C127.518 37.517 127.566 37.3784 127.662 37.2824C127.769 37.1864 127.907 37.1384 128.078 37.1384H128.654C128.835 37.1384 128.974 37.1864 129.07 37.2824C129.166 37.3784 129.214 37.517 129.214 37.6984V44.4664C129.214 44.637 129.166 44.7757 129.07 44.8824C128.974 44.9784 128.835 45.0264 128.654 45.0264H128.078ZM135.19 36.8984C136.097 36.8984 136.79 37.1544 137.27 37.6664C137.761 38.1677 138.006 38.8184 138.006 39.6184V44.4664C138.006 44.637 137.958 44.7757 137.862 44.8824C137.766 44.9784 137.628 45.0264 137.446 45.0264H136.87C136.7 45.0264 136.561 44.9784 136.454 44.8824C136.358 44.7757 136.31 44.637 136.31 44.4664V40.1464C136.31 39.5704 136.166 39.1277 135.878 38.8184C135.601 38.509 135.201 38.3544 134.678 38.3544C134.166 38.3544 133.734 38.5304 133.382 38.8824C133.041 39.2344 132.87 39.677 132.87 40.2104V44.4664C132.87 44.637 132.822 44.7757 132.726 44.8824C132.63 44.9784 132.492 45.0264 132.31 45.0264H131.734C131.564 45.0264 131.425 44.9784 131.318 44.8824C131.222 44.7757 131.174 44.637 131.174 44.4664V37.6984C131.174 37.517 131.222 37.3784 131.318 37.2824C131.425 37.1864 131.564 37.1384 131.734 37.1384H132.198C132.38 37.1384 132.518 37.1864 132.614 37.2824C132.71 37.3784 132.758 37.517 132.758 37.6984V38.1144C133.014 37.7197 133.35 37.421 133.766 37.2184C134.182 37.005 134.657 36.8984 135.19 36.8984Z" fill="#5473B5"/>
<path d="M112.119 117.302C112.194 117.419 112.231 117.526 112.231 117.622C112.231 117.728 112.188 117.814 112.103 117.878C112.018 117.942 111.9 117.974 111.751 117.974H110.951C110.652 117.974 110.428 117.851 110.279 117.606L107.639 113.574H105.223V117.414C105.223 117.584 105.175 117.723 105.079 117.83C104.983 117.926 104.844 117.974 104.663 117.974H103.959C103.788 117.974 103.65 117.926 103.543 117.83C103.447 117.723 103.399 117.584 103.399 117.414V107.174C103.399 106.992 103.447 106.854 103.543 106.758C103.65 106.662 103.788 106.614 103.959 106.614H108.439C109.154 106.614 109.794 106.758 110.359 107.046C110.924 107.323 111.362 107.728 111.671 108.262C111.991 108.784 112.151 109.398 112.151 110.102C112.151 110.955 111.916 111.68 111.447 112.278C110.978 112.864 110.348 113.254 109.559 113.446L112.119 117.302ZM105.223 112.054H108.135C108.818 112.054 109.356 111.888 109.751 111.558C110.156 111.216 110.359 110.731 110.359 110.102C110.359 109.462 110.156 108.976 109.751 108.646C109.356 108.304 108.818 108.134 108.135 108.134H105.223V112.054ZM119.307 115.958C119.445 115.84 119.579 115.782 119.707 115.782C119.835 115.782 119.968 115.851 120.107 115.99L120.331 116.23C120.448 116.368 120.507 116.502 120.507 116.63C120.507 116.768 120.437 116.902 120.299 117.03C119.808 117.456 119.317 117.76 118.827 117.942C118.347 118.123 117.813 118.214 117.227 118.214C116.405 118.214 115.691 118.043 115.083 117.702C114.485 117.36 114.021 116.88 113.691 116.262C113.371 115.632 113.211 114.907 113.211 114.086C113.211 113.275 113.365 112.55 113.675 111.91C113.995 111.259 114.443 110.752 115.019 110.39C115.605 110.027 116.288 109.846 117.067 109.846C118.229 109.846 119.125 110.192 119.755 110.886C120.384 111.568 120.699 112.512 120.699 113.718V113.862C120.688 114.032 120.635 114.166 120.539 114.262C120.443 114.358 120.304 114.406 120.123 114.406H114.875C114.939 115.11 115.168 115.686 115.563 116.134C115.968 116.571 116.533 116.79 117.259 116.79C117.653 116.79 118 116.731 118.299 116.614C118.597 116.486 118.933 116.267 119.307 115.958ZM117.035 111.19C116.448 111.19 115.973 111.366 115.611 111.718C115.259 112.059 115.029 112.544 114.923 113.174H119.035C118.992 112.555 118.8 112.07 118.459 111.718C118.117 111.366 117.643 111.19 117.035 111.19ZM125.471 109.846C126.538 109.846 127.359 110.096 127.935 110.598C128.511 111.088 128.799 111.744 128.799 112.566V117.414C128.799 117.584 128.751 117.723 128.655 117.83C128.559 117.926 128.42 117.974 128.239 117.974H127.823C127.652 117.974 127.514 117.926 127.407 117.83C127.311 117.723 127.263 117.584 127.263 117.414V117.062C127.007 117.435 126.655 117.723 126.207 117.926C125.759 118.128 125.236 118.23 124.639 118.23C123.818 118.23 123.14 118.048 122.607 117.686C122.084 117.312 121.823 116.752 121.823 116.006C121.823 115.174 122.132 114.56 122.751 114.166C123.38 113.76 124.25 113.456 125.359 113.254L127.167 112.918V112.63C127.167 112.192 127.012 111.856 126.703 111.622C126.404 111.376 126.004 111.254 125.503 111.254C125.076 111.254 124.703 111.328 124.383 111.478C124.074 111.616 123.738 111.851 123.375 112.182C123.236 112.299 123.103 112.358 122.975 112.358C122.847 112.358 122.714 112.299 122.575 112.182L122.319 111.958C122.18 111.83 122.111 111.691 122.111 111.542C122.111 111.403 122.175 111.27 122.303 111.142C122.762 110.704 123.247 110.379 123.759 110.166C124.271 109.952 124.842 109.846 125.471 109.846ZM124.879 116.87C125.519 116.87 126.058 116.699 126.495 116.358C126.943 116.016 127.167 115.526 127.167 114.886V114.15L125.775 114.438C124.996 114.598 124.42 114.779 124.047 114.982C123.674 115.184 123.487 115.494 123.487 115.91C123.487 116.208 123.61 116.443 123.855 116.614C124.1 116.784 124.442 116.87 124.879 116.87ZM136.289 107.158C136.289 106.976 136.337 106.838 136.433 106.742C136.539 106.646 136.678 106.598 136.849 106.598H137.425C137.606 106.598 137.745 106.646 137.841 106.742C137.937 106.838 137.985 106.976 137.985 107.158V117.414C137.985 117.584 137.937 117.723 137.841 117.83C137.745 117.926 137.606 117.974 137.425 117.974H136.961C136.79 117.974 136.651 117.926 136.545 117.83C136.449 117.723 136.401 117.584 136.401 117.414V116.854C135.846 117.75 134.977 118.198 133.793 118.198C133.131 118.198 132.534 118.027 132.001 117.686C131.478 117.344 131.067 116.859 130.769 116.23C130.47 115.6 130.321 114.87 130.321 114.038C130.321 113.216 130.47 112.491 130.769 111.862C131.078 111.232 131.499 110.747 132.033 110.406C132.566 110.064 133.163 109.894 133.825 109.894C134.913 109.894 135.734 110.272 136.289 111.03V107.158ZM134.145 116.742C134.795 116.742 135.329 116.502 135.745 116.022C136.161 115.531 136.369 114.87 136.369 114.038C136.369 113.206 136.161 112.55 135.745 112.07C135.329 111.59 134.795 111.35 134.145 111.35C133.515 111.35 133.009 111.595 132.625 112.086C132.241 112.576 132.049 113.227 132.049 114.038C132.049 114.859 132.235 115.515 132.609 116.006C132.993 116.496 133.505 116.742 134.145 116.742Z" fill="#5473B5"/>
<path d="M443.626 45.0262C443.456 45.0262 443.317 44.9782 443.21 44.8822C443.114 44.7756 443.066 44.6369 443.066 44.4662V34.2262C443.066 34.0449 443.114 33.9062 443.21 33.8102C443.317 33.7142 443.456 33.6662 443.626 33.6662H450.266C450.448 33.6662 450.586 33.7142 450.682 33.8102C450.778 33.9062 450.826 34.0449 450.826 34.2262V34.6422C450.826 34.8129 450.778 34.9516 450.682 35.0582C450.586 35.1542 450.448 35.2022 450.266 35.2022H444.89V38.4022H449.866C450.048 38.4022 450.186 38.4502 450.282 38.5462C450.378 38.6422 450.426 38.7809 450.426 38.9622V39.3782C450.426 39.5489 450.378 39.6876 450.282 39.7942C450.186 39.8902 450.048 39.9382 449.866 39.9382H444.89V43.4902H450.426C450.608 43.4902 450.746 43.5382 450.842 43.6342C450.938 43.7302 450.986 43.8689 450.986 44.0502V44.4662C450.986 44.6369 450.938 44.7756 450.842 44.8822C450.746 44.9782 450.608 45.0262 450.426 45.0262H443.626ZM459.021 44.3542C459.106 44.4929 459.149 44.6049 459.149 44.6902C459.149 44.7969 459.106 44.8822 459.021 44.9462C458.936 44.9996 458.818 45.0262 458.669 45.0262H458.045C457.746 45.0262 457.522 44.9036 457.373 44.6582L455.661 42.0822L453.949 44.6582C453.8 44.9036 453.576 45.0262 453.277 45.0262H452.701C452.541 45.0262 452.418 44.9996 452.333 44.9462C452.248 44.8822 452.205 44.7969 452.205 44.6902C452.205 44.6049 452.248 44.4929 452.333 44.3542L454.717 40.8982L452.573 37.8102C452.488 37.6716 452.445 37.5596 452.445 37.4742C452.445 37.3676 452.488 37.2876 452.573 37.2342C452.658 37.1702 452.781 37.1382 452.941 37.1382H453.533C453.821 37.1382 454.045 37.2556 454.205 37.4902L455.693 39.6982L457.149 37.5062C457.298 37.2609 457.522 37.1382 457.821 37.1382H458.381C458.53 37.1382 458.648 37.1702 458.733 37.2342C458.818 37.2982 458.861 37.3836 458.861 37.4902C458.861 37.5756 458.818 37.6876 458.733 37.8262L456.637 40.8342L459.021 44.3542ZM464.784 36.9302C465.456 36.9302 466.053 37.1009 466.576 37.4422C467.109 37.7836 467.525 38.2689 467.824 38.8982C468.122 39.5276 468.272 40.2529 468.272 41.0742C468.272 41.9062 468.122 42.6369 467.824 43.2662C467.525 43.8956 467.109 44.3809 466.576 44.7222C466.042 45.0636 465.445 45.2342 464.784 45.2342C463.674 45.2342 462.842 44.8502 462.288 44.0822V47.2982C462.288 47.4796 462.24 47.6182 462.144 47.7142C462.048 47.8102 461.909 47.8582 461.728 47.8582H461.152C460.981 47.8582 460.842 47.8102 460.736 47.7142C460.64 47.6182 460.592 47.4796 460.592 47.2982V37.6982C460.592 37.5169 460.64 37.3782 460.736 37.2822C460.842 37.1862 460.981 37.1382 461.152 37.1382H461.616C461.797 37.1382 461.936 37.1862 462.032 37.2822C462.128 37.3782 462.176 37.5169 462.176 37.6982V38.2902C462.741 37.3836 463.61 36.9302 464.784 36.9302ZM464.432 43.7622C465.072 43.7622 465.584 43.5222 465.968 43.0422C466.352 42.5516 466.544 41.8956 466.544 41.0742C466.544 40.2636 466.352 39.6129 465.968 39.1222C465.594 38.6316 465.088 38.3862 464.448 38.3862C463.797 38.3862 463.264 38.6262 462.848 39.1062C462.432 39.5862 462.224 40.2422 462.224 41.0742C462.224 41.9062 462.432 42.5622 462.848 43.0422C463.264 43.5222 463.792 43.7622 464.432 43.7622ZM470.434 45.0262C470.264 45.0262 470.125 44.9782 470.018 44.8822C469.922 44.7756 469.874 44.6369 469.874 44.4662V34.2262C469.874 34.0449 469.922 33.9062 470.018 33.8102C470.125 33.7142 470.264 33.6662 470.434 33.6662H471.01C471.192 33.6662 471.33 33.7142 471.426 33.8102C471.522 33.9062 471.57 34.0449 471.57 34.2262V44.4662C471.57 44.6369 471.522 44.7756 471.426 44.8822C471.33 44.9782 471.192 45.0262 471.01 45.0262H470.434ZM477.144 45.2662C476.365 45.2662 475.672 45.0902 475.064 44.7382C474.466 44.3862 473.997 43.8956 473.656 43.2662C473.314 42.6262 473.144 41.8956 473.144 41.0742C473.144 40.2529 473.314 39.5276 473.656 38.8982C473.997 38.2689 474.466 37.7782 475.064 37.4262C475.672 37.0742 476.365 36.8982 477.144 36.8982C477.912 36.8982 478.6 37.0742 479.208 37.4262C479.816 37.7782 480.29 38.2742 480.632 38.9142C480.973 39.5436 481.144 40.2636 481.144 41.0742C481.144 41.8956 480.973 42.6262 480.632 43.2662C480.29 43.8956 479.816 44.3862 479.208 44.7382C478.6 45.0902 477.912 45.2662 477.144 45.2662ZM477.144 43.8422C477.826 43.8422 478.376 43.5916 478.792 43.0902C479.208 42.5782 479.416 41.9062 479.416 41.0742C479.416 40.2529 479.208 39.5916 478.792 39.0902C478.376 38.5889 477.826 38.3382 477.144 38.3382C476.461 38.3382 475.912 38.5889 475.496 39.0902C475.08 39.5916 474.872 40.2529 474.872 41.0742C474.872 41.9062 475.08 42.5782 475.496 43.0902C475.912 43.5916 476.461 43.8422 477.144 43.8422ZM486.191 37.0582C486.425 37.0582 486.665 37.0849 486.911 37.1382C487.199 37.2022 487.343 37.3729 487.343 37.6502C487.343 37.7249 487.337 37.7782 487.327 37.8102L487.247 38.1942C487.183 38.4929 487.023 38.6422 486.767 38.6422L486.623 38.6262C486.431 38.5942 486.26 38.5782 486.111 38.5782C485.577 38.5782 485.145 38.7916 484.815 39.2182C484.495 39.6342 484.335 40.2156 484.335 40.9622V44.4662C484.335 44.6369 484.287 44.7756 484.191 44.8822C484.095 44.9782 483.956 45.0262 483.775 45.0262H483.199C483.028 45.0262 482.889 44.9782 482.783 44.8822C482.687 44.7756 482.639 44.6369 482.639 44.4662V37.6982C482.639 37.5169 482.687 37.3782 482.783 37.2822C482.889 37.1862 483.028 37.1382 483.199 37.1382H483.663C483.844 37.1382 483.983 37.1862 484.079 37.2822C484.175 37.3782 484.223 37.5169 484.223 37.6982V38.3222C484.415 37.9276 484.676 37.6182 485.007 37.3942C485.337 37.1702 485.732 37.0582 486.191 37.0582ZM493.849 43.0102C493.988 42.8929 494.121 42.8342 494.249 42.8342C494.377 42.8342 494.51 42.9036 494.649 43.0422L494.873 43.2822C494.99 43.4209 495.049 43.5542 495.049 43.6822C495.049 43.8209 494.98 43.9542 494.841 44.0822C494.35 44.5089 493.86 44.8129 493.369 44.9942C492.889 45.1756 492.356 45.2662 491.769 45.2662C490.948 45.2662 490.233 45.0956 489.625 44.7542C489.028 44.4129 488.564 43.9329 488.233 43.3142C487.913 42.6849 487.753 41.9596 487.753 41.1382C487.753 40.3276 487.908 39.6022 488.217 38.9622C488.537 38.3116 488.985 37.8049 489.561 37.4422C490.148 37.0796 490.83 36.8982 491.609 36.8982C492.772 36.8982 493.668 37.2449 494.297 37.9382C494.926 38.6209 495.241 39.5649 495.241 40.7702V40.9142C495.23 41.0849 495.177 41.2182 495.081 41.3142C494.985 41.4102 494.846 41.4582 494.665 41.4582H489.417C489.481 42.1622 489.71 42.7382 490.105 43.1862C490.51 43.6236 491.076 43.8422 491.801 43.8422C492.196 43.8422 492.542 43.7836 492.841 43.6662C493.14 43.5382 493.476 43.3196 493.849 43.0102ZM491.577 38.2422C490.99 38.2422 490.516 38.4182 490.153 38.7702C489.801 39.1116 489.572 39.5969 489.465 40.2262H493.577C493.534 39.6076 493.342 39.1222 493.001 38.7702C492.66 38.4182 492.185 38.2422 491.577 38.2422Z" fill="#5473B5"/>
<path d="M443.626 117.974C443.456 117.974 443.317 117.926 443.21 117.83C443.114 117.723 443.066 117.584 443.066 117.414V107.174C443.066 106.992 443.114 106.854 443.21 106.758C443.317 106.662 443.456 106.614 443.626 106.614H450.266C450.448 106.614 450.586 106.662 450.682 106.758C450.778 106.854 450.826 106.992 450.826 107.174V107.59C450.826 107.76 450.778 107.899 450.682 108.006C450.586 108.102 450.448 108.15 450.266 108.15H444.89V111.622H449.834C450.016 111.622 450.154 111.67 450.25 111.766C450.346 111.862 450.394 112 450.394 112.182V112.582C450.394 112.752 450.346 112.891 450.25 112.998C450.154 113.094 450.016 113.142 449.834 113.142H444.89V117.414C444.89 117.584 444.842 117.723 444.746 117.83C444.65 117.926 444.512 117.974 444.33 117.974H443.626ZM457.802 115.958C457.941 115.84 458.074 115.782 458.202 115.782C458.33 115.782 458.464 115.851 458.602 115.99L458.826 116.23C458.944 116.368 459.002 116.502 459.002 116.63C459.002 116.768 458.933 116.902 458.794 117.03C458.304 117.456 457.813 117.76 457.322 117.942C456.842 118.123 456.309 118.214 455.722 118.214C454.901 118.214 454.186 118.043 453.578 117.702C452.981 117.36 452.517 116.88 452.186 116.262C451.866 115.632 451.706 114.907 451.706 114.086C451.706 113.275 451.861 112.55 452.17 111.91C452.49 111.259 452.938 110.752 453.514 110.39C454.101 110.027 454.784 109.846 455.562 109.846C456.725 109.846 457.621 110.192 458.25 110.886C458.88 111.568 459.194 112.512 459.194 113.718V113.862C459.184 114.032 459.13 114.166 459.034 114.262C458.938 114.358 458.8 114.406 458.618 114.406H453.37C453.434 115.11 453.664 115.686 454.058 116.134C454.464 116.571 455.029 116.79 455.754 116.79C456.149 116.79 456.496 116.731 456.794 116.614C457.093 116.486 457.429 116.267 457.802 115.958ZM455.53 111.19C454.944 111.19 454.469 111.366 454.106 111.718C453.754 112.059 453.525 112.544 453.418 113.174H457.53C457.488 112.555 457.296 112.07 456.954 111.718C456.613 111.366 456.138 111.19 455.53 111.19ZM466.427 115.958C466.566 115.84 466.699 115.782 466.827 115.782C466.955 115.782 467.089 115.851 467.227 115.99L467.451 116.23C467.569 116.368 467.627 116.502 467.627 116.63C467.627 116.768 467.558 116.902 467.419 117.03C466.929 117.456 466.438 117.76 465.947 117.942C465.467 118.123 464.934 118.214 464.347 118.214C463.526 118.214 462.811 118.043 462.203 117.702C461.606 117.36 461.142 116.88 460.811 116.262C460.491 115.632 460.331 114.907 460.331 114.086C460.331 113.275 460.486 112.55 460.795 111.91C461.115 111.259 461.563 110.752 462.139 110.39C462.726 110.027 463.409 109.846 464.187 109.846C465.35 109.846 466.246 110.192 466.875 110.886C467.505 111.568 467.819 112.512 467.819 113.718V113.862C467.809 114.032 467.755 114.166 467.659 114.262C467.563 114.358 467.425 114.406 467.243 114.406H461.995C462.059 115.11 462.289 115.686 462.683 116.134C463.089 116.571 463.654 116.79 464.379 116.79C464.774 116.79 465.121 116.731 465.419 116.614C465.718 116.486 466.054 116.267 466.427 115.958ZM464.155 111.19C463.569 111.19 463.094 111.366 462.731 111.718C462.379 112.059 462.15 112.544 462.043 113.174H466.155C466.113 112.555 465.921 112.07 465.579 111.718C465.238 111.366 464.763 111.19 464.155 111.19ZM469.997 117.974C469.826 117.974 469.688 117.926 469.581 117.83C469.485 117.723 469.437 117.584 469.437 117.414V107.174C469.437 106.992 469.485 106.854 469.581 106.758C469.688 106.662 469.826 106.614 469.997 106.614H470.573C470.754 106.614 470.893 106.662 470.989 106.758C471.085 106.854 471.133 106.992 471.133 107.174V117.414C471.133 117.584 471.085 117.723 470.989 117.83C470.893 117.926 470.754 117.974 470.573 117.974H469.997Z" fill="#5473B5"/>
</svg>
