<?xml version="1.0" encoding="UTF-8" standalone="no"?>
<!DOCTYPE svg PUBLIC "-//W3C//DTD SVG 1.1//EN" "http://www.w3.org/Graphics/SVG/1.1/DTD/svg11.dtd">
<svg width="100%" height="100%" viewBox="0 0 1440 1440" version="1.1" xmlns="http://www.w3.org/2000/svg" xmlns:xlink="http://www.w3.org/1999/xlink" xml:space="preserve" xmlns:serif="http://www.serif.com/" style="fill-rule:evenodd;clip-rule:evenodd;stroke-linecap:round;stroke-linejoin:round;stroke-miterlimit:1.5;">
    <g transform="matrix(1,0,0,1,-3502,0)">
        <g transform="matrix(0.895888,0,0,1,2310.28,576)">
            <rect id="small-version" x="1330.21" y="-576" width="1607.34" height="1440" style="fill:none;"/>
            <g id="small-version1" serif:id="small-version">
                <g transform="matrix(1.11621,0,0,1,-2019.31,-425.787)">
                    <path d="M3226.83,598.543L3498.84,1065.03L3674.79,757.278" style="fill:none;stroke:rgb(25,139,161);stroke-width:50px;"/>
                </g>
                <g transform="matrix(1.11621,0,0,1,-1520.06,-432.303)">
                    <path d="M3319.95,757.303L3500.04,1066.55L3767.51,601.163" style="fill:none;stroke:rgb(25,139,161);stroke-width:50px;"/>
                </g>
                <g transform="matrix(0.632545,0.971847,-0.553957,0.868201,999.529,-2716.43)">
                    <path d="M2224.06,600.019L1920,600.019L1920,1140L2400,1140L2400,793.001" style="fill:none;stroke:rgb(117,82,135);stroke-width:19.2px;"/>
                </g>
                <g transform="matrix(1.45107,0,0,1.05946,-628.76,-496.244)">
                    <ellipse cx="1730" cy="596.53" rx="100" ry="226.53" style="fill:none;stroke:rgb(117,82,135);stroke-width:14.05px;"/>
                </g>
                <g transform="matrix(1.10432,0,0,1,-2.27777,-464.243)">
                    <path d="M1771.61,392.15C1771.61,392.15 1872.78,469.907 1925,470C1937.14,470.022 1952.28,465.855 1968.37,459.447" style="fill:none;stroke:rgb(117,82,135);stroke-width:16.76px;"/>
                </g>
                <g transform="matrix(-1.10432,-1.2116e-16,1.37628e-16,-1.00682,4256.6,738.58)">
                    <path d="M1886.24,460.951C1900.42,466.498 1913.83,470.019 1925,470C1977.22,469.913 2084.95,392.3 2084.95,392.3" style="fill:none;stroke:rgb(117,82,135);stroke-width:16.7px;"/>
                </g>
                <g transform="matrix(1.45107,0,0,1.05946,-137.066,-496.225)">
                    <ellipse cx="1730" cy="596.53" rx="100" ry="226.53" style="fill:none;stroke:rgb(117,82,135);stroke-width:14.05px;"/>
                </g>
                <g transform="matrix(0.632545,0.971847,-0.553957,0.868201,1499.54,-2721.13)">
                    <rect x="1920" y="600.019" width="480" height="539.981" style="fill:none;stroke:rgb(117,82,135);stroke-width:19.2px;"/>
                </g>
            </g>
        </g>
    </g>
</svg>
